<svg width="64" height="56" viewBox="0 0 64 56" fill="none" xmlns="http://www.w3.org/2000/svg" id="icon-purse">
    <path d="M60.2461 23.3836H59.3235V20.6139V10.7678C59.3235 7.54415 56.7009 4.92152 53.4774 4.92152H28.1262L11.0232 0.0348982C11.0183 0.0335444 11.0132 0.0328057 11.0083 0.0314519C11.0033 0.0300981 10.9985 0.028129 10.9934 0.0268982C10.9831 0.0243136 10.9729 0.0230829 10.9626 0.0208675C10.9468 0.0175445 10.9309 0.0140983 10.915 0.0115137C10.9006 0.00917525 10.8865 0.00769832 10.8721 0.00597526C10.8553 0.00400604 10.8387 0.00228296 10.8221 0.00129835C10.8086 0.00055989 10.7951 0.000436717 10.7816 0.000190565C10.7644 -5.55875e-05 10.7473 -0.000178632 10.7302 0.000559826C10.7175 0.00105213 10.7048 0.00228281 10.6922 0.00326742C10.6746 0.00474434 10.657 0.00634451 10.6397 0.00892911C10.6279 0.0106522 10.6162 0.0128675 10.6045 0.0149598C10.5865 0.0181598 10.5688 0.0216058 10.5512 0.0259135C10.5402 0.0286211 10.5295 0.0316981 10.5187 0.034775C10.5007 0.0399442 10.483 0.0452365 10.4653 0.0513903C10.4553 0.0549595 10.4455 0.058775 10.4355 0.0627135C10.4177 0.0696057 10.3999 0.076867 10.3826 0.084867C10.3734 0.0891746 10.3644 0.0938516 10.3553 0.0984054C10.3379 0.107144 10.3208 0.116005 10.3041 0.125975C10.2953 0.131021 10.287 0.136436 10.2783 0.141851C10.2619 0.15219 10.2456 0.162774 10.2298 0.174221C10.2216 0.180128 10.2136 0.186528 10.2055 0.192805C10.1903 0.204497 10.1753 0.216436 10.1609 0.229112C10.1528 0.236251 10.1451 0.243759 10.1372 0.251143C10.1236 0.263943 10.1102 0.276743 10.0974 0.290281C10.0894 0.298774 10.0819 0.307635 10.0742 0.316496C10.0625 0.329912 10.0509 0.34345 10.0399 0.357604C10.0321 0.367819 10.0247 0.378281 10.0172 0.388742C10.0075 0.402404 9.99785 0.416188 9.98899 0.430342C9.98136 0.442404 9.97434 0.454957 9.96733 0.467388C9.95957 0.48105 9.95182 0.494834 9.94481 0.508988C9.93791 0.522772 9.93176 0.536926 9.92548 0.55108C9.91933 0.564988 9.9133 0.578895 9.90788 0.593172C9.90222 0.608187 9.8973 0.623572 9.89225 0.63908C9.88905 0.649049 9.88511 0.658402 9.88216 0.668495C9.88068 0.673541 9.88007 0.678464 9.87871 0.683387C9.87736 0.688433 9.87539 0.693233 9.87416 0.698279L8.81866 4.92127H5.84674C2.62965 4.92127 0.0115692 7.53332 0.00098461 10.7481C0.000861534 10.7547 0 10.761 0 10.7675V42.7673C0 43.2769 0.414767 43.6904 0.923072 43.6904C1.43261 43.6904 1.84614 43.2769 1.84614 42.7673V15.0251C2.89278 16.0092 4.30004 16.614 5.84674 16.614H53.4774C53.4785 16.614 53.4795 16.6139 53.4806 16.6139C55.6846 16.6156 57.4773 18.4093 57.4773 20.614V27.076H47.3221C47.3215 27.076 47.321 27.0761 47.3204 27.0761C47.2936 27.0761 47.2671 27.0777 47.2406 27.08C47.2112 27.0826 47.1821 27.0868 47.1536 27.0921C47.1493 27.0928 47.1451 27.0932 47.1408 27.0941C47.1167 27.0989 47.093 27.1053 47.0695 27.1119C47.0644 27.1134 47.0591 27.1144 47.054 27.116C47.0331 27.1224 47.0128 27.13 46.9925 27.1378C46.9847 27.1407 46.9768 27.1432 46.9691 27.1464C46.9521 27.1534 46.9357 27.1616 46.9194 27.1696C46.9085 27.1748 46.8976 27.1796 46.887 27.1851C46.8742 27.1919 46.8621 27.1997 46.8498 27.2071C46.8362 27.2152 46.8223 27.2231 46.809 27.2319C46.8 27.2378 46.7917 27.2446 46.7831 27.2509C46.7674 27.2622 46.7515 27.2734 46.7365 27.2858C46.7299 27.2912 46.7239 27.2973 46.7176 27.3028C46.7015 27.3168 46.6854 27.3307 46.6701 27.346C46.6612 27.355 46.653 27.3648 46.6445 27.3742C46.6326 27.3871 46.6203 27.3998 46.609 27.4136C46.5899 27.4368 46.572 27.461 46.5553 27.4859C46.5549 27.4863 46.5546 27.4868 46.5543 27.4873L41.6315 34.872C41.5972 34.9234 41.5681 34.978 41.5451 35.0347C41.5364 35.0559 41.5294 35.0774 41.5224 35.0988C41.5203 35.1053 41.5176 35.1116 41.5156 35.1181C41.5087 35.1409 41.5034 35.1639 41.4984 35.1868C41.497 35.1929 41.4953 35.1988 41.494 35.2048C41.49 35.2255 41.4873 35.2463 41.4847 35.2671C41.4836 35.2759 41.4819 35.2848 41.481 35.2938C41.4793 35.3109 41.4789 35.3279 41.4783 35.345C41.4777 35.358 41.4766 35.3711 41.4766 35.3842C41.4766 35.3969 41.4777 35.4096 41.4782 35.4223C41.4788 35.4397 41.4793 35.4573 41.481 35.4748C41.4819 35.4833 41.4835 35.4918 41.4846 35.5003C41.4873 35.5215 41.49 35.5426 41.4942 35.5637C41.4953 35.5695 41.497 35.5751 41.4984 35.5809C41.5034 35.6041 41.5088 35.6272 41.5157 35.6502C41.5177 35.6567 41.5204 35.663 41.5225 35.6697C41.5295 35.6911 41.5365 35.7126 41.5452 35.7338C41.5684 35.7904 41.5974 35.845 41.6319 35.8966L46.5546 43.2802C46.5548 43.2806 46.5551 43.2808 46.5553 43.2812C46.5751 43.3106 46.5968 43.3387 46.6197 43.3656C46.6272 43.3745 46.6352 43.3827 46.6429 43.3911C46.6586 43.4082 46.6748 43.4247 46.6917 43.4406C46.7016 43.4499 46.7115 43.459 46.7216 43.4678C46.7396 43.4831 46.7581 43.4975 46.7772 43.5116C46.7858 43.5179 46.7941 43.5247 46.8028 43.5307C46.8305 43.5495 46.8592 43.5668 46.8888 43.5826C46.8964 43.5865 46.9041 43.5899 46.9116 43.5935C46.9352 43.6054 46.9594 43.6163 46.9841 43.626C46.9937 43.6299 47.0033 43.6333 47.013 43.6367C47.0365 43.6451 47.0604 43.6525 47.0848 43.659C47.0948 43.6616 47.1046 43.6643 47.1147 43.6668C47.1397 43.6726 47.165 43.677 47.1908 43.6807C47.2001 43.682 47.2093 43.6839 47.2187 43.685C47.2504 43.6886 47.2827 43.6905 47.3154 43.6908C47.318 43.6908 47.3206 43.6913 47.3233 43.6913C47.3238 43.6913 47.3244 43.6911 47.325 43.6911H57.4777V50.1536C57.4777 52.3594 55.6833 54.1539 53.4777 54.1539H5.84723C3.6417 54.1539 1.84725 52.3594 1.84725 50.1536C1.84725 50.1488 1.84664 50.1442 1.84651 50.1394V46.4601C1.84651 45.9518 1.43298 45.537 0.923441 45.537C0.415136 45.537 0.000369229 45.9518 0.000369229 46.4601V50.1536C0.000369229 50.1632 0.00147691 50.1726 0.00184614 50.1821C0.0172307 53.3926 2.63322 56 5.84723 56H53.4777C56.701 56 59.3234 53.3779 59.3239 50.1546C59.3239 50.1545 59.3239 50.1544 59.3239 50.1541V43.6911H60.2464C61.7731 43.6911 63.0152 42.4491 63.0152 40.9224V26.1523C63.0148 24.6257 61.7727 23.3836 60.2461 23.3836ZM11.4338 2.07218L27.7216 6.72606C27.7223 6.72631 27.7232 6.72643 27.7239 6.72668L38.6403 9.84567H9.4909L11.4338 2.07218ZM57.4772 16.3562C56.4307 15.3723 55.0237 14.7676 53.4774 14.7676C53.4758 14.7676 53.4743 14.7679 53.4726 14.7679H5.84674C3.64109 14.7679 1.84664 12.9734 1.84664 10.7678C1.84664 8.56211 3.64109 6.76766 5.84674 6.76766H8.35725L7.58802 9.84567H5.84698C5.3372 9.84567 4.92391 10.259 4.92391 10.7687C4.92391 11.2785 5.3372 11.6918 5.84698 11.6918H8.30555C8.30678 11.6918 8.30814 11.6921 8.30949 11.6921C8.31048 11.6921 8.31146 11.6918 8.31232 11.6918H45.2279C45.2292 11.6918 45.2303 11.6921 45.2314 11.6921C45.2324 11.6921 45.2333 11.6918 45.2343 11.6918H52.2455C52.7553 11.6918 53.1686 11.2785 53.1686 10.7687C53.1686 10.259 52.7553 9.84567 52.2455 9.84567H45.3602L34.5875 6.76766H53.4772C55.6828 6.76766 57.4772 8.56211 57.4772 10.7678V16.3562ZM61.1686 40.9219C61.1686 41.4306 60.7547 41.8445 60.2461 41.8445H47.8161L43.5086 35.3837L47.8161 28.922H60.2461C60.259 28.922 60.2715 28.9205 60.2843 28.92C60.594 28.9157 60.8913 28.8606 61.1686 28.7624V40.9219ZM60.2461 27.0749C60.2397 27.0749 60.2334 27.0757 60.227 27.0759H59.3235V25.2297H60.2461C60.7547 25.2297 61.1686 25.6436 61.1686 26.1523C61.1686 26.661 60.7547 27.0749 60.2461 27.0749Z" fill="#474542"/>
    <path d="M51.0155 31.9993C49.1491 31.9993 47.6309 33.5177 47.6309 35.384C47.6309 37.2503 49.1491 38.7686 51.0155 38.7686C52.8818 38.7686 54.4 37.2503 54.4 35.384C54.4 33.5177 52.8818 31.9993 51.0155 31.9993ZM51.0155 36.9224C50.1671 36.9224 49.477 36.2323 49.477 35.384C49.477 34.5356 50.1671 33.8454 51.0155 33.8454C51.8638 33.8454 52.5539 34.5356 52.5539 35.384C52.5539 36.2323 51.8638 36.9224 51.0155 36.9224Z" fill="#474542"/>
</svg>
