<svg width="33" height="18" viewBox="0 0 33 18" fill="none" xmlns="http://www.w3.org/2000/svg" id="truck-green">
    <path fill-rule="evenodd" clip-rule="evenodd" d="M3.99092 9.90137H3.98755C3.81497 9.90137 3.67676 10.0495 3.67676 10.2323C3.67676 10.415 3.81834 10.5631 3.99092 10.5631C4.16351 10.5631 4.30342 10.415 4.30342 10.2323C4.30342 10.0495 4.16351 9.90137 3.99092 9.90137Z" fill="#F0F0F0"/>
    <path fill-rule="evenodd" clip-rule="evenodd" d="M6.6628 9.90137H6.65947C6.48688 9.90137 6.34863 10.0495 6.34863 10.2323C6.34863 10.415 6.49022 10.5631 6.6628 10.5631C6.83538 10.5631 6.9753 10.415 6.9753 10.2323C6.9753 10.0495 6.83538 9.90137 6.6628 9.90137Z" fill="#F0F0F0"/>
    <path fill-rule="evenodd" clip-rule="evenodd" d="M17.6853 9.90137H17.6819C17.5093 9.90137 17.3711 10.0495 17.3711 10.2323C17.3711 10.415 17.5127 10.5631 17.6853 10.5631C17.8578 10.5631 17.9978 10.415 17.9978 10.2323C17.9978 10.0495 17.8578 9.90137 17.6853 9.90137Z" fill="#F0F0F0"/>
    <path fill-rule="evenodd" clip-rule="evenodd" d="M30.9948 8.19994L31.6262 8.86847C31.9045 9.16315 32.0578 9.5549 32.0577 9.97157V14.3145C32.0577 14.8817 31.6219 15.3431 31.0862 15.3431H29.0454L29.0458 15.3584L29.046 15.3657L29.0462 15.3771C29.0462 16.8233 27.9349 18 26.569 18C25.3636 18 24.3571 17.0835 24.137 15.8743H12.4379C12.2178 17.0835 11.2113 18 10.0059 18C9.18054 18 8.44866 17.57 7.99822 16.9109C7.54785 17.57 6.81597 18 5.9906 18C4.78525 18 3.77874 17.0835 3.5586 15.8743H2.47721C1.9415 15.8743 1.50571 15.4129 1.50571 14.8456V13.7488H0.9715C0.435785 13.7488 0 13.2874 0 12.7202V1.02865C0 0.461486 0.435785 0 0.9715 0H24.0595C24.5952 0 25.031 0.461419 25.031 1.02865V3.18844H29.5805C29.8399 3.18844 30.0501 3.41106 30.0501 3.68565C30.0501 3.90768 29.9126 4.09563 29.7228 4.15947L30.9948 8.19994ZM2.47659 14.8789H3.55798C3.63468 14.4574 3.80705 14.0718 4.04999 13.7479H2.44428V14.8447C2.44428 14.8636 2.45875 14.8789 2.47659 14.8789ZM5.99176 17.0047C5.14367 17.0047 4.45374 16.2741 4.45374 15.3762C4.45374 14.4817 5.13854 13.7535 5.98218 13.7479H6.00146C6.84511 13.7534 7.5299 14.4816 7.5299 15.3762C7.52984 16.2741 6.83985 17.0047 5.99176 17.0047ZM8.4671 15.3762C8.4671 16.2741 9.1571 17.0047 10.0052 17.0047C10.8533 17.0047 11.5432 16.2741 11.5433 15.3762C11.5433 14.4816 10.8585 13.7534 10.0148 13.7479H9.99554C9.1519 13.7535 8.4671 14.4817 8.4671 15.3762ZM24.1378 14.8789H12.4387C12.362 14.4574 12.1897 14.0718 11.9467 13.7479H21.0488C21.3081 13.7479 21.5184 13.5252 21.5184 13.2506C21.5184 12.976 21.3081 12.7534 21.0488 12.7534H0.972275C0.954431 12.7534 0.939967 12.7381 0.939967 12.7192V1.02767C0.939967 1.00877 0.954431 0.99346 0.972275 0.99346H24.0602C24.0781 0.99346 24.0926 1.00877 24.0926 1.02767V12.7535H23.0566C22.7973 12.7535 22.587 12.9761 22.587 13.2507C22.587 13.5253 22.7973 13.7479 23.0566 13.7479H24.6298C24.3868 14.0718 24.2145 14.4574 24.1378 14.8789ZM27.0721 8.50169H30.1012L29.4105 6.30749H27.0398V8.46748C27.0398 8.48637 27.0542 8.50169 27.0721 8.50169ZM26.5693 17.0047C25.7212 17.0047 25.0312 16.2741 25.0312 15.3762C25.0312 14.4817 25.7161 13.7535 26.5597 13.7479H26.5694L26.5726 13.7477C27.4192 13.7495 28.1075 14.4793 28.1075 15.3761C28.1073 16.2741 27.4174 17.0047 26.5693 17.0047ZM31.0865 14.3478C31.1043 14.3478 31.1188 14.3325 31.1188 14.3136V12.1536H30.5846C30.3252 12.1536 30.115 11.931 30.115 11.6564C30.115 11.3818 30.3252 11.1592 30.5846 11.1592H31.1188V9.97062C31.1188 9.81953 31.0632 9.67752 30.9623 9.57065L30.892 9.49614H27.0712C26.5355 9.49614 26.0997 9.03472 26.0997 8.46749V5.81029C26.0997 5.53569 26.3099 5.31307 26.5693 5.31307H29.0965L28.7404 4.1818H25.0636C25.0457 4.1818 25.0312 4.19711 25.0312 4.21601V4.21627V12.7535H26.5596L26.5693 12.7533C27.5907 12.7533 28.4695 13.4112 28.848 14.3478H31.0865Z" fill="#F0F0F0"/>
    <path fill-rule="evenodd" clip-rule="evenodd" d="M15.0086 7.07238H1.64844C1.47585 7.07238 1.33594 7.22052 1.33594 7.40326C1.33594 7.586 1.47585 7.73414 1.64844 7.73414H15.0086C15.1812 7.73414 15.3211 7.586 15.3211 7.40326C15.3211 7.22052 15.1812 7.07238 15.0086 7.07238Z" fill="#F0F0F0"/>
</svg>
