<svg width="17" height="16" viewBox="0 0 17 16" fill="none" xmlns="http://www.w3.org/2000/svg">
<path opacity="0.2" d="M5.77635 5.2092L8.1467 0.46851C8.24322 0.275473 8.51869 0.275473 8.61521 0.46851L10.9856 5.2092C11.0244 5.28684 11.0991 5.3402 11.1852 5.35168L16.2366 6.02519C16.4516 6.05387 16.5406 6.31659 16.3871 6.47L12.6705 10.1866C12.6086 10.2485 12.5817 10.3373 12.5989 10.4232L13.6093 15.4749C13.652 15.6886 13.4303 15.858 13.2353 15.7605L8.49808 13.3919C8.42435 13.355 8.33756 13.355 8.26383 13.3919L3.52659 15.7605C3.33165 15.858 3.1099 15.6886 3.15264 15.4749L4.16299 10.4232C4.18016 10.3373 4.15328 10.2485 4.09136 10.1866L0.374757 6.47C0.22135 6.31659 0.310289 6.05387 0.525337 6.02519L5.57671 5.35168C5.66276 5.3402 5.73753 5.28684 5.77635 5.2092Z" fill="#333230"/>
</svg>
