<svg width="18" height="18" viewBox="0 0 18 18" fill="none" xmlns="http://www.w3.org/2000/svg" id="icon-search">
    <g opacity="0.5">
    <path fill-rule="evenodd" clip-rule="evenodd" d="M1.5 8.11111C1.5 4.4599 4.4599 1.5 8.11111 1.5C11.7623 1.5 14.7222 4.4599 14.7222 8.11111C14.7222 9.90443 14.0082 11.531 12.8489 12.722C12.8246 12.7388 12.8014 12.7581 12.7797 12.7798C12.7581 12.8015 12.7388 12.8246 12.7219 12.849C11.531 14.0082 9.90442 14.7222 8.11111 14.7222C4.4599 14.7222 1.5 11.7623 1.5 8.11111ZM13.1279 13.835C11.7884 15.01 10.0329 15.7222 8.11111 15.7222C3.90761 15.7222 0.5 12.3146 0.5 8.11111C0.5 3.90761 3.90761 0.5 8.11111 0.5C12.3146 0.5 15.7222 3.90761 15.7222 8.11111C15.7222 10.0329 15.0099 11.7884 13.835 13.1279L17.3535 16.6464C17.5488 16.8417 17.5488 17.1583 17.3535 17.3536C17.1583 17.5488 16.8417 17.5488 16.6464 17.3536L13.1279 13.835Z" fill="#F0F0F0"/>
    </g>
</svg>
