<svg width="26" height="23" viewBox="0 0 26 23" fill="none" xmlns="http://www.w3.org/2000/svg">
<path d="M23.2203 2.85655C22.632 2.26797 21.9335 1.80107 21.1647 1.48251C20.3959 1.16396 19.5719 1 18.7397 1C17.9075 1 17.0835 1.16396 16.3147 1.48251C15.5459 1.80107 14.8474 2.26797 14.2591 2.85655L13.0381 4.07749L11.8172 2.85655C10.6289 1.66822 9.01713 1.00062 7.33656 1.00062C5.656 1.00062 4.04427 1.66822 2.85594 2.85655C1.6676 4.04489 1 5.65662 1 7.33718C1 9.01774 1.6676 10.6295 2.85594 11.8178L4.07688 13.0387L13.0381 22L21.9994 13.0387L23.2203 11.8178C23.8089 11.2295 24.2758 10.531 24.5944 9.76219C24.9129 8.99339 25.0769 8.16936 25.0769 7.33718C25.0769 6.50499 24.9129 5.68096 24.5944 4.91216C24.2758 4.14336 23.8089 3.44486 23.2203 2.85655V2.85655Z" stroke="#D8D8D8" stroke-linecap="round" stroke-linejoin="round"/>
</svg>
