<svg width="40" height="36" viewBox="0 0 40 36" fill="none" xmlns="http://www.w3.org/2000/svg">
<path d="M25.8824 18.4749L18.1264 25.3595C18.1264 25.3595 10.5447 32.5054 3.48584 32.6797" stroke="#474542" stroke-miterlimit="10"/>
<path d="M0.958496 35.2941L36.0783 0.522873C36.0783 0.522873 40.4356 3.05011 39.3899 6.53594C39.3899 6.53594 37.6469 6.10021 36.9498 6.97167C36.2526 7.84313 34.8583 10.6318 32.4182 12.9847C29.9781 15.3377 24.3136 16.9063 24.3136 16.9063L27.6252 20.2179L19.4334 27.7124C19.4334 27.7124 8.80163 36.6013 0.958496 35.2941Z" stroke="#FF8E00" stroke-miterlimit="10"/>
<path d="M26.6664 13.9433C27.0514 13.9433 27.3636 13.6312 27.3636 13.2462C27.3636 12.8611 27.0514 12.549 26.6664 12.549C26.2814 12.549 25.9692 12.8611 25.9692 13.2462C25.9692 13.6312 26.2814 13.9433 26.6664 13.9433Z" stroke="#474542" stroke-miterlimit="10"/>
<path d="M35.0326 5.66448C35.4177 5.66448 35.7298 5.35234 35.7298 4.96731C35.7298 4.58227 35.4177 4.27014 35.0326 4.27014C34.6476 4.27014 34.3354 4.58227 34.3354 4.96731C34.3354 5.35234 34.6476 5.66448 35.0326 5.66448Z" stroke="#474542" stroke-miterlimit="10"/>
<path d="M24.3139 16.9935L21.7866 14.6405" stroke="#FF8E00" stroke-miterlimit="10"/>
</svg>
