<svg width="64" height="64" viewBox="0 0 64 64" fill="none" xmlns="http://www.w3.org/2000/svg" id="icon-delivery">
    <path d="M33.3577 31.329C33.2624 31.2282 33.1446 31.1515 33.0139 31.1051C32.8832 31.0588 32.7434 31.0441 32.6059 31.0623C32.4684 31.0805 32.3372 31.131 32.2231 31.2098C32.1089 31.2886 32.0151 31.3933 31.9493 31.5154L29.8368 35.4454C29.7652 35.5786 29.7293 35.7282 29.7326 35.8794C29.736 36.0307 29.7786 36.1785 29.8561 36.3084C29.9336 36.4383 30.0436 36.5459 30.1751 36.6206C30.3066 36.6954 30.4553 36.7348 30.6066 36.7349C30.7669 36.7353 30.9243 36.6927 31.0626 36.6117C31.2009 36.5306 31.315 36.414 31.3931 36.274L31.8746 35.4057V42.9273C31.8746 43.1593 31.9668 43.3819 32.1309 43.546C32.295 43.7101 32.5175 43.8023 32.7496 43.8023C32.9816 43.8023 33.2042 43.7101 33.3683 43.546C33.5324 43.3819 33.6246 43.1593 33.6246 42.9273V34.1311L34.3358 34.9005C34.414 34.984 34.5079 35.0512 34.6121 35.0982C34.7164 35.1452 34.8289 35.1711 34.9432 35.1744C35.0575 35.1777 35.1713 35.1584 35.2781 35.1174C35.3849 35.0765 35.4825 35.0149 35.5653 34.936C35.6487 34.8569 35.7157 34.7621 35.7624 34.657C35.8091 34.552 35.8347 34.4388 35.8376 34.3239C35.8406 34.2089 35.8209 34.0945 35.7796 33.9872C35.7383 33.88 35.6763 33.7818 35.5971 33.6985L33.3577 31.329Z" fill="#474542"/>
    <path d="M5.125 42.3064C4.89294 42.3064 4.67038 42.3986 4.50628 42.5627C4.34219 42.7268 4.25 42.9493 4.25 43.1814V46.4214C4.25 46.6535 4.34219 46.876 4.50628 47.0401C4.67038 47.2042 4.89294 47.2964 5.125 47.2964C5.35706 47.2964 5.57962 47.2042 5.74372 47.0401C5.90781 46.876 6 46.6535 6 46.4214V43.1814C6 42.9493 5.90781 42.7268 5.74372 42.5627C5.57962 42.3986 5.35706 42.3064 5.125 42.3064Z" fill="#474542"/>
    <path d="M8.625 44.7063C8.39294 44.7063 8.17038 44.7985 8.00628 44.9626C7.84219 45.1267 7.75 45.3492 7.75 45.5813V48.5C7.75 48.7321 7.84219 48.9547 8.00628 49.1188C8.17038 49.2829 8.39294 49.375 8.625 49.375C8.85706 49.375 9.07962 49.2829 9.24372 49.1188C9.40781 48.9547 9.5 48.7321 9.5 48.5V45.5813C9.5 45.3492 9.40781 45.1267 9.24372 44.9626C9.07962 44.7985 8.85706 44.7063 8.625 44.7063Z" fill="#474542"/>
    <path d="M12.25 47.1062C12.0179 47.1062 11.7954 47.1984 11.6313 47.3625C11.4672 47.5266 11.375 47.7491 11.375 47.9812V50.5512C11.375 50.7833 11.4672 51.0058 11.6313 51.1699C11.7954 51.334 12.0179 51.4262 12.25 51.4262C12.4821 51.4262 12.7046 51.334 12.8687 51.1699C13.0328 51.0058 13.125 50.7833 13.125 50.5512V47.9812C13.125 47.7491 13.0328 47.5266 12.8687 47.3625C12.7046 47.1984 12.4821 47.1062 12.25 47.1062Z" fill="#474542"/>
    <path d="M15.75 49.5061C15.5179 49.5061 15.2954 49.5983 15.1313 49.7624C14.9672 49.9265 14.875 50.149 14.875 50.3811V52.6024C14.875 52.8344 14.9672 53.057 15.1313 53.2211C15.2954 53.3852 15.5179 53.4774 15.75 53.4774C15.9821 53.4774 16.2046 53.3852 16.3687 53.2211C16.5328 53.057 16.625 52.8344 16.625 52.6024V50.3811C16.625 50.149 16.5328 49.9265 16.3687 49.7624C16.2046 49.5983 15.9821 49.5061 15.75 49.5061Z" fill="#474542"/>
    <path d="M18.5 54.7013C18.5 54.9333 18.5922 55.1559 18.7563 55.32C18.9204 55.4841 19.1429 55.5763 19.375 55.5763C19.6071 55.5763 19.8296 55.4841 19.9937 55.32C20.1578 55.1559 20.25 54.9333 20.25 54.7013V52.7813C20.25 52.5492 20.1578 52.3266 19.9937 52.1625C19.8296 51.9984 19.6071 51.9062 19.375 51.9062C19.1429 51.9062 18.9204 51.9984 18.7563 52.1625C18.5922 52.3266 18.5 52.5492 18.5 52.7813V54.7013Z" fill="#474542"/>
    <path d="M34.5195 44.1834L30.5332 46.4846C30.3323 46.6007 30.1856 46.7918 30.1255 47.016C30.0655 47.2401 30.0969 47.479 30.2129 47.68C30.329 47.8809 30.5201 48.0276 30.7442 48.0877C30.9684 48.1477 31.2073 48.1163 31.4082 48.0003L35.3945 45.699C35.5955 45.583 35.7421 45.3919 35.8022 45.1677C35.8623 44.9435 35.8308 44.7047 35.7148 44.5037C35.5988 44.3027 35.4076 44.1561 35.1835 44.096C34.9593 44.0359 34.7205 44.0674 34.5195 44.1834Z" fill="#474542"/>
    <path d="M58.0026 37.2353C56.0854 35.3481 53.5583 34.2062 50.875 34.0145V16.9436C50.8746 16.7892 50.8334 16.6376 50.7558 16.5041C50.6781 16.3706 50.5666 16.2599 50.4325 16.1833L26.4375 2.32963C26.3045 2.25283 26.1536 2.2124 26 2.2124C25.8464 2.2124 25.6955 2.25283 25.5625 2.32963L1.5785 16.1768C1.44116 16.2523 1.32661 16.3632 1.24684 16.4982C1.16706 16.6331 1.12498 16.7869 1.125 16.9436V47.0561C1.125 47.2097 1.16544 47.3606 1.24223 47.4936C1.31903 47.6266 1.42949 47.7371 1.5625 47.8139L25.5625 61.6701C25.6955 61.7469 25.8464 61.7874 26 61.7874C26.1536 61.7874 26.3045 61.7469 26.4375 61.6701L41.4375 53.011C41.5636 53.154 41.6931 53.2963 41.8275 53.436L49.3688 61.3073C49.4504 61.3925 49.5485 61.4604 49.6571 61.5067C49.7657 61.5531 49.8826 61.577 50.0006 61.577C50.1187 61.577 50.2355 61.5531 50.3441 61.5067C50.4527 61.4604 50.5508 61.3925 50.6325 61.3073L58.1739 53.4359C59.3153 52.2712 60.2057 50.8848 60.7901 49.3624C61.3434 47.8997 61.577 46.3354 61.475 44.7749C61.2792 41.9214 60.0437 39.2389 58.0026 37.2353ZM39.8908 12.1176L17.6426 24.9624L13.2762 22.4411L35.5239 9.59638L39.8908 12.1176ZM16.75 26.4529V42.4915L15.1006 40.6318C14.9763 40.4945 14.8127 40.3988 14.6322 40.3575C14.4516 40.3162 14.2627 40.3315 14.0911 40.4011L12.375 41.1019V23.9559L16.75 26.4529ZM26 4.09776L33.7739 8.58601L11.5256 21.4311L3.7525 16.9425L26 4.09776ZM25.125 59.3968L2.875 46.551V18.4566L10.625 22.9463V42.4099C10.6278 42.5546 10.6658 42.6964 10.7357 42.8231C10.8056 42.9498 10.9052 43.0576 11.026 43.1372C11.1469 43.2168 11.2853 43.2658 11.4293 43.28C11.5733 43.2942 11.7186 43.2731 11.8526 43.2186L14.1844 42.2573L16.9416 45.388C17.0239 45.4814 17.1251 45.5561 17.2385 45.6073C17.3519 45.6585 17.4749 45.6849 17.5994 45.6849C17.709 45.6849 17.8179 45.6658 17.921 45.6285C18.0888 45.5664 18.234 45.455 18.3373 45.3089C18.4407 45.1628 18.4974 44.9888 18.5 44.8099V27.4633L25.125 31.3025V59.3968ZM26 29.7874L19.3926 25.9726L41.6408 13.128L48.2475 16.9424L26 29.7874ZM26.875 59.3973V31.3025L49.125 18.4565V34.0145C46.4417 34.2062 43.9146 35.3481 41.9974 37.2353C39.9563 39.2389 38.7208 41.9214 38.525 44.7749C38.4233 46.3355 38.6571 47.8997 39.2106 49.3624C39.5083 50.1529 39.8951 50.9069 40.3635 51.6099L26.875 59.3973ZM59.15 48.7525C58.6483 50.0513 57.8857 51.2335 56.9094 52.2261L50 59.4374L43.0904 52.2255C42.8209 51.9452 42.5659 51.6514 42.3262 51.3451C41.7038 50.5619 41.2059 49.6875 40.85 48.7525C40.3835 47.5227 40.1859 46.2071 40.2704 44.8945C40.4372 42.4677 41.4885 40.1865 43.225 38.483C45.0382 36.7169 47.4693 35.7286 50.0005 35.7286C52.5317 35.7286 54.9628 36.7169 56.776 38.483C58.5123 40.1866 59.5633 42.4679 59.73 44.8946C59.8144 46.2071 59.6166 47.5225 59.15 48.7521V48.7525Z" fill="#474542"/>
    <path d="M50 39C46.6916 39 44 41.6913 44 45C44 48.3087 46.6916 51 50 51C53.3084 51 56 48.3087 56 45C56 41.6913 53.3084 39 50 39ZM50 49.6639C49.071 49.6705 48.1609 49.4027 47.3852 48.8942C46.6095 48.3858 46.0031 47.6597 45.6429 46.8081C45.2828 45.9564 45.1851 45.0176 45.3623 44.1107C45.5394 43.2037 45.9834 42.3696 46.638 41.7139C47.2926 41.0583 48.1282 40.6108 49.0389 40.4281C49.9496 40.2454 50.8944 40.3358 51.7533 40.6878C52.6123 41.0399 53.3468 41.6376 53.8637 42.4053C54.3805 43.1731 54.6564 44.0761 54.6564 45C54.6595 46.2321 54.1709 47.4151 53.298 48.2894C52.425 49.1638 51.239 49.6581 50 49.6639Z" fill="#474542"/>
</svg>
