<svg width="63" height="64" viewBox="0 0 63 64" fill="none" xmlns="http://www.w3.org/2000/svg" id="icon-receive">
    <path d="M54.8773 38.4428L54.7043 38.5362C53.3508 37.0084 51.1025 36.4382 49.3774 37.3123L49.3552 37.324L48.7271 37.6623C47.8031 36.9181 46.6758 36.4706 45.4929 36.3786C44.3101 36.2865 43.1271 36.5543 42.0991 37.1466L38.1181 39.3181H32.8088C31.6782 39.3144 30.5629 39.0566 29.5454 38.5639L28.8081 38.2042C26.6753 37.1661 24.2968 36.7385 21.936 36.9688C19.5752 37.1991 17.3241 38.0782 15.4321 39.5088C15.4102 39.5253 15.3891 39.542 15.3683 39.5603L13.5879 41.145C12.9884 41.6781 12.2876 42.085 11.5275 42.3414L10.5752 39.1934C10.5136 38.9847 10.3873 38.8009 10.2145 38.6685C10.0417 38.5362 9.83138 38.4622 9.61379 38.4571H1.00402C0.860298 38.4627 0.719264 38.4978 0.589766 38.5604C0.460269 38.623 0.345099 38.7117 0.251479 38.8209C0.157859 38.9301 0.0878069 39.0575 0.0457147 39.195C0.00362261 39.3325 -0.00960189 39.4773 0.00687057 39.6202L2.87679 63.135C2.90732 63.3768 3.02607 63.5987 3.21024 63.7583C3.39442 63.9178 3.63103 64.0037 3.87466 63.9995H16.7893C16.9446 64.0052 17.0989 63.9736 17.2394 63.9073C17.3799 63.8409 17.5024 63.7418 17.5966 63.6183C17.6908 63.4948 17.754 63.3505 17.7808 63.1974C17.8076 63.0444 17.7973 62.8872 17.7507 62.739L16.0985 57.3259L21.2466 54.0745C21.9078 53.7113 22.6821 53.6124 23.4134 53.7979C23.4342 53.8031 23.4551 53.8084 23.4762 53.8122L34.2254 55.7925C37.1893 56.3231 40.2452 55.8917 42.9465 54.5614C42.989 54.5404 43.0301 54.5164 43.0693 54.4897L61.6602 41.725C61.8713 41.5801 62.0191 41.36 62.0733 41.1099C62.1276 40.8597 62.0843 40.5982 61.9523 40.3788C61.2492 39.2071 60.1212 38.3519 58.8033 37.9912C57.4853 37.6305 56.079 37.7923 54.8773 38.4428ZM50.2956 39.0993C51.1105 38.6923 52.118 38.966 52.8418 39.541L46.051 43.2046L45.8408 43.3153C45.6446 42.8176 45.386 42.3469 45.0711 41.9144L50.2956 39.0993ZM43.0702 38.8984C43.0782 38.8939 43.0861 38.8896 43.094 38.8849C43.6402 38.5691 44.2554 38.3915 44.8859 38.3676C45.5164 38.3437 46.1432 38.4742 46.7118 38.7477L43.5693 40.441C43.0321 40.065 42.4395 39.7753 41.8129 39.5822L43.0702 38.8984ZM4.76405 61.9905L2.13908 40.4661H8.87048L15.4328 61.9905H4.76405ZM41.9918 52.7915C39.6934 53.9069 37.1007 54.2655 34.5858 53.8161L23.8697 51.8429C22.6421 51.5414 21.3458 51.7178 20.2434 52.3364C20.2276 52.3451 20.2121 52.3545 20.1969 52.3641L15.4902 55.3395L12.1138 44.2646C13.1513 43.9226 14.1077 43.3714 14.9237 42.6451L16.6724 41.088C18.2687 39.89 20.1645 39.1555 22.1512 38.9652C24.1379 38.7749 26.1387 39.1363 27.9334 40.0095L28.6706 40.3725C29.9611 40.9967 31.3754 41.323 32.8089 41.3271H39.959C40.9178 41.327 41.8493 41.6463 42.6063 42.2346C43.3634 42.8229 43.9029 43.6466 44.1397 44.5757L39.2215 44.35C37.3252 44.2641 35.425 44.3512 33.5445 44.6104C33.4105 44.6244 33.2807 44.6653 33.1628 44.7305C33.0449 44.7957 32.9413 44.8839 32.8582 44.99C32.7752 45.0961 32.7143 45.2178 32.6792 45.3478C32.6441 45.4779 32.6355 45.6137 32.654 45.7472C32.6725 45.8806 32.7176 46.009 32.7867 46.1247C32.8558 46.2403 32.9475 46.3409 33.0563 46.4204C33.1651 46.4999 33.2887 46.5567 33.4199 46.5874C33.5511 46.6181 33.6871 46.6222 33.8198 46.5993C35.579 46.3561 37.3567 46.2739 39.1308 46.3537L45.2294 46.6297C45.2446 46.6304 45.2596 46.6307 45.2749 46.6307C45.5413 46.6307 45.7967 46.5249 45.9851 46.3365C46.1735 46.1481 46.2793 45.8926 46.2793 45.6262C46.2793 45.5365 46.2763 45.4477 46.2726 45.3589L46.9958 44.9776L55.8309 40.2112C56.4343 39.8845 57.1247 39.754 57.8058 39.838C58.487 39.9221 59.1249 40.2164 59.6309 40.68L41.9918 52.7915Z" fill="#474542"/>
    <path d="M6.92773 58.9264C6.92773 59.4656 7.08764 59.9927 7.38722 60.4411C7.6868 60.8895 8.11261 61.2389 8.6108 61.4453C9.10899 61.6516 9.65718 61.7056 10.1861 61.6004C10.7149 61.4952 11.2007 61.2356 11.582 60.8543C11.9633 60.473 12.223 59.9872 12.3282 59.4583C12.4334 58.9294 12.3794 58.3812 12.173 57.883C11.9667 57.3848 11.6172 56.959 11.1689 56.6594C10.7205 56.3599 10.1934 56.2 9.65416 56.2C8.93132 56.2008 8.23833 56.4883 7.72721 56.9994C7.21609 57.5105 6.92857 58.2035 6.92773 58.9264ZM9.65416 58.2089C9.79606 58.2089 9.93478 58.251 10.0528 58.3298C10.1708 58.4087 10.2627 58.5207 10.317 58.6518C10.3713 58.7829 10.3855 58.9272 10.3579 59.0664C10.3302 59.2055 10.2618 59.3334 10.1615 59.4337C10.0612 59.5341 9.93331 59.6024 9.79413 59.6301C9.65496 59.6578 9.51069 59.6435 9.37959 59.5892C9.24849 59.5349 9.13643 59.443 9.0576 59.325C8.97876 59.207 8.93668 59.0683 8.93668 58.9264C8.93691 58.7362 9.01257 58.5538 9.14708 58.4193C9.28158 58.2848 9.46394 58.2091 9.65416 58.2089Z" fill="#474542"/>
    <path d="M30.5342 36.9032C30.6883 36.9914 30.8628 37.0379 31.0404 37.0379C31.218 37.0379 31.3925 36.9914 31.5466 36.9032L46.7372 28.1461C46.8927 28.0591 47.0229 27.9332 47.1149 27.7807C47.207 27.6282 47.2577 27.4543 47.2621 27.2762V9.7618C47.258 9.58382 47.2075 9.41 47.1157 9.25746C47.0239 9.10493 46.894 8.97894 46.7387 8.89192L31.5599 0.134645C31.4063 0.0464232 31.2322 0 31.055 0C30.8779 0 30.7038 0.0464232 30.5502 0.134645L15.3582 8.89192C15.2026 8.97881 15.0722 9.10469 14.98 9.2572C14.8877 9.40972 14.8367 9.58361 14.832 9.7618V27.2762C14.8362 27.4542 14.8867 27.628 14.9785 27.7805C15.0702 27.9331 15.2002 28.0591 15.3555 28.1461L30.5342 36.9032ZM45.2532 26.6963L32.0516 34.2936V19.0974L45.2532 11.5V26.6963ZM44.2057 9.76122L31.0471 17.3579L25.3233 14.0532L38.4819 6.45651L44.2057 9.76122ZM31.0471 2.1644L36.4724 5.29663L23.3138 12.8935L17.8885 9.76122L31.0471 2.1644ZM16.841 11.5002L30.0426 19.0977V34.2939L16.841 26.6966V11.5002Z" fill="#474542"/>
</svg>
