<svg width="22" height="22" viewBox="0 0 22 22" fill="none" xmlns="http://www.w3.org/2000/svg" id="instagram">
<path fill-rule="evenodd" clip-rule="evenodd" d="M15.2682 0.439941H6.7317C3.26241 0.439941 0.439941 3.26241 0.439941 6.7317V15.2682C0.439941 18.7375 3.26241 21.5599 6.7317 21.5599H15.2682C18.7375 21.5599 21.5599 18.7375 21.5599 15.2682V6.7317C21.5599 3.26241 18.7374 0.439941 15.2682 0.439941ZM19.4355 15.2684C19.4355 17.5698 17.5698 19.4355 15.2684 19.4355H6.73193C4.43053 19.4355 2.56484 17.5698 2.56484 15.2684V6.73193C2.56484 4.43049 4.43053 2.56484 6.73193 2.56484H15.2684C17.5698 2.56484 19.4355 4.43049 19.4355 6.73193V15.2684ZM5.5376 10.9999C5.5376 7.98802 7.98802 5.5376 11 5.5376C14.0119 5.5376 16.4624 7.98798 16.4624 10.9999C16.4624 14.0119 14.0119 16.4623 11 16.4623C7.98802 16.4623 5.5376 14.0119 5.5376 10.9999ZM11.0002 14.3379C9.15683 14.3379 7.6625 12.8436 7.6625 11.0002C7.6625 9.15683 9.15687 7.6625 11.0002 7.6625C12.8436 7.6625 14.3379 9.15683 14.3379 11.0002C14.3379 12.8436 12.8436 14.3379 11.0002 14.3379ZM17.7821 5.57853C17.7821 6.30141 17.196 6.88743 16.4732 6.88743C15.7503 6.88743 15.1643 6.30141 15.1643 5.57853C15.1643 4.85564 15.7503 4.26963 16.4732 4.26963C17.196 4.26963 17.7821 4.85564 17.7821 5.57853Z" fill="white"/>
</svg>
