<svg width="46" height="48" viewBox="0 0 46 48" fill="none" xmlns="http://www.w3.org/2000/svg" id="box">
    <path d="M45.1005 10.591L23.3066 0.0698296C23.1134 -0.0233579 22.8884 -0.0233579 22.6953 0.0698296L0.901313 10.591C0.658313 10.7083 0.503906 10.9544 0.503906 11.2242V36.7757C0.503906 37.0455 0.658313 37.2916 0.901313 37.4089L22.6952 47.93C22.7917 47.9766 22.8964 48 23.0009 48C23.1054 48 23.21 47.9766 23.3066 47.93L45.1005 37.4089C45.3435 37.2916 45.4979 37.0455 45.4979 36.7757V11.2243C45.4979 10.9543 45.3434 10.7084 45.1005 10.591ZM23.0009 1.48386L43.1775 11.2242L37.3287 14.0478C37.2917 14.0195 37.2526 13.9935 37.2097 13.9728L17.1701 4.2987L23.0009 1.48386ZM15.5822 5.0937L35.7294 14.8199L31.603 16.812L11.4641 7.08974L15.5822 5.0937ZM36.2008 16.1538V23.5175L32.3465 25.3782V18.0145L36.2008 16.1538ZM44.0917 36.3345L23.704 46.1765V22.1867L28.5671 19.839C28.9168 19.6701 29.0634 19.2499 28.8946 18.9001C28.7257 18.5505 28.3055 18.4037 27.9557 18.5726L23.0009 20.9646L21.0513 20.0234C20.7015 19.8544 20.2812 20.0012 20.1124 20.3509C19.9435 20.7005 20.0902 21.1209 20.4398 21.2898L22.2978 22.1867V46.1765L1.91016 36.3343V12.3444L17.4352 19.8393C17.5337 19.8869 17.6378 19.9094 17.7403 19.9094C18.0017 19.9094 18.2527 19.763 18.374 19.5118C18.5428 19.1621 18.3962 18.7417 18.0465 18.5729L2.82431 11.2242L9.80916 7.85221L30.9305 18.0487C30.9336 18.053 30.937 18.0569 30.9402 18.0611V26.4985C30.9402 26.7405 31.0646 26.9654 31.2696 27.0941C31.3834 27.1655 31.5132 27.2016 31.6434 27.2016C31.7477 27.2016 31.8522 27.1785 31.9491 27.1317L37.2097 24.5921C37.4527 24.4748 37.6071 24.2288 37.6071 23.9589V15.475L44.0917 12.3445V36.3345Z" fill="#474542"/>
</svg>
