<svg width="46" height="44" viewBox="0 0 46 44" fill="none" xmlns="http://www.w3.org/2000/svg" id="appraisal">
    <path d="M35.1188 26.3641C36.9173 27.161 38.0795 27.9469 38.0795 29.9138V32.2918C38.0795 32.6801 38.3943 32.9949 38.7826 32.9949C39.1709 32.9949 39.4857 32.6801 39.4857 32.2918V29.9138C39.4857 27.3911 37.9952 26.1006 35.6806 25.0751L28.0554 21.8075C28.0556 21.7883 28.0571 21.7689 28.0571 21.7498V18.7149C29.6275 17.3181 30.6194 15.2843 30.6194 13.0224L30.6217 7.14763C30.6217 5.5852 30.1518 4.08316 29.2629 2.80376C28.3946 1.55399 27.1897 0.601316 25.7784 0.0484776C25.5038 -0.0589589 25.1914 0.0161341 24.9957 0.236726L23.9355 1.43268C23.3157 2.11827 22.4306 2.51145 21.5074 2.51145H19.4211C17.1916 2.51145 15.3776 4.32512 15.3776 6.55448V10.3556V13.0223C15.3776 15.2853 16.3704 17.3201 17.9422 18.7168V21.7498C17.9422 21.7787 17.9444 21.8076 17.945 21.8365L10.4209 25.1071C8.04741 26.106 6.51367 27.4152 6.51367 29.9901V32.2919C6.51367 32.6802 6.82848 32.995 7.21679 32.995C7.6051 32.995 7.91991 32.6802 7.91991 32.2919V29.9901C7.91991 27.9825 9.11568 27.1822 10.974 26.4001L14.711 24.7757C15.328 26.2695 16.3317 27.5606 17.6473 28.5401C19.2035 29.6988 21.0539 30.3112 22.9986 30.3112C24.536 30.3112 26.0533 29.9154 27.3863 29.1666C27.574 29.0611 27.7606 28.9473 27.9408 28.8281C28.2647 28.6139 28.3536 28.1777 28.1394 27.8538C27.9252 27.5299 27.489 27.4409 27.1651 27.6551C27.0131 27.7556 26.8559 27.8516 26.6976 27.9405C25.5744 28.5714 24.2952 28.905 22.9985 28.905C19.8939 28.905 17.1558 27.0447 16 24.2154L18.1754 23.2698C18.8256 25.3382 20.7609 26.8067 22.9997 26.8067C25.2544 26.8067 27.1937 25.3259 27.8331 23.2423L30.0125 24.1762C29.7935 24.7182 29.5121 25.2335 29.1711 25.714C28.9464 26.0307 29.0209 26.4696 29.3375 26.6943C29.461 26.782 29.6031 26.8241 29.7439 26.8241C29.964 26.8241 30.1807 26.7209 30.3179 26.5278C30.7167 25.9659 31.0465 25.3634 31.3049 24.73L35.1188 26.3641ZM16.7839 13.0223V10.9943C17.1025 10.9316 17.4116 10.8241 17.6994 10.6744C18.1257 10.4527 18.509 10.1348 18.8075 9.75516C19.0477 9.45001 18.995 9.00789 18.6898 8.7678C18.3846 8.52752 17.9425 8.5803 17.7024 8.88555C17.5264 9.10933 17.3009 9.29645 17.0505 9.42667C16.9601 9.47364 16.8708 9.51104 16.7839 9.54104V6.55448C16.7839 5.10052 17.967 3.91769 19.4211 3.91769H21.5074C22.8274 3.91769 24.0927 3.35566 24.9833 2.37064L25.7095 1.55137C27.8546 2.5857 29.2155 4.73284 29.2155 7.14753V8.58405C28.3336 8.91048 27.4053 9.07773 26.4509 9.07773C24.3725 9.07773 22.404 8.28321 20.908 6.84051C20.6285 6.57098 20.1834 6.57904 19.9138 6.8585C19.6443 7.13806 19.6522 7.58309 19.9318 7.85271C21.6913 9.54957 24.0065 10.484 26.4509 10.484C27.3968 10.484 28.322 10.3456 29.2114 10.0718C29.2137 10.1139 29.2131 13.0223 29.2131 13.0223C29.2131 16.4486 26.4252 19.236 22.9985 19.236C19.5718 19.236 16.7839 16.4486 16.7839 13.0223ZM22.9996 25.4004C21.1574 25.4004 19.5996 24.0241 19.376 22.1981C19.3578 22.05 19.3485 21.8991 19.3485 21.7497V19.7094C20.4331 20.3037 21.6769 20.6422 22.9985 20.6422C24.321 20.6422 25.5657 20.3032 26.6509 19.708V21.7498C26.6509 21.8917 26.6424 22.0352 26.6255 22.1779C26.4121 24.0151 24.8534 25.4004 22.9996 25.4004Z" fill="#474542"/>
    <path d="M28.8204 35.4325L25.3898 34.934L23.8556 31.8259C23.6944 31.4993 23.368 31.2964 23.0037 31.2964C22.6394 31.2964 22.3131 31.4994 22.1519 31.8259L20.6177 34.9341L17.1871 35.4326C16.8266 35.485 16.5327 35.7328 16.4202 36.0793C16.3077 36.4257 16.3999 36.7988 16.6607 37.0529L19.1431 39.4723L18.557 42.8885C18.4955 43.2475 18.6403 43.6035 18.9349 43.8176C19.2296 44.0316 19.6128 44.0595 19.9353 43.89L23.0037 42.2769L26.0722 43.89C26.2124 43.9637 26.3641 44 26.515 44C26.7111 44 26.906 43.9385 27.0725 43.8176C27.3672 43.6035 27.512 43.2475 27.4504 42.8884L26.8644 39.4723L29.3467 37.0529C29.6076 36.7988 29.6998 36.4257 29.5873 36.0793C29.4749 35.7328 29.181 35.485 28.8204 35.4325ZM22.5947 32.4483L22.5952 32.4493C22.595 32.4489 22.5948 32.4486 22.5947 32.4483C22.5946 32.4483 22.5946 32.4483 22.5947 32.4483ZM25.7112 38.6327C25.4872 38.8511 25.3851 39.1654 25.438 39.4735L25.9084 42.215L23.4458 40.9206C23.1688 40.7751 22.8385 40.7752 22.5617 40.9206L20.0992 42.215L20.5695 39.4735C20.6224 39.1653 20.5203 38.851 20.2963 38.6326L18.3043 36.6912L21.0571 36.2912C21.3668 36.2462 21.6342 36.0519 21.7724 35.7716L23.0037 33.2771L24.2348 35.7713C24.3732 36.0519 24.6407 36.2462 24.9502 36.2911L27.7032 36.6912L25.7112 38.6327Z" fill="#474542"/>
    <path d="M13.0333 35.4325L9.60272 34.934L8.06852 31.8259C7.90727 31.4993 7.58093 31.2964 7.21662 31.2964C6.85231 31.2964 6.52597 31.4994 6.36482 31.8259L4.83062 34.9341L1.39996 35.4326C1.0395 35.485 0.745593 35.7328 0.633094 36.0793C0.520595 36.4257 0.61275 36.7988 0.87356 37.0529L3.35594 39.4723L2.76992 42.8885C2.70842 43.2475 2.85317 43.6035 3.14782 43.8176C3.44247 44.0316 3.82572 44.0595 4.14822 43.89L7.21662 42.2769L10.2851 43.89C10.4253 43.9637 10.577 44 10.7279 44C10.924 44 11.1189 43.9385 11.2854 43.8176C11.5801 43.6035 11.7249 43.2475 11.6633 42.8884L11.0773 39.4723L13.5596 37.0529C13.8205 36.7988 13.9127 36.4257 13.8002 36.0793C13.6877 35.7328 13.3938 35.485 13.0333 35.4325ZM6.8075 32.4483L6.80797 32.4493C6.80788 32.4489 6.80769 32.4486 6.8075 32.4483ZM9.9241 38.6327C9.70013 38.8511 9.59804 39.1654 9.65091 39.4735L10.1213 42.215L7.65865 40.9206C7.38181 40.7752 7.05144 40.7752 6.7746 40.9206L4.31209 42.215L4.78243 39.4735C4.8353 39.1653 4.73321 38.851 4.50915 38.6326L2.51717 36.6912L5.27002 36.2912C5.57967 36.2462 5.84714 36.0519 5.98532 35.7716L7.21662 33.2771L8.44774 35.7713C8.58611 36.0519 8.85358 36.2462 9.16313 36.2911L11.9161 36.6912L9.9241 38.6327Z" fill="#474542"/>
    <path d="M45.3667 36.0792C45.2542 35.7327 44.9603 35.4849 44.5997 35.4325L41.1691 34.934L39.6349 31.8259C39.4737 31.4993 39.1473 31.2964 38.783 31.2964C38.4187 31.2964 38.0924 31.4994 37.9312 31.8259L36.397 34.9341L32.9664 35.4326C32.6059 35.485 32.312 35.7328 32.1995 36.0793C32.087 36.4257 32.1792 36.7988 32.44 37.0529L34.9224 39.4723L34.3363 42.8885C34.2748 43.2475 34.4196 43.6035 34.7142 43.8176C35.0089 44.0316 35.3921 44.0595 35.7146 43.89L38.783 42.2769L41.8515 43.89C41.9917 43.9637 42.1434 44 42.2943 44C42.4904 44 42.6853 43.9385 42.8518 43.8176C43.1465 43.6035 43.2913 43.2475 43.2297 42.8884L42.6437 39.4723L45.126 37.0529C45.3869 36.7987 45.4792 36.4257 45.3667 36.0792ZM38.3739 32.4483L38.3744 32.4493C38.3742 32.4489 38.374 32.4486 38.3739 32.4483C38.3738 32.4483 38.3738 32.4483 38.3739 32.4483ZM41.4904 38.6327C41.2665 38.8511 41.1644 39.1654 41.2172 39.4735L41.6876 42.215L39.225 40.9206C38.9481 40.7752 38.6178 40.7752 38.3409 40.9206L35.8784 42.215L36.3487 39.4735C36.4016 39.1653 36.2995 38.851 36.0755 38.6326L34.0835 36.6912L36.8363 36.2912C37.146 36.2462 37.4135 36.0519 37.5516 35.7716L38.7829 33.2771L40.0141 35.7713C40.1524 36.0519 40.4199 36.2462 40.7295 36.2911L43.4824 36.6912L41.4904 38.6327Z" fill="#474542"/>
</svg>
