<svg width="28" height="27" viewBox="0 0 28 27" xmlns="http://www.w3.org/2000/svg" id="basket">
    <path fill-rule="evenodd" clip-rule="evenodd" d="M1.1665 0.666656C0.890362 0.666656 0.666504 0.890514 0.666504 1.16666C0.666504 1.4428 0.890362 1.66666 1.1665 1.66666H5.42333L6.50447 7.06831C6.50727 7.08883 6.51132 7.10895 6.51653 7.1286L8.4695 16.8861C8.59911 17.5382 8.95389 18.1239 9.47177 18.5408C9.98846 18.9568 10.6347 19.1782 11.2977 19.1667H22.6286C23.2917 19.1782 23.9379 18.9568 24.4546 18.5408C24.9726 18.1238 25.3274 17.538 25.4569 16.8857L25.4577 16.882L27.3243 7.09365C27.3522 6.94728 27.3134 6.79608 27.2184 6.68127C27.1234 6.56645 26.9822 6.49999 26.8332 6.49999H7.41055L6.32345 1.06853C6.27668 0.834849 6.07148 0.666656 5.83317 0.666656H1.1665ZM9.45011 16.6902L7.6107 7.49999H26.2288L24.4761 16.6909L24.4757 16.6926C24.3916 17.114 24.1622 17.4924 23.8275 17.7619C23.4923 18.0317 23.0729 18.1749 22.6428 18.1667L11.2932 18.1666L11.2836 18.1667C10.8534 18.175 10.434 18.0317 10.0988 17.7619C9.76367 17.492 9.53394 17.1122 9.45011 16.6902ZM10.5002 23.8333C10.132 23.8333 9.8335 24.1318 9.8335 24.5C9.8335 24.8682 10.132 25.1667 10.5002 25.1667C10.8684 25.1667 11.1668 24.8682 11.1668 24.5C11.1668 24.1318 10.8684 23.8333 10.5002 23.8333ZM8.8335 24.5C8.8335 23.5795 9.57969 22.8333 10.5002 22.8333C11.4206 22.8333 12.1668 23.5795 12.1668 24.5C12.1668 25.4205 11.4206 26.1667 10.5002 26.1667C9.57969 26.1667 8.8335 25.4205 8.8335 24.5ZM23.3332 23.8333C22.965 23.8333 22.6665 24.1318 22.6665 24.5C22.6665 24.8682 22.965 25.1667 23.3332 25.1667C23.7014 25.1667 23.9998 24.8682 23.9998 24.5C23.9998 24.1318 23.7014 23.8333 23.3332 23.8333ZM21.6665 24.5C21.6665 23.5795 22.4127 22.8333 23.3332 22.8333C24.2536 22.8333 24.9998 23.5795 24.9998 24.5C24.9998 25.4205 24.2536 26.1667 23.3332 26.1667C22.4127 26.1667 21.6665 25.4205 21.6665 24.5Z" />
</svg>
