<svg width="82" height="40" viewBox="0 0 82 40" fill="none" xmlns="http://www.w3.org/2000/svg">
<path d="M0.5 8C0.5 3.85786 3.85786 0.5 8 0.5H74C78.1421 0.5 81.5 3.85787 81.5 8V39.5H8C3.85787 39.5 0.5 36.1421 0.5 32V8Z" fill="white" stroke="#FF8E00"/>
<path d="M14 13.5C14 14.9834 14.4399 16.4334 15.264 17.6668C16.0881 18.9001 17.2594 19.8614 18.6299 20.4291C20.0003 20.9968 21.5083 21.1453 22.9632 20.8559C24.418 20.5665 25.7544 19.8522 26.8033 18.8033C27.8522 17.7544 28.5665 16.418 28.8559 14.9632C29.1453 13.5083 28.9968 12.0003 28.4291 10.6299C27.8614 9.25943 26.9001 8.08809 25.6668 7.26398C24.4334 6.43987 22.9834 6 21.5 6L21.5 13.5L14 13.5Z" fill="#5F982F"/>
<path d="M20.5 5C19.5151 5 18.5398 5.19399 17.6299 5.5709C16.7199 5.94781 15.8931 6.50026 15.1967 7.1967C14.5003 7.89314 13.9478 8.71993 13.5709 9.62988C13.194 10.5398 13 11.5151 13 12.5L20.5 12.5L20.5 5Z" fill="#F2C94C"/>
<path d="M34.092 18.716V17H39.54V18.716H40.38V16.244H39.3V11.204H34.992L34.98 12.02C34.968 13.976 34.644 15.392 33.996 16.244H33.264V18.716H34.092ZM34.956 16.244C35.52 15.344 35.796 14.036 35.796 12.308V11.96H38.436V16.244H34.956ZM42.2573 11.96C41.6693 12.548 41.3813 13.268 41.3813 14.108C41.3813 14.948 41.6693 15.668 42.2573 16.256C42.8453 16.844 43.5893 17.144 44.5133 17.144C45.4373 17.144 46.1813 16.844 46.7693 16.256C47.3573 15.668 47.6453 14.948 47.6453 14.108C47.6453 13.268 47.3573 12.548 46.7693 11.96C46.1813 11.36 45.4373 11.06 44.5133 11.06C43.5893 11.06 42.8453 11.36 42.2573 11.96ZM46.7573 14.108C46.7573 14.744 46.5413 15.284 46.1213 15.716C45.7013 16.148 45.1613 16.364 44.5133 16.364C43.8652 16.364 43.3253 16.148 42.9053 15.716C42.4853 15.284 42.2693 14.744 42.2693 14.108C42.2693 13.46 42.4853 12.92 42.9053 12.488C43.3253 12.056 43.8652 11.84 44.5133 11.84C45.1613 11.84 45.7013 12.056 46.1213 12.488C46.5413 12.92 46.7573 13.46 46.7573 14.108ZM52.5604 17V7.2H50.8104L48.5144 8.432V10.406L50.5864 9.356V17H52.5604ZM61.1515 17V15.236H57.0635L58.7435 13.696C59.5135 12.982 60.0595 12.366 60.3535 11.834C60.6615 11.302 60.8155 10.686 60.8155 10C60.8155 9.104 60.4655 8.376 59.7795 7.83C59.0935 7.284 58.2815 7.004 57.3435 7.004C56.2375 7.004 55.2855 7.312 54.4875 7.942V10.014C55.3275 9.272 56.2095 8.894 57.1335 8.894C58.1415 8.894 58.8135 9.426 58.8135 10.266C58.8135 10.686 58.6875 11.078 58.4215 11.456C58.1695 11.834 57.7215 12.31 57.0635 12.912L54.1795 15.53V17H61.1515Z" fill="#3A3A3A"/>
<path d="M15.884 32V26.96H19.364V32H20.228V26.204H15.02V32H15.884ZM21.4942 32C21.5542 32.012 21.6382 32.012 21.7462 32.012C22.6582 32.06 23.2222 31.436 23.4862 30.74C23.6902 30.272 23.7862 29.54 23.8342 29.012C23.8582 28.748 23.8702 28.436 23.8822 28.076L23.9182 26.96H26.5582V32H27.4222V26.204H23.0902L23.0422 28.052C23.0062 29 22.9462 29.624 22.7542 30.26C22.5742 30.884 22.2382 31.22 21.7222 31.22C21.6262 31.22 21.5542 31.22 21.4942 31.208V32ZM31.4135 31.364C30.5135 31.364 29.8295 30.956 29.8295 30.176C29.8295 29.456 30.4895 29.012 31.5455 29.012C32.2055 29.012 32.8415 29.204 33.4295 29.588V30.392C33.0095 30.92 32.2415 31.364 31.4135 31.364ZM31.1735 32.144C32.1455 32.144 32.9255 31.808 33.5135 31.124C33.6095 31.748 34.0415 32.048 34.6055 32.048C34.8695 32.048 35.0615 32 35.1815 31.916V31.244C35.0855 31.292 34.9775 31.316 34.8455 31.316C34.5095 31.316 34.2935 31.04 34.2935 30.596V28.208C34.2935 26.804 33.2495 26.06 31.7015 26.06C30.8735 26.06 30.1895 26.24 29.6255 26.588V27.428C30.2135 27.032 30.8375 26.84 31.5215 26.84C32.7935 26.84 33.4295 27.32 33.4295 28.292V28.868C32.7935 28.496 32.0975 28.304 31.3415 28.304C30.6575 28.304 30.0935 28.472 29.6375 28.82C29.1935 29.168 28.9655 29.636 28.9655 30.224C28.9655 30.824 29.1815 31.292 29.6015 31.64C30.0335 31.976 30.5615 32.144 31.1735 32.144ZM38.6979 32V26.96H40.7979V26.204H35.7339V26.96H37.8339V32H38.6979ZM44.7451 32.144C45.6211 32.144 46.2931 31.964 46.7731 31.592V30.824C46.2091 31.184 45.5851 31.364 44.9131 31.364C43.5211 31.364 42.5371 30.56 42.4411 29.312H47.2051V29.072C47.2051 27.764 46.4371 26.06 44.4931 26.06C43.6291 26.06 42.9211 26.348 42.3691 26.936C41.8291 27.512 41.5531 28.232 41.5531 29.108C41.5531 29.996 41.8531 30.728 42.4651 31.292C43.0771 31.856 43.8451 32.144 44.7451 32.144ZM42.4531 28.604C42.4891 28.124 42.6931 27.716 43.0411 27.368C43.4011 27.02 43.8691 26.84 44.4571 26.84C45.0691 26.84 45.5251 27.02 45.8251 27.392C46.1371 27.752 46.3051 28.16 46.3291 28.604H42.4531ZM48.0342 26.204L50.7582 28.892L47.7582 32H48.8862L51.5742 29.192V32H52.4382V29.192L55.1262 32H56.2662L53.2662 28.892L55.9782 26.204H54.8862L52.4382 28.676V26.204H51.5742V28.676L49.1262 26.204H48.0342ZM59.9326 32.144C60.8086 32.144 61.4806 31.964 61.9606 31.592V30.824C61.3966 31.184 60.7726 31.364 60.1006 31.364C58.7086 31.364 57.7246 30.56 57.6286 29.312H62.3926V29.072C62.3926 27.764 61.6246 26.06 59.6806 26.06C58.8166 26.06 58.1086 26.348 57.5566 26.936C57.0166 27.512 56.7406 28.232 56.7406 29.108C56.7406 29.996 57.0406 30.728 57.6526 31.292C58.2646 31.856 59.0326 32.144 59.9326 32.144ZM57.6406 28.604C57.6766 28.124 57.8806 27.716 58.2286 27.368C58.5886 27.02 59.0566 26.84 59.6446 26.84C60.2566 26.84 60.7126 27.02 61.0126 27.392C61.3246 27.752 61.4926 28.16 61.5166 28.604H57.6406ZM64.8201 32L68.5281 27.488V32H69.3921V26.204H68.5881L64.8801 30.728V26.204H64.0161V32H64.8201ZM66.7161 25.22C67.8201 25.22 68.6361 24.5 68.6481 23.396H67.8921C67.8801 24.056 67.4121 24.524 66.7041 24.524C65.9841 24.524 65.5161 24.056 65.5161 23.396H64.7481C64.7601 24.5 65.5521 25.22 66.7161 25.22Z" fill="#3A3A3A"/>
</svg>
