<svg width="48" height="40" viewBox="0 0 48 40" fill="none" xmlns="http://www.w3.org/2000/svg" id="ax">
    <path d="M47.581 11.716L38.1248 7.51328L31.4344 0.822874C31.0861 0.474723 30.5193 0.474629 30.171 0.822968L25.1171 5.87681C24.9483 6.04553 24.8553 6.26992 24.8553 6.5086C24.8553 6.74729 24.9483 6.97168 25.117 7.14039L25.5493 7.57262L19.132 13.99C19.0546 14.0674 18.9962 14.1618 18.9616 14.2657C17.9592 17.273 16.1865 19.9842 13.834 22.1085L2.31668 30.8147C2.29073 30.8343 2.26618 30.8557 2.24324 30.8787L0.647306 32.4746C0.229938 32.892 0 33.447 0 34.0373C0 34.6276 0.229844 35.1827 0.647306 35.6001L3.83926 38.792C4.27017 39.2228 4.83604 39.4383 5.40199 39.4383C5.96795 39.4383 6.53391 39.2228 6.96473 38.792L8.56075 37.1961C8.61436 37.1425 8.65893 37.0805 8.69288 37.0128C10.0531 34.2923 11.8804 31.9052 14.124 29.9179C19.5535 25.1089 21.6539 23.0382 31.3347 13.3581L31.8073 13.8307L36.0101 23.2869C36.0453 23.366 36.0946 23.438 36.1559 23.4991L36.268 23.6112C36.4024 23.7458 36.5828 23.8178 36.7669 23.8178C36.844 23.8178 36.9218 23.8051 36.9972 23.7792C38.9434 23.1067 41.2878 21.4928 43.4291 19.3514C45.6965 17.084 47.3947 14.5441 47.9719 12.5572C48.0703 12.2186 47.9033 11.8593 47.581 11.716ZM30.8028 2.18614L36.7212 8.10463L32.3988 12.4271L26.4804 6.5086L30.8028 2.18614ZM13.1888 28.8619C10.8378 30.9442 8.91868 33.4389 7.48291 36.279L5.96729 37.7946C5.65572 38.1062 5.14845 38.1062 4.83679 37.7946L1.64483 34.6026C1.49389 34.4517 1.41066 34.2509 1.41066 34.0373C1.41066 33.8238 1.4938 33.6231 1.64483 33.4721L3.20634 31.9106L14.7091 23.2153C14.7251 23.2031 14.7406 23.1904 14.7555 23.1769C17.2585 20.9243 19.1545 18.0552 20.2461 14.8709L20.9012 14.2158C20.9016 14.2162 20.902 14.2167 20.9024 14.2171L23.1594 16.4742C23.2971 16.6119 23.4777 16.6808 23.6581 16.6808C23.8386 16.6808 24.0192 16.612 24.1569 16.4742C24.4323 16.1987 24.4323 15.7522 24.1569 15.4768L21.8998 13.2197C21.8994 13.2193 21.8989 13.2189 21.8986 13.2186L22.7821 12.335C22.7825 12.3354 22.7829 12.3359 22.7832 12.3363L25.0403 14.5934C25.178 14.7311 25.3585 14.8 25.539 14.8C25.7195 14.8 25.9001 14.7312 26.0377 14.5934C26.3132 14.3179 26.3132 13.8714 26.0377 13.596L23.7807 11.3389C23.7803 11.3385 23.7798 11.3382 23.7795 11.3378L24.663 10.4542C24.6634 10.4546 24.6637 10.4551 24.6641 10.4555L26.9212 12.7126C27.0589 12.8503 27.2394 12.9192 27.4199 12.9192C27.6004 12.9192 27.7809 12.8504 27.9186 12.7126C28.1941 12.4372 28.1941 11.9906 27.9186 11.7152L25.6616 9.45811C25.6612 9.45774 25.6607 9.45736 25.6603 9.45698L26.5469 8.57052L30.3373 12.361C20.6818 22.0152 18.5875 24.08 13.1888 28.8619ZM42.4316 18.354C40.6685 20.1172 38.714 21.5293 37.085 22.2321L36.5008 20.9177C38.0588 20.0729 39.7609 18.7638 41.3011 17.2235C41.706 16.8187 42.0982 16.3999 42.4669 15.9788C42.7235 15.6856 42.6939 15.24 42.4008 14.9835C42.1075 14.7268 41.662 14.7565 41.4055 15.0496C41.0573 15.4474 40.6865 15.8432 40.3037 16.2262C38.8892 17.6406 37.3412 18.8408 35.9258 19.624L33.24 13.5809L37.8749 8.94604L43.837 11.5959C43.6473 11.958 43.4291 12.3328 43.1827 12.7142C42.9713 13.0415 43.0653 13.478 43.3925 13.6894C43.5108 13.7659 43.6434 13.8024 43.7745 13.8024C44.0059 13.8024 44.2327 13.6886 44.3676 13.4796C44.6551 13.0345 44.9096 12.595 45.1284 12.17L46.4191 12.7436C45.7658 14.4208 44.3155 16.4701 42.4316 18.354Z" fill="#474542"/>
    <path d="M34.0277 8.60335C34.1653 8.74103 34.3459 8.80996 34.5264 8.80996C34.7068 8.80996 34.8874 8.74112 35.0251 8.60344C35.3005 8.32799 35.3005 7.88137 35.0251 7.60591L34.4931 7.0739C34.2177 6.79845 33.7711 6.79845 33.4957 7.0739C33.2202 7.34936 33.2202 7.79597 33.4957 8.07143L34.0277 8.60335Z" fill="#474542"/>
    <path d="M32.8976 6.4754C33.1731 6.19995 33.1731 5.75333 32.8976 5.47797L31.3017 3.88195C31.0263 3.60649 30.5797 3.60649 30.3042 3.88195C30.0288 4.1574 30.0288 4.60402 30.3042 4.87938L31.9002 6.4754C32.0378 6.61318 32.2184 6.68202 32.3989 6.68202C32.5794 6.68192 32.7599 6.61308 32.8976 6.4754Z" fill="#474542"/>
</svg>
