<svg width="48" height="48" viewBox="0 0 48 48" fill="none" xmlns="http://www.w3.org/2000/svg" id="certificate">
<g clip-path="url(#clip0)">
<path d="M30.5671 0.250808C30.3887 0.0894121 30.1568 0 29.9162 0H10.5593C8.41754 0.00227319 6.68234 1.73785 6.67969 3.87957V37.2704C6.68234 39.4118 8.41754 41.1474 10.5593 41.15H17.3997V47.03C17.3997 47.4085 17.6198 47.7525 17.9638 47.9112C18.3074 48.0696 18.7121 48.0131 19 47.7673L24.0252 43.4671L29.0501 47.7669C29.3381 48.0131 29.7427 48.0692 30.0863 47.9108C30.4303 47.7525 30.6505 47.4085 30.6505 47.03V41.15H37.4909C39.6326 41.1474 41.3682 39.4118 41.3704 37.2704V10.4536C41.3704 10.1797 41.2545 9.9183 41.051 9.73455L30.5671 0.250808ZM30.8717 3.1423L37.844 9.44888H31.8416C31.3063 9.44813 30.8725 9.01433 30.8717 8.47899V3.1423ZM24.0252 33.7504C20.8542 33.7504 18.2832 31.1798 18.2832 28.0087C18.2832 24.8376 20.8542 22.267 24.0252 22.267C27.1963 22.267 29.7669 24.8376 29.7669 28.0087C29.7635 31.1783 27.1948 33.747 24.0252 33.7504ZM24.6557 41.4535C24.2927 41.1432 23.7578 41.1432 23.3948 41.4535L19.3395 44.9239V34.0895C22.0987 36.224 25.9518 36.224 28.711 34.0895V44.9235L24.6557 41.4535ZM37.4909 39.2102H30.6508V31.8883C32.5436 28.6615 31.8367 24.5402 28.9763 22.1283C26.1158 19.7169 21.9343 19.7169 19.0739 22.1283C16.2134 24.5402 15.5065 28.6615 17.3997 31.8883V39.2102H10.5593C9.48859 39.2091 8.62061 38.3411 8.61947 37.2704V3.87957C8.62061 2.8089 9.48859 1.94092 10.5593 1.93979H28.9319V8.47899C28.9338 10.085 30.2356 11.3868 31.8416 11.3887H39.4306V37.2704C39.4295 38.3411 38.5619 39.2091 37.4909 39.2102Z" fill="#474542"/>
</g>
<defs>
<clipPath id="clip0">
<rect width="48" height="48" fill="white"/>
</clipPath>
</defs>
</svg>
