<svg width="25" height="21" viewBox="0 0 25 21" fill="none" xmlns="http://www.w3.org/2000/svg" id="chosen">
    <path d="M22.2203 1.85655C21.632 1.26797 20.9335 0.801067 20.1647 0.482513C19.3959 0.16396 18.5719 0 17.7397 0C16.9075 0 16.0835 0.16396 15.3147 0.482513C14.5459 0.801067 13.8474 1.26797 13.2591 1.85655L12.0381 3.07749L10.8172 1.85655C9.62886 0.668216 8.01713 0.000615956 6.33656 0.000615968C4.656 0.000615981 3.04427 0.668216 1.85594 1.85655C0.667601 3.04489 1.25212e-08 4.65662 0 6.33718C-1.25212e-08 8.01774 0.667601 9.62947 1.85594 10.8178L3.07688 12.0387L12.0381 21L20.9994 12.0387L22.2203 10.8178C22.8089 10.2295 23.2758 9.53099 23.5944 8.76219C23.9129 7.99339 24.0769 7.16936 24.0769 6.33718C24.0769 5.50499 23.9129 4.68096 23.5944 3.91216C23.2758 3.14336 22.8089 2.44486 22.2203 1.85655Z" fill="#D8D8D8"/>
</svg>
