<svg width="37" height="40" viewBox="0 0 37 40" fill="none" xmlns="http://www.w3.org/2000/svg">
<path d="M27.8346 7.98054L24.7202 2.62774L31.1436 0L33.09 2.91971L27.8346 7.98054ZM26.0827 3.11436L28.0292 6.42336L31.8248 2.82238L30.7543 1.26521L26.0827 3.11436Z" fill="#FF8E00"/>
<path d="M12.6521 24.2336H6.42343L6.32611 24.0389C4.47696 21.9951 3.60105 19.9513 3.89302 18.0049C4.28232 15.2798 6.81273 13.82 6.91005 13.82L21.8979 4.18491L24.9149 9.34307L24.5256 9.73236C24.4283 9.82968 15.0852 15.7664 12.4575 17.3236C11.1923 18.1022 10.6084 18.8808 10.3164 19.4647C10.1217 19.854 10.2191 20.2433 10.4137 20.6326L12.6521 24.2336ZM6.81273 23.2603H10.9003L9.53779 21.0219C9.1485 20.438 9.1485 19.6594 9.44047 18.9781C9.73244 18.2968 10.4137 17.3236 11.9709 16.4477C14.3066 15.0852 21.8006 10.3163 23.6497 9.14842L21.6059 5.64477L7.39667 14.6959C7.39667 14.6959 5.15823 15.9611 4.86626 18.1995C4.57429 19.854 5.25555 21.5085 6.81273 23.2603Z" fill="#FF8E00"/>
<path d="M24.7201 10.9976L20.5352 3.89295L25.012 1.16788L29.0996 8.17518L24.7201 10.9976ZM21.8004 4.18492L25.012 9.63504L27.7371 7.88321L24.6227 2.53041L21.8004 4.18492Z" fill="#474542"/>
<path d="M26.7638 30.073H7.20174C5.35259 30.073 3.79541 28.5158 3.79541 26.6667C3.79541 24.8175 5.35259 23.2603 7.20174 23.2603H26.7638C28.6129 23.2603 30.1701 24.8175 30.1701 26.6667C30.1701 28.5158 28.6129 30.073 26.7638 30.073ZM7.20174 24.2336C5.83921 24.2336 4.76865 25.3041 4.76865 26.6667C4.76865 28.0292 5.83921 29.0998 7.20174 29.0998H26.7638C28.1263 29.0998 29.1969 28.0292 29.1969 26.6667C29.1969 25.3041 28.1263 24.2336 26.7638 24.2336H7.20174Z" fill="#FF8E00"/>
<path d="M30.8516 35.1338H3.01703C1.36253 35.1338 0 33.7713 0 32.1168C0 30.4623 1.36253 29.0998 3.01703 29.0998H30.8516C32.5061 29.0998 33.8686 30.4623 33.8686 32.1168C33.8686 33.7713 32.6034 35.1338 30.8516 35.1338ZM3.01703 30.073C1.94647 30.073 0.973236 30.9489 0.973236 32.1168C0.973236 33.2847 1.94647 34.1606 3.01703 34.1606H30.8516C32.0195 34.1606 32.8954 33.1873 32.8954 32.1168C32.8954 31.0462 31.9221 30.073 30.8516 30.073H3.01703Z" fill="#FF8E00"/>
<path d="M31.0462 40H2.91971C1.36253 40 0 38.7348 0 37.0803C0 35.5231 1.26521 34.1606 2.91971 34.1606H31.0462C32.6034 34.1606 33.9659 35.4258 33.9659 37.0803C33.9659 38.7348 32.6034 40 31.0462 40ZM2.91971 35.1338C1.84915 35.1338 0.973236 36.0097 0.973236 37.0803C0.973236 38.1509 1.84915 39.0268 2.91971 39.0268H31.0462C32.1168 39.0268 32.9927 38.1509 32.9927 37.0803C32.9927 36.0097 32.1168 35.1338 31.0462 35.1338H2.91971Z" fill="#FF8E00"/>
<path d="M33.9268 20C32.3171 20 31 18.6789 31 17.0642C31 15.5229 33.4146 12.6606 33.7073 12.2936L34 12L34.2927 12.2936C34.5854 12.5872 37 15.5229 37 17.0642C36.8537 18.6055 35.5366 20 33.9268 20ZM33.9268 13.1009C33.122 14.1284 31.7317 16.1101 31.7317 16.9908C31.7317 18.2385 32.7561 19.1927 33.9268 19.1927C35.0976 19.1927 36.122 18.1651 36.122 16.9908C36.122 16.0367 34.7317 14.055 33.9268 13.1009Z" fill="#474542"/>
</svg>
