<svg width="29" height="16" viewBox="0 0 29 16" fill="none" xmlns="http://www.w3.org/2000/svg" id="truck">
    <path fill-rule="evenodd" clip-rule="evenodd" d="M5.31977 13.2018H5.31527C5.08516 13.2018 4.90088 13.3994 4.90088 13.643C4.90088 13.8867 5.08966 14.0842 5.31977 14.0842C5.54988 14.0842 5.73643 13.8867 5.73643 13.643C5.73643 13.3994 5.54988 13.2018 5.31977 13.2018Z" fill="#FF8E00"/>
    <path fill-rule="evenodd" clip-rule="evenodd" d="M8.88227 13.2018H8.87782C8.64771 13.2018 8.46338 13.3994 8.46338 13.643C8.46338 13.8867 8.65216 14.0842 8.88227 14.0842C9.11238 14.0842 9.29893 13.8867 9.29893 13.643C9.29893 13.3994 9.11238 13.2018 8.88227 13.2018Z" fill="#FF8E00"/>
    <path fill-rule="evenodd" clip-rule="evenodd" d="M23.5786 13.2018H23.5741C23.344 13.2018 23.1597 13.3994 23.1597 13.643C23.1597 13.8867 23.3484 14.0842 23.5786 14.0842C23.8087 14.0842 23.9952 13.8867 23.9952 13.643C23.9952 13.3994 23.8087 13.2018 23.5786 13.2018Z" fill="#FF8E00"/>
    <path fill-rule="evenodd" clip-rule="evenodd" d="M27.5013 7.27571L28.0615 7.86888C28.3084 8.13035 28.4444 8.47794 28.4444 8.84765V12.7011C28.4444 13.2044 28.0577 13.6138 27.5824 13.6138H25.7716L25.772 13.6273L25.7722 13.6353L25.7723 13.6439C25.7723 14.9271 24.7863 15.9712 23.5743 15.9712C22.5048 15.9712 21.6118 15.158 21.4164 14.0851H11.036C10.8407 15.158 9.94761 15.9712 8.87811 15.9712C8.14578 15.9712 7.49639 15.5896 7.09672 15.0048C6.69711 15.5896 6.04772 15.9712 5.31539 15.9712C4.24589 15.9712 3.35283 15.158 3.1575 14.0851H2.198C1.72267 14.0851 1.336 13.6756 1.336 13.1724V12.1992H0.862C0.386667 12.1992 0 11.7898 0 11.2865V0.912706C0 0.409471 0.386667 0 0.862 0H21.3477C21.8231 0 22.2097 0.409412 22.2097 0.912706V2.82906H26.2464C26.4766 2.82906 26.6631 3.02659 26.6631 3.27024C26.6631 3.46724 26.5411 3.634 26.3727 3.69065L27.5013 7.27571ZM2.198 13.2019H3.1575C3.22556 12.8279 3.3785 12.4857 3.59406 12.1983H2.16933V13.1715C2.16933 13.1883 2.18216 13.2019 2.198 13.2019ZM5.31554 15.088C4.56305 15.088 3.95088 14.4398 3.95088 13.6431C3.95088 12.8494 4.55849 12.2033 5.30704 12.1983H5.32415C6.07271 12.2032 6.68032 12.8493 6.68032 13.6431C6.68026 14.4398 6.06804 15.088 5.31554 15.088ZM7.51347 13.6431C7.51347 14.4398 8.12569 15.088 8.87819 15.088C9.63069 15.088 10.2429 14.4398 10.2429 13.6431C10.2429 12.8493 9.6353 12.2032 8.88675 12.1983H8.86964C8.12108 12.2033 7.51347 12.8494 7.51347 13.6431ZM21.4165 13.2019H11.036C10.968 12.8279 10.8151 12.4857 10.5994 12.1983H18.6756C18.9057 12.1983 19.0923 12.0008 19.0923 11.7571C19.0923 11.5135 18.9057 11.3159 18.6756 11.3159H0.861995C0.846162 11.3159 0.833328 11.3023 0.833328 11.2856V0.911821C0.833328 0.895056 0.846162 0.881468 0.861995 0.881468H21.3477C21.3635 0.881468 21.3763 0.895056 21.3763 0.911821V11.316H20.4572C20.227 11.316 20.0405 11.5135 20.0405 11.7572C20.0405 12.0008 20.227 12.1983 20.4572 12.1983H21.8531C21.6374 12.4858 21.4845 12.8279 21.4165 13.2019ZM24.0196 7.54345H26.7073L26.0944 5.59656H23.9909V7.51309C23.9909 7.52986 24.0037 7.54345 24.0196 7.54345ZM23.5743 15.088C22.8218 15.088 22.2096 14.4398 22.2096 13.6431C22.2096 12.8494 22.8173 12.2033 23.5658 12.1983H23.5744L23.5773 12.1981C24.3284 12.1998 24.9391 12.8473 24.9391 13.643C24.939 14.4398 24.3268 15.088 23.5743 15.088ZM27.5824 12.7306C27.5982 12.7306 27.611 12.717 27.611 12.7003V10.7838H27.137C26.9069 10.7838 26.7204 10.5862 26.7204 10.3426C26.7204 10.0989 26.9069 9.9014 27.137 9.9014H27.611V8.84681C27.611 8.71275 27.5617 8.58675 27.4722 8.49193L27.4098 8.42581H24.0196C23.5443 8.42581 23.1576 8.0164 23.1576 7.51311V5.1554C23.1576 4.91176 23.3442 4.71423 23.5743 4.71423H25.8167L25.5007 3.71046H22.2383C22.2225 3.71046 22.2096 3.72405 22.2096 3.74081V3.74105V11.316H23.5658L23.5743 11.3158C24.4806 11.3158 25.2603 11.8996 25.5962 12.7306H27.5824Z" fill="#FF8E00"/>
    <path fill-rule="evenodd" clip-rule="evenodd" d="M20.0115 9.42984H2.19792C1.96781 9.42984 1.78125 9.62737 1.78125 9.87102C1.78125 10.1147 1.96781 10.3122 2.19792 10.3122H20.0115C20.2416 10.3122 20.4282 10.1147 20.4282 9.87102C20.4282 9.62737 20.2416 9.42984 20.0115 9.42984Z" fill="#FF8E00"/>
</svg>
