<svg width="40" height="37" viewBox="0 0 40 37" fill="none" xmlns="http://www.w3.org/2000/svg">
<path d="M21.818 36.3636C11.7959 36.3636 3.63623 28.204 3.63623 18.1818C3.63623 17.0288 3.72492 15.8758 3.991 14.7228L4.87792 14.9002C4.70053 15.9645 4.52315 17.1175 4.52315 18.1818C4.52315 27.7605 12.2393 35.4767 21.818 35.4767C31.3968 35.4767 39.1129 27.7605 39.1129 18.1818C39.1129 8.6031 31.3081 0.886918 21.818 0.886918C17.1174 0.886918 12.7715 2.74945 9.48989 6.03104L8.86905 5.4102C12.328 1.95122 16.94 0 21.818 0C31.8402 0 39.9999 8.15964 39.9999 18.1818C39.9999 28.204 31.8402 36.3636 21.818 36.3636Z" fill="#FF8E00"/>
<path d="M17.3838 16.9401C15.4326 16.9401 13.9248 15.3437 13.9248 13.4812C13.9248 11.6186 15.5213 10.0222 17.3838 10.0222C19.2463 10.0222 20.8428 11.6186 20.8428 13.4812C20.8428 15.3437 19.335 16.9401 17.3838 16.9401ZM17.3838 10.9091C15.9647 10.9091 14.8117 12.0621 14.8117 13.4812C14.8117 14.9002 15.9647 16.0532 17.3838 16.0532C18.8029 16.0532 19.9558 14.9002 19.9558 13.4812C19.9558 12.0621 18.8029 10.9091 17.3838 10.9091Z" fill="#474542"/>
<path d="M27.0508 25.5432C25.0996 25.5432 23.5918 23.9468 23.5918 22.0843C23.5918 20.2217 25.1883 18.6253 27.0508 18.6253C28.9133 18.6253 30.5098 20.2217 30.5098 22.0843C30.5098 23.9468 29.002 25.5432 27.0508 25.5432ZM27.0508 19.5122C25.6317 19.5122 24.4787 20.6652 24.4787 22.0843C24.4787 23.5033 25.6317 24.6563 27.0508 24.6563C28.4698 24.6563 29.6228 23.5033 29.6228 22.0843C29.7115 20.6652 28.5585 19.5122 27.0508 19.5122Z" fill="#474542"/>
<path d="M28.2891 11.1038L15.2197 24.3743L15.8517 24.9967L28.921 11.7261L28.2891 11.1038Z" fill="#474542"/>
<path d="M0.620843 19.5122L0 18.8914L4.43459 14.102L8.15965 18.8914L7.45011 19.4235L4.3459 15.4324L0.620843 19.5122Z" fill="#FF8E00"/>
</svg>
