<svg width="40" height="37" viewBox="0 0 40 37" fill="none" xmlns="http://www.w3.org/2000/svg">
<path d="M4.75973 36.6133C3.56979 36.6133 2.4714 36.1635 1.6476 35.3538L1.28146 34.994C0.457666 34.1844 0 33.1049 0 31.9354C0 30.7659 0.457666 29.6864 1.28146 28.8768L11.4416 18.8914C12.2654 18.0817 13.3638 17.6319 14.5538 17.6319C15.7437 17.6319 16.8421 18.0817 17.6659 18.8914L18.032 19.2512C19.7712 20.9604 19.7712 23.6592 18.032 25.3684L7.87185 35.3538C6.95652 36.1635 5.85812 36.6133 4.75973 36.6133ZM2.28833 34.7241C3.56979 35.9836 5.85812 35.9836 7.23112 34.7241L17.3913 24.6487C18.7643 23.2994 18.7643 21.1403 17.3913 19.791L17.0252 19.4311C15.7437 18.1717 13.4554 18.1717 12.0824 19.4311L1.9222 29.5065C1.28146 30.1362 0.915332 31.0358 0.915332 31.9354C0.915332 32.835 1.28146 33.7346 1.9222 34.3643L2.28833 34.7241Z" fill="#FF8E00"/>
<path d="M18.4574 15.1004L17.814 15.7403L21.46 19.2813L22.1034 18.6414L18.4574 15.1004Z" fill="#474542"/>
<path d="M19.405 21.95L14.9199 17.542L25.4462 7.10675L29.9314 11.5147L19.405 21.95ZM16.2014 17.452L19.405 20.6006L28.6499 11.5147L25.4462 8.36617L16.2014 17.452Z" fill="#FF8E00"/>
<path d="M34.7825 17.2718C34.5079 17.2718 34.2333 17.1819 33.9587 17.002L31.945 15.2028C31.6704 15.0229 31.5788 14.663 31.5788 14.3932C31.5788 14.0333 31.6704 13.7634 31.945 13.5835L32.2196 13.3136C32.2196 13.3136 32.2196 13.2237 32.2196 13.1337L30.4804 11.4245H30.3889L29.199 12.3241L25.08 8.00607V7.82615C25.08 7.64624 24.7138 3.05833 18.1234 2.78846L16.5674 2.6985L17.9404 1.79891C18.215 1.61899 25.08 -2.24924 29.9312 1.88887L33.8672 5.7571C34.2333 6.11694 34.2333 6.74665 33.9587 7.10648L33.4095 7.7362C33.318 7.82616 33.318 8.00607 33.4095 8.09603L35.3317 10.0751C35.4232 10.1651 35.5148 10.1651 35.6063 10.1651L36.6131 9.62533C36.9793 9.44541 37.4369 9.53537 37.8031 9.80525L39.5422 11.5145C39.7253 11.6944 39.8168 11.9643 39.8168 12.2341C39.8168 12.504 39.7253 12.7739 39.5422 12.9538L35.5148 16.912C35.4232 17.1819 35.0571 17.2718 34.7825 17.2718ZM30.4804 10.435C30.755 10.435 31.0296 10.5249 31.2127 10.7048L32.9518 12.4141C33.318 12.7739 33.318 13.4036 32.9518 13.8534L32.6772 14.1233C32.5857 14.2132 32.5857 14.3032 32.5857 14.3032C32.5857 14.3032 32.5857 14.3932 32.6772 14.4831L34.691 16.2823C34.7825 16.3722 34.9656 16.3722 35.0571 16.2823L39.0845 12.3241C39.0845 12.3241 39.0845 12.2341 39.0845 12.1442L37.3454 10.435H37.2539L36.247 10.9747C35.7894 11.1546 35.2402 11.1546 34.874 10.7948L32.8603 8.8157C32.4026 8.36591 32.4026 7.7362 32.7688 7.2864L33.318 6.65669C33.318 6.56673 33.318 6.56673 33.318 6.47677L29.382 2.60854C26.1784 -0.0902278 21.9678 1.07924 19.771 1.97883C24.9884 2.87842 25.8122 6.65669 25.9953 7.55628L29.2905 11.0647L29.8397 10.7048C30.0228 10.5249 30.2058 10.435 30.4804 10.435Z" fill="#FF8E00"/>
<path d="M13.4898 20.7171L6.07031 28.3068L6.73036 28.93L14.1498 21.3403L13.4898 20.7171Z" fill="#474542"/>
<path d="M4.91182 29.3119L2.62891 31.6472L3.28895 32.2704L5.57186 29.9351L4.91182 29.3119Z" fill="#474542"/>
</svg>
