<svg width="40" height="40" viewBox="0 0 40 40" fill="none" xmlns="http://www.w3.org/2000/svg">
<path d="M22.613 8.45605H17.0073V9.40617H22.613V8.45605Z" fill="#474542"/>
<path d="M23.088 12.2565H16.5322V2.56532C16.5322 1.14014 17.6724 0 19.0975 0H20.5227C21.9479 0 23.088 1.14014 23.088 2.56532V12.2565ZM17.4823 11.3064H22.1379V2.56532C22.1379 1.71021 21.3778 0.950119 20.5227 0.950119H19.0975C18.2424 0.950119 17.4823 1.71021 17.4823 2.56532V11.3064Z" fill="#FF8E00"/>
<path d="M20.2375 26.3183H19.3824C18.4323 26.3183 17.5771 25.5582 17.5771 24.5131V11.3064H22.0427V24.5131C22.0427 25.4632 21.2826 26.3183 20.2375 26.3183ZM18.5273 12.2565V24.5131C18.5273 24.9881 18.9073 25.3682 19.3824 25.3682H20.2375C20.7125 25.3682 21.0926 24.9881 21.0926 24.5131V12.2565H18.5273Z" fill="#FF8E00"/>
<path d="M19.8577 39.0499L17.1973 37.4347C13.9669 35.4394 11.7817 31.924 11.4966 28.1235L10.8315 20.4276H28.7888L27.9337 28.5036C27.5536 32.114 25.5584 35.3444 22.518 37.3397L19.8577 39.0499ZM11.8767 21.3777L12.4467 28.0285C12.7318 31.5439 14.727 34.7743 17.6724 36.5796L19.8577 37.9097L22.0429 36.4846C24.8933 34.6793 26.6985 31.639 27.0786 28.3135L27.8387 21.2827H11.8767V21.3777Z" fill="#FF8E00"/>
<path d="M38.8599 38.0048H0.475098V38.9549H38.8599V38.0048Z" fill="#FF8E00"/>
<path d="M2.94537 7.98101C1.33017 7.98101 0 6.65084 0 5.03564C0 3.42044 1.33017 2.09027 2.94537 2.09027C4.56057 2.09027 5.89074 3.42044 5.89074 5.03564C5.89074 6.65084 4.56057 7.98101 2.94537 7.98101ZM2.94537 3.04039C1.80523 3.04039 0.950119 3.99051 0.950119 5.03564C0.950119 6.08077 1.80523 7.03089 2.94537 7.03089C4.08551 7.03089 4.94062 6.17578 4.94062 5.03564C4.94062 3.8955 3.9905 3.04039 2.94537 3.04039Z" fill="#474542"/>
<path d="M37.0547 32.5891C35.4395 32.5891 34.1094 31.2589 34.1094 29.6437C34.1094 28.0285 35.4395 26.6983 37.0547 26.6983C38.6699 26.6983 40.0001 28.0285 40.0001 29.6437C40.0001 31.2589 38.6699 32.5891 37.0547 32.5891ZM37.0547 27.6485C35.9146 27.6485 35.0595 28.5036 35.0595 29.6437C35.0595 30.7838 35.9146 31.639 37.0547 31.639C38.1949 31.639 39.05 30.7838 39.05 29.6437C39.05 28.5986 38.1949 27.6485 37.0547 27.6485Z" fill="#474542"/>
</svg>
