<svg width="28" height="40" viewBox="0 0 28 40" fill="none" xmlns="http://www.w3.org/2000/svg">
<path d="M17.4637 8.39024H17.3661C13.2685 7.02439 13.5612 2.63415 13.5612 2.53658L14.5368 2.63415C14.5368 2.82927 14.3417 6.2439 17.5612 7.41463C18.1466 7.21951 20.488 6.2439 20.5856 2.63415H21.5612C21.4637 7.51219 17.6588 8.39024 17.6588 8.39024H17.4637Z" fill="#474542"/>
<path d="M16.9755 24.4878C14.634 24.4878 12.8779 23.8049 11.7072 22.439C10.1462 20.6829 10.0487 18.439 10.0487 17.4634C9.85355 17.3659 9.56087 17.2683 9.26819 17.0732C8.68282 16.5854 8.39014 15.8049 8.39014 14.7317C8.39014 13.9512 8.58526 13.4634 9.07306 13.2683C9.65843 12.9756 10.4389 13.3659 11.1218 13.7561V11.9024H23.6096V13.6585C24.195 13.2683 25.0731 12.878 25.6584 13.1707C26.1462 13.3659 26.3414 13.8537 26.3414 14.6341C26.2438 15.7073 25.9511 16.4878 25.4633 16.9756C25.1706 17.2683 24.8779 17.3659 24.6828 17.4634C24.5853 18.439 24.2926 20.7805 22.634 22.439C21.1706 23.8049 19.317 24.4878 16.9755 24.4878ZM11.1218 16.4878L11.0243 17.0732C11.0243 17.0732 10.7316 19.9024 12.4877 21.8537C13.4633 23.0244 15.0243 23.5122 17.0731 23.5122C19.1218 23.5122 20.6828 22.9268 21.756 21.7561C23.6096 19.9024 23.5121 17.0732 23.5121 16.9756V16.4878H23.9999C24.0975 16.4878 25.0731 16.4878 25.1706 14.5366C25.1706 14.1463 25.0731 13.9512 25.0731 13.9512C24.8779 13.8537 23.9999 14.3415 23.317 14.9268L22.5365 15.6098V12.6829H11.9999V15.6098L11.2194 14.9268C10.5365 14.3415 9.65843 13.8537 9.46331 13.9512C9.46331 13.9512 9.36575 14.0488 9.36575 14.5366C9.36575 15.3171 9.56087 15.9024 9.95111 16.1951C10.2438 16.4878 10.5365 16.4878 10.5365 16.4878H11.1218Z" fill="#FF8E00"/>
<path d="M25.6583 10.439H9.26807V9.36585C9.26807 5.95122 11.512 2.73171 14.6339 1.65854V0H20.2925V1.65854C23.512 2.82927 25.6583 5.85366 25.6583 9.36585V10.439ZM10.2437 9.46341H24.6827V9.36585C24.6827 6.2439 22.6339 3.41463 19.7071 2.53659L19.4144 2.43902V0.97561H15.6095V2.43902L15.2193 2.53659C12.39 3.31707 10.2437 6.2439 10.2437 9.46341Z" fill="#FF8E00"/>
<path d="M9.6584 13.9512C9.36572 13.4634 9.36572 12.5854 9.36572 12.2927L10.3413 12.3902C10.3413 12.7805 10.3413 13.3659 10.4389 13.4634L9.6584 13.9512Z" fill="#FF8E00"/>
<path d="M25.073 13.8537L24.2925 13.2683C24.39 13.1707 24.39 12.6829 24.39 12.2927L25.3657 12.1951C25.3657 12.5854 25.4632 13.4634 25.073 13.8537Z" fill="#FF8E00"/>
<path d="M18.927 26.7317H15.805C14.6343 26.7317 13.6587 25.7561 13.6587 24.5854V23.6098H14.6343V24.5854C14.6343 25.2683 15.2197 25.7561 15.805 25.7561H18.927C19.6099 25.7561 20.0977 25.1707 20.0977 24.5854V23.3171H21.0733V24.5854C21.1709 25.7561 20.1953 26.7317 18.927 26.7317Z" fill="#FF8E00"/>
<path d="M26.9268 12.878H8V9.46341H26.8293V12.878H26.9268ZM8.97561 11.9024H25.8537V10.439H8.97561V11.9024Z" fill="#FF8E00"/>
<path d="M27.7075 37.2683H12.1953V36.2927H26.7319V32.5854C26.7319 28.7805 25.0734 28.0976 24.9758 28.0976L20.1953 25.6585L20.5856 24.7805L25.366 27.1219C25.366 27.1219 27.7075 28 27.7075 32.4878V37.2683Z" fill="#FF8E00"/>
<path d="M7.21951 40H7.12195C0.585366 38.5366 0 32.0976 0 32.0976V26.3415L0.390244 26.2439C2.63415 25.7561 6.82927 22.2439 6.82927 22.2439L7.12195 21.9512L7.41463 22.2439C9.36585 24.1951 14.2439 26.3415 14.2439 26.3415L14.5366 26.439V26.7317C14.5366 26.7317 14.6341 27.8049 14.5366 32.5854C14.439 37.6585 7.5122 39.9024 7.21951 40ZM0.97561 27.122V32C0.97561 32.1951 1.56098 37.6585 7.12195 39.0244C8 38.7317 13.561 36.5854 13.6585 32.5854C13.7561 29.1707 13.6585 27.7073 13.6585 27.122C12.6829 26.6341 9.07317 24.9756 7.12195 23.2195C6.14634 24.0976 3.12195 26.439 0.97561 27.122Z" fill="#FF8E00"/>
<path d="M4.21662 29.0441C4.5583 29.0441 4.82813 29.125 5.02611 29.2868C5.22729 29.4485 5.32787 29.6706 5.32787 29.9529C5.32787 30.2353 5.22729 30.4574 5.02611 30.6191C4.82813 30.7779 4.5583 30.8574 4.21662 30.8574H3.51252V31.9559H3V29.0441H4.21662ZM4.1352 30.4559C4.35872 30.4559 4.52477 30.4147 4.63334 30.3324C4.74191 30.2471 4.7962 30.1206 4.7962 29.9529C4.7962 29.6147 4.57586 29.4456 4.1352 29.4456H3.51252V30.4559H4.1352Z" fill="#474542"/>
<path d="M7.1909 30.7912H6.51074V31.9559H6.00302V29.0441H7.29149C7.63317 29.0441 7.903 29.1221 8.10098 29.2779C8.29896 29.4309 8.39795 29.6441 8.39795 29.9176C8.39795 30.1265 8.33887 30.3015 8.22072 30.4426C8.10577 30.5809 7.94132 30.6794 7.72737 30.7382L8.58475 31.9559H7.9956L7.1909 30.7912ZM6.51074 30.3985H7.24838C7.45594 30.3985 7.61082 30.3603 7.713 30.2838C7.81518 30.2044 7.86627 30.0838 7.86627 29.9221C7.86627 29.7603 7.81518 29.6412 7.713 29.5647C7.61082 29.4853 7.45594 29.4456 7.24838 29.4456H6.51074V30.3985Z" fill="#474542"/>
<path d="M10.5056 29C10.8089 29 11.0724 29.0603 11.2959 29.1809C11.5226 29.3015 11.6966 29.475 11.818 29.7015C11.9393 29.9279 12 30.1941 12 30.5C12 30.8059 11.9393 31.0721 11.818 31.2985C11.6966 31.525 11.5226 31.6985 11.2959 31.8191C11.0724 31.9397 10.8089 32 10.5056 32C10.2022 32 9.93876 31.9397 9.71524 31.8191C9.49171 31.6985 9.31927 31.525 9.19793 31.2985C9.07659 31.0721 9.01592 30.8059 9.01592 30.5C9.01592 30.1941 9.07659 29.9279 9.19793 29.7015C9.31927 29.475 9.49171 29.3015 9.71524 29.1809C9.93876 29.0603 10.2022 29 10.5056 29ZM10.5056 29.4103C10.2086 29.4103 9.97548 29.5059 9.80624 29.6971C9.637 29.8882 9.55238 30.1559 9.55238 30.5C9.55238 30.8441 9.637 31.1118 9.80624 31.3029C9.97548 31.4941 10.2086 31.5897 10.5056 31.5897C10.8057 31.5897 11.0404 31.4941 11.2097 31.3029C11.3789 31.1118 11.4635 30.8441 11.4635 30.5C11.4635 30.1559 11.3789 29.8882 11.2097 29.6971C11.0404 29.5059 10.8057 29.4103 10.5056 29.4103Z" fill="#474542"/>
<path d="M24.9755 36.7805H23.9998V31.0244H14.3413V30.0488H24.9755V36.7805Z" fill="#FF8E00"/>
<path d="M24.3904 31.0244H21.6587V25.561L24.3904 26.8293V31.0244ZM22.6343 30.0488H23.4148V27.4146L22.6343 27.0244V30.0488Z" fill="#FF8E00"/>
<path d="M12.8782 26.6341L12.6831 25.6585C12.8782 25.6585 13.5612 25.1707 13.9514 24.7805L14.6343 25.4634C14.3416 25.7561 13.4636 26.5366 12.8782 26.6341Z" fill="#FF8E00"/>
<path d="M18.7316 2.63415H16.3901V3.60976H18.7316V2.63415Z" fill="#474542"/>
<path d="M18.7316 4.58537H16.3901V5.56097H18.7316V4.58537Z" fill="#474542"/>
</svg>
