<svg width="24" height="24" viewBox="0 0 24 24" fill="none" xmlns="http://www.w3.org/2000/svg" id="mail">
    <path fill-rule="evenodd" clip-rule="evenodd" d="M2.5204 5.75393C2.63897 5.04569 3.25988 4.5 4 4.5H20C20.7401 4.5 21.3611 5.04571 21.4796 5.75399L12 12.3897L2.5204 5.75393ZM2.5 6.96031V18C2.5 18.8239 3.17614 19.5 4 19.5H20C20.8239 19.5 21.5 18.8239 21.5 18V6.96037L12.2868 13.4096C12.1146 13.5301 11.8855 13.5301 11.7133 13.4096L2.5 6.96031ZM22.5 6.00895V18C22.5 19.3761 21.3761 20.5 20 20.5H4C2.62386 20.5 1.5 19.3761 1.5 18V6C1.5 4.62386 2.62386 3.5 4 3.5H20C21.3725 3.5 22.494 4.61788 22.5 5.989C22.5 5.99267 22.5 5.99633 22.5 6V6.00895Z" fill="black"/>
</svg>
