<svg width="24" height="24" viewBox="0 0 24 24" fill="none" xmlns="http://www.w3.org/2000/svg" id="maps">
    <path fill-rule="evenodd" clip-rule="evenodd" d="M5.98959 3.98959C7.58365 2.39553 9.74566 1.5 12 1.5C14.2543 1.5 16.4163 2.39553 18.0104 3.98959C19.6045 5.58365 20.5 7.74566 20.5 10C20.5 13.299 18.3671 16.4271 16.137 18.7811C15.0322 19.9473 13.9257 20.9004 13.0948 21.562C12.6797 21.8925 12.3345 22.1495 12.094 22.3232C12.0606 22.3473 12.0292 22.3698 12 22.3906C11.9708 22.3698 11.9394 22.3473 11.906 22.3232C11.6655 22.1495 11.3203 21.8925 10.9052 21.562C10.0743 20.9004 8.96781 19.9473 7.86298 18.7811C5.63287 16.4271 3.5 13.299 3.5 10C3.5 7.74566 4.39553 5.58365 5.98959 3.98959ZM11.7223 23.4158C11.7225 23.4159 11.7226 23.416 12 23L11.7226 23.416C11.8906 23.528 12.1094 23.528 12.2774 23.416L12 23C12.2774 23.416 12.2775 23.4159 12.2777 23.4158L12.2782 23.4155L12.2799 23.4143L12.2856 23.4105L12.3067 23.3962C12.325 23.3838 12.3515 23.3657 12.3858 23.3419C12.4542 23.2945 12.5536 23.2248 12.6795 23.1339C12.9311 22.9521 13.289 22.6856 13.7177 22.3443C14.5743 21.6621 15.7178 20.6777 16.863 19.4689C19.1329 17.0729 21.5 13.701 21.5 10C21.5 7.48044 20.4991 5.06408 18.7175 3.28249C16.9359 1.50089 14.5196 0.5 12 0.5C9.48044 0.5 7.06408 1.50089 5.28249 3.28249C3.50089 5.06408 2.5 7.48044 2.5 10C2.5 13.701 4.86713 17.0729 7.13702 19.4689C8.28219 20.6777 9.42567 21.6621 10.2823 22.3443C10.711 22.6856 11.0689 22.9521 11.3205 23.1339C11.4464 23.2248 11.5458 23.2945 11.6142 23.3419C11.6485 23.3657 11.675 23.3838 11.6933 23.3962L11.7144 23.4105L11.7201 23.4143L11.7218 23.4155L11.7223 23.4158ZM9.5 10C9.5 8.61929 10.6193 7.5 12 7.5C13.3807 7.5 14.5 8.61929 14.5 10C14.5 11.3807 13.3807 12.5 12 12.5C10.6193 12.5 9.5 11.3807 9.5 10ZM12 6.5C10.067 6.5 8.5 8.067 8.5 10C8.5 11.933 10.067 13.5 12 13.5C13.933 13.5 15.5 11.933 15.5 10C15.5 8.067 13.933 6.5 12 6.5Z" fill="#474542"/>
</svg>
