<svg width="18" height="18" viewBox="0 0 18 18" xmlns="http://www.w3.org/2000/svg" id="question">
    <path fill-rule="evenodd" clip-rule="evenodd" d="M9.00005 17.9259C4.05799 17.9259 0.0371094 13.905 0.0371094 8.96294C0.0371094 4.02088 4.05799 0 9.00005 0C13.9421 0 17.963 4.02088 17.963 8.96294C17.963 13.905 13.9421 17.9259 9.00005 17.9259ZM9.00013 0.984705C4.60071 0.984705 1.02189 4.56353 1.02189 8.96294C1.02189 13.3624 4.60071 16.9412 9.00013 16.9412C13.3995 16.9412 16.9784 13.3624 16.9784 8.96294C16.9784 4.56353 13.3995 0.984705 9.00013 0.984705Z"/>
    <path fill-rule="evenodd" clip-rule="evenodd" d="M6.24358 6.40641C6.38123 6.00724 6.58505 5.66788 6.85611 5.38782C7.12664 5.10776 7.45487 4.89018 7.84029 4.734C8.2257 4.57782 8.66617 4.5 9.1617 4.5C9.54711 4.5 9.90711 4.55718 10.2422 4.67206C10.5773 4.78694 10.8733 4.95424 11.1301 5.17447C11.3868 5.39471 11.5891 5.661 11.7357 5.97282C11.8823 6.28465 11.9559 6.64306 11.9559 7.04647C11.9559 7.56053 11.8437 7.99624 11.6187 8.35412C11.3937 8.712 11.1068 9.05612 10.7584 9.38647C10.4741 9.67076 10.2465 9.89365 10.0771 10.0541C9.90711 10.215 9.78111 10.3733 9.69852 10.5289C9.61593 10.6846 9.56087 10.8757 9.53334 11.1002C9.50582 11.3252 9.48729 11.4655 9.47829 11.8874H8.61111C8.60211 11.4655 8.62487 11.2955 8.67993 11.0107C8.73499 10.7264 8.82446 10.4691 8.94834 10.2399C9.07223 10.0106 9.2374 9.79041 9.44387 9.57918C9.65034 9.36794 9.90023 9.12971 10.1941 8.86341C10.4508 8.62518 10.6642 8.35888 10.8341 8.06506C11.0041 7.77176 11.0888 7.44565 11.0888 7.08776C11.0888 6.81247 11.0358 6.56047 10.9305 6.33071C10.8251 6.10147 10.6827 5.90612 10.5038 5.74571C10.3248 5.58529 10.1157 5.45876 9.87746 5.36718C9.6387 5.27559 9.38617 5.22953 9.1204 5.22953C8.75352 5.22953 8.4274 5.29412 8.14311 5.42224C7.85882 5.55088 7.62429 5.72718 7.44111 5.95218C7.2574 6.17718 7.11976 6.44082 7.02817 6.74365C6.93605 7.04647 6.89476 7.29424 6.90429 7.65212H6.03711C6.03711 7.16559 6.10593 6.80559 6.24358 6.40641ZM8.47348 12.9462H9.52913V14.0051H8.47348V12.9462Z"/>
</svg>
