<svg width="72" height="52" viewBox="0 0 72 52" fill="none" xmlns="http://www.w3.org/2000/svg" id="truck">
    <path d="M64.3382 30.3948L63.0558 23.0479C62.9724 22.5347 62.8339 22.032 62.6426 21.5486C62.1141 20.2543 61.2127 19.1463 60.053 18.3655C58.8933 17.5847 57.5277 17.1663 56.1297 17.1634H46.6785C46.389 17.1751 46.1148 17.2961 45.911 17.502C45.7073 17.7079 45.5892 17.9834 45.5805 18.2729V34.5559H44.2311V7.03877C44.2331 6.11377 44.0524 5.19749 43.6993 4.34253C43.3462 3.48758 42.8277 2.71078 42.1736 2.05676C41.5195 1.40274 40.7426 0.884368 39.8876 0.531414C39.0326 0.17846 38.1163 -0.00212241 37.1913 3.21803e-05H7.07322C6.14647 -0.00276746 5.22825 0.177133 4.37107 0.529447C3.51389 0.881761 2.73457 1.39958 2.07765 2.05329C1.42073 2.70701 0.899114 3.48379 0.542615 4.33924C0.186116 5.19468 0.00172976 6.11201 0 7.03877V44.0836C0 44.9936 0.739933 45.8011 1.64929 45.8011H7.92756C8.19479 47.3559 8.94443 48.7871 10.0703 49.8921C11.468 51.2427 13.3352 51.9984 15.2789 51.9999C17.2225 52.0015 19.0909 51.2489 20.4908 49.9005C21.6173 48.7926 22.367 47.3585 22.6337 45.8011H49.7917C50.059 47.3558 50.8087 48.7871 51.9345 49.8921C53.3322 51.2428 55.1994 51.9984 57.143 52C59.0867 52.0016 60.9551 51.2489 62.355 49.9005C63.4815 48.7926 64.2312 47.3585 64.4979 45.8011H69.4203C70.3297 45.8011 71.0696 44.9936 71.0696 44.0842V38.8108C71.0696 35.105 68.0964 30.6524 64.3382 30.3948ZM2.0991 7.03877C2.10051 6.38758 2.23039 5.74307 2.48129 5.14215C2.73218 4.54123 3.09918 3.99573 3.56124 3.53687C4.0233 3.07801 4.57135 2.71483 5.17399 2.46812C5.77664 2.2214 6.42204 2.09601 7.07322 2.09913H37.1913C37.8407 2.09666 38.4842 2.22272 39.0847 2.47007C39.6852 2.71742 40.2308 3.08116 40.69 3.54033C41.1493 3.9995 41.5131 4.54502 41.7606 5.14544C42.0081 5.74587 42.1343 6.38934 42.132 7.03877V34.5559H2.0991V7.03877ZM20.6298 44.6597C20.5967 46.0571 20.0181 47.386 19.0178 48.3623C18.0175 49.3386 16.6749 49.8847 15.2771 49.8839C13.8793 49.883 12.5374 49.3352 11.5383 48.3577C10.5392 47.3802 9.96223 46.0505 9.93085 44.6531C9.9298 44.6135 9.92995 44.5729 9.92995 44.5331C9.92838 43.1776 10.4434 41.8725 11.3701 40.8832L11.3815 40.8712L11.4013 40.8509C11.9008 40.3241 12.5023 39.9045 13.1693 39.6178C13.8362 39.3311 14.5545 39.1833 15.2805 39.1833C16.0064 39.1833 16.7248 39.3311 17.3917 39.6178C18.0586 39.9045 18.6602 40.3241 19.1597 40.8509C19.1663 40.8577 19.1691 40.8609 19.1759 40.8676L19.1909 40.8834C20.1179 41.8727 20.633 43.1781 20.6313 44.5339C20.6312 44.5729 20.6312 44.6135 20.6298 44.6597ZM45.5805 43.702H22.674C22.5046 42.1201 21.8197 40.6379 20.7249 39.4836C20.7198 39.478 20.7136 39.4377 20.7084 39.4322C20.698 39.4212 20.6875 39.4101 20.6771 39.3993C19.9816 38.6676 19.1446 38.085 18.2169 37.6869C17.2892 37.2888 16.2903 37.0835 15.2808 37.0835C14.2713 37.0835 13.2724 37.2888 12.3447 37.6869C11.417 38.085 10.58 38.6676 9.88452 39.3993C9.87402 39.4101 9.86338 39.4214 9.85243 39.4331C9.84719 39.4385 9.84179 39.478 9.83669 39.4834C8.74143 40.6376 8.0562 42.12 7.88662 43.702H2.0991V36.655H45.5805V43.702ZM56.076 19.2625H56.1297C57.112 19.2661 58.071 19.5614 58.8852 20.111C59.6994 20.6605 60.332 21.4396 60.7027 22.3492C60.8352 22.6818 60.9307 23.0278 60.9876 23.3812L62.2052 30.3577H56.076V19.2625ZM47.6796 19.2625H53.9769V30.3577H47.6796V19.2625ZM62.494 44.6597C62.4609 46.0571 61.8823 47.386 60.882 48.3623C59.8817 49.3386 58.5391 49.8847 57.1413 49.8839C55.7435 49.883 54.4016 49.3352 53.4025 48.3577C52.4033 47.3802 51.8264 46.0505 51.795 44.6531C51.7938 44.6135 51.794 44.5729 51.794 44.5331C51.7903 43.8281 51.9259 43.1293 52.1931 42.4769C52.4603 41.8244 52.8538 41.2312 53.3511 40.7314C53.8483 40.2315 54.4394 39.8349 55.0904 39.5642C55.7414 39.2935 56.4395 39.1542 57.1445 39.1542C57.8496 39.1542 58.5476 39.2935 59.1986 39.5642C59.8497 39.8349 60.4408 40.2315 60.938 40.7314C61.4352 41.2312 61.8287 41.8244 62.0959 42.4769C62.3631 43.1293 62.4988 43.8281 62.4951 44.5331C62.4951 44.5729 62.4952 44.6135 62.494 44.6597ZM68.9705 43.702H64.5381C64.3188 41.8955 63.4456 40.2317 62.0835 39.0249C60.7213 37.8181 58.9644 37.1518 57.1446 37.1518C55.3248 37.1518 53.5679 37.8181 52.2057 39.0249C50.8436 40.2317 49.9704 41.8955 49.7511 43.702H47.6796V32.4568H63.9964C66.1889 32.4568 68.9705 35.4616 68.9705 38.8108V43.702Z" fill="#474542"/>
    <path d="M30.328 13.0205L22.2104 8.3734C22.0944 8.30742 21.9631 8.27271 21.8294 8.27271C21.6958 8.27271 21.5645 8.30742 21.4485 8.3734L13.3601 13.0205C13.2474 13.0875 13.1546 13.183 13.0914 13.2974C13.0282 13.4117 12.9967 13.5407 13.0004 13.6711V22.9653C12.9963 23.0955 13.0272 23.2244 13.0901 23.3387C13.1529 23.4531 13.2453 23.5488 13.3577 23.6159L21.4537 28.2629C21.5669 28.3288 21.6957 28.3636 21.8268 28.3636C21.9588 28.3636 22.0885 28.3289 22.2026 28.2629L30.3291 23.6159C30.4465 23.551 30.5449 23.457 30.6147 23.343C30.6845 23.229 30.7233 23.0989 30.7273 22.9656V13.6714C30.7232 13.5379 30.6842 13.4077 30.6142 13.2936C30.5442 13.1795 30.4456 13.0854 30.328 13.0205ZM21.8212 9.89138L24.2814 11.3016L17.6884 15.081L15.2282 13.6708L21.8212 9.89138ZM21.1066 26.3118L14.5136 22.5318V14.9714L21.1072 18.7512L21.1066 26.3118ZM21.8212 17.4505L19.2022 15.9481L25.7957 12.1687L28.4153 13.6703L21.8212 17.4505ZM29.214 22.5318L22.6205 26.3115V18.7514L29.214 14.9714V22.5318Z" fill="#474542"/>
</svg>
