<?xml version="1.0" standalone="no"?>
<!DOCTYPE svg PUBLIC "-//W3C//DTD SVG 20010904//EN"
 "http://www.w3.org/TR/2001/REC-SVG-20010904/DTD/svg10.dtd">
<svg version="1.0" xmlns="http://www.w3.org/2000/svg"
 width="1080.000000pt" height="1080.000000pt" viewBox="0 0 1080.000000 1080.000000"
 preserveAspectRatio="xMidYMid meet">
<metadata>
Created by potrace 1.11, written by Peter Selinger 2001-2013
</metadata>
<g transform="translate(0.000000,1080.000000) scale(0.100000,-0.100000)"
fill="#000000" stroke="none">
<path d="M1020 10044 c0 -6 -31 -10 -85 -10 -69 1 -85 -2 -86 -14 0 -10 -2
-11 -6 -2 -2 6 -14 12 -24 12 -11 0 -17 -5 -14 -10 4 -6 11 -7 17 -4 6 4 8 2
5 -4 -4 -5 -16 -8 -27 -5 -12 3 -20 0 -20 -8 0 -7 -3 -9 -6 -6 -4 4 -1 13 6
22 19 23 3 18 -21 -7 -12 -13 -19 -17 -15 -11 5 9 0 12 -18 11 -13 -1 -22 -6
-20 -10 3 -5 10 -5 16 -2 7 4 8 2 4 -4 -4 -6 -13 -9 -21 -5 -9 3 -22 0 -30 -7
-8 -6 -19 -9 -25 -5 -6 4 -10 3 -9 -2 3 -20 -2 -27 -11 -13 -9 13 -11 13 -19
0 -5 -8 -7 -18 -4 -24 3 -5 1 -6 -6 -2 -6 4 -9 11 -6 16 3 4 -3 7 -12 6 -10
-2 -18 -8 -18 -14 0 -6 -6 -17 -14 -24 -11 -11 -12 -9 -7 12 l7 25 -15 -25
c-9 -14 -15 -21 -16 -16 0 6 -6 2 -13 -9 -9 -11 -19 -15 -27 -10 -10 6 -12 4
-6 -10 5 -15 4 -16 -9 -5 -13 11 -14 10 -9 -4 5 -12 2 -15 -10 -10 -11 4 -16
1 -16 -11 0 -9 -4 -13 -10 -10 -5 3 -10 2 -10 -2 0 -5 -7 -18 -16 -29 -14 -18
-15 -18 -4 4 7 13 9 26 6 30 -3 3 -6 1 -6 -4 0 -14 -43 -59 -60 -62 -22 -5
-47 -35 -42 -51 3 -9 -2 -11 -15 -7 -16 5 -19 2 -19 -16 1 -15 -5 -23 -15 -22
-9 1 -15 -7 -15 -19 1 -11 -6 -22 -14 -25 -13 -5 -13 -3 0 14 14 18 14 18 -3
5 -11 -8 -14 -18 -8 -25 9 -12 11 -50 2 -40 -3 3 -6 10 -6 15 0 5 -4 8 -10 7
-5 -1 -9 -9 -7 -16 2 -8 -1 -11 -7 -8 -16 10 -24 -14 -9 -31 9 -12 9 -15 1 -9
-8 4 -13 2 -13 -4 0 -6 -5 -8 -12 -4 -7 4 -8 3 -4 -4 4 -7 3 -12 -3 -12 -5 0
-8 -8 -6 -19 4 -20 -28 -53 -41 -43 -5 4 -3 0 3 -8 7 -10 8 -21 3 -30 -5 -8
-6 -19 -2 -25 3 -5 -1 -4 -10 3 -14 11 -16 10 -11 -7 3 -12 10 -18 16 -14 6 3
7 1 3 -6 -6 -9 -11 -9 -24 1 -12 10 -14 10 -8 1 8 -14 17 -53 12 -53 -2 0 -10
8 -17 17 -12 14 -12 16 0 8 10 -6 12 -4 7 4 -5 7 -11 10 -14 6 -10 -9 -11 -35
-2 -35 10 0 7 -27 -5 -37 -4 -4 -5 -2 0 6 5 9 4 12 -3 8 -5 -4 -9 -15 -8 -25
2 -9 -2 -21 -8 -25 -7 -5 -5 -7 6 -5 9 2 18 -1 20 -7 2 -5 -6 -10 -17 -10 -16
0 -20 -7 -20 -30 0 -16 4 -38 8 -49 5 -10 5 -16 0 -13 -6 4 -11 -8331 -4
-8340 0 -1 15 2 31 7 19 5 28 5 25 -1 -4 -5 -2 -9 4 -9 5 0 12 8 14 18 4 15 5
15 6 0 1 -14 6 -15 31 -8 17 5 28 6 26 2 -2 -4 31 -7 75 -7 46 0 79 4 79 10 0
6 5 3 10 -5 8 -12 11 -13 19 -1 7 11 9 11 14 0 4 -11 6 -11 6 -1 1 10 6 10 21
2 17 -9 20 -8 20 7 1 15 2 16 9 3 8 -13 52 -15 308 -14 165 0 305 4 313 9 9 5
11 4 6 -3 -4 -7 -3 -12 3 -12 5 0 12 8 14 18 4 15 5 15 6 0 1 -14 6 -15 31 -8
17 5 28 6 26 2 -2 -4 31 -7 75 -7 46 0 79 4 79 10 0 6 5 3 10 -5 8 -12 11 -13
19 -1 7 11 9 11 14 0 4 -11 6 -11 6 -1 1 10 6 10 21 2 17 -9 20 -8 20 7 0 15
2 15 9 4 8 -13 65 -15 355 -15 224 -1 346 3 346 9 0 7 3 7 8 0 11 -16 42 -14
42 2 0 13 2 12 15 0 8 -9 23 -14 32 -12 10 2 23 4 28 4 7 1 7 4 0 9 -5 4 -16
14 -22 23 -10 13 -10 16 2 16 8 0 12 -4 9 -8 -2 -4 0 -10 5 -13 5 -4 12 -2 15
3 4 5 2 12 -4 16 -6 4 -8 10 -5 15 3 5 1 11 -5 15 -5 3 -10 1 -10 -6 0 -7 -3
-10 -6 -7 -3 4 0 16 6 29 11 19 10 21 -4 16 -11 -4 -15 -3 -11 4 4 6 12 8 19
6 6 -3 17 2 25 10 12 13 11 14 -6 9 -13 -4 -25 0 -34 11 -9 11 -10 14 -1 9 6
-4 12 -2 12 3 0 6 5 11 11 11 8 0 7 -6 -2 -17 -11 -15 -10 -14 9 1 22 19 30
32 13 21 -5 -3 -12 -1 -16 5 -4 6 -10 8 -15 5 -5 -3 -12 0 -16 6 -4 8 -3 9 4
5 7 -4 12 -2 12 3 0 6 5 11 11 11 5 0 7 -6 3 -12 -5 -9 -2 -9 9 1 20 16 22 22
5 19 -8 -2 -12 5 -10 16 2 10 -1 15 -6 12 -6 -3 -13 1 -16 10 -4 10 -2 13 6 8
8 -5 9 -2 5 9 -3 9 -2 19 3 22 6 4 10 11 10 18 0 8 -3 8 -12 -1 -7 -7 -16 -12
-20 -12 -5 0 6 13 24 30 18 16 27 30 21 30 -7 0 -13 -4 -13 -9 0 -5 -7 -12
-16 -15 -14 -5 -15 -4 -4 9 12 14 7 20 -14 16 -5 -1 -4 4 2 12 7 8 9 17 5 20
-3 4 0 7 7 7 7 0 10 3 7 7 -4 3 -1 13 6 21 6 9 7 13 2 10 -6 -4 -17 -2 -25 4
-12 8 -12 9 3 4 9 -3 17 -1 17 5 0 6 6 7 13 3 7 -4 9 -3 4 2 -5 5 -13 9 -18 9
-5 0 -9 5 -9 10 1 6 11 9 23 8 l22 -3 -21 9 c-24 11 -41 31 -25 31 5 0 12 -6
14 -12 4 -8 6 -7 6 4 1 9 7 19 14 22 6 3 3 4 -8 1 -15 -4 -21 0 -22 15 -1 11
3 20 8 20 6 0 7 -4 4 -10 -3 -6 1 -7 10 -4 14 6 14 8 -2 19 -10 7 -21 11 -25
9 -4 -2 -10 1 -14 7 -4 8 -3 9 4 5 7 -4 12 -2 12 3 0 6 5 11 11 11 5 0 7 -4 4
-10 -3 -6 1 -7 10 -4 14 6 14 8 -2 19 -10 7 -21 11 -25 9 -5 -3 -8 0 -8 6 0 7
6 10 13 7 6 -2 18 2 26 10 12 13 11 14 -10 9 l-24 -7 24 20 c25 23 21 27 -9
11 -13 -7 -21 -7 -26 2 -4 6 -3 8 3 5 6 -4 17 0 24 9 7 8 8 14 3 13 -21 -4
-24 2 -13 23 10 18 9 20 -5 15 -11 -4 -15 -3 -11 4 4 6 12 8 19 6 6 -3 17 2
25 10 12 13 11 14 -6 9 -13 -4 -25 0 -34 11 -9 11 -10 14 -1 9 6 -4 12 -2 12
3 0 6 5 11 11 11 8 0 7 -6 -2 -17 -11 -15 -10 -14 9 1 22 19 30 32 13 21 -5
-3 -12 -1 -16 5 -4 6 -10 8 -15 5 -5 -3 -12 0 -16 6 -4 8 -3 9 4 5 7 -4 12 -2
12 3 0 6 5 11 11 11 5 0 7 -6 3 -12 -5 -9 -2 -9 9 1 20 16 22 22 5 19 -8 -2
-12 5 -10 16 2 10 -1 15 -6 12 -6 -3 -13 1 -16 10 -4 10 -2 13 6 8 8 -5 9 -2
5 9 -3 9 -2 19 3 22 6 4 10 11 10 18 0 8 -3 8 -12 -1 -7 -7 -16 -12 -20 -12
-5 0 6 13 24 30 18 16 27 30 21 30 -7 0 -13 -4 -13 -9 0 -5 -7 -12 -16 -15
-14 -5 -15 -4 -4 9 12 14 7 20 -14 16 -5 -1 -4 4 2 12 7 8 9 17 5 20 -3 4 0 7
7 7 7 0 10 3 7 7 -4 3 -1 13 6 21 6 9 7 13 2 10 -6 -4 -17 -2 -25 4 -12 8 -12
9 3 4 9 -3 17 -1 17 5 0 6 6 7 13 3 7 -4 9 -3 4 2 -5 5 -13 9 -18 9 -5 0 -9 5
-9 10 1 6 11 9 23 8 l22 -3 -21 9 c-24 11 -41 31 -25 31 5 0 12 -6 14 -12 4
-8 6 -7 6 4 1 9 7 19 13 22 7 3 4 4 -7 1 -15 -4 -21 0 -22 15 -1 11 3 20 8 20
6 0 7 -4 4 -10 -3 -6 1 -7 10 -4 14 6 14 8 -2 19 -10 7 -21 11 -25 9 -4 -2
-10 1 -14 7 -4 8 -3 9 4 5 7 -4 12 -2 12 3 0 6 5 11 11 11 5 0 7 -4 4 -10 -3
-6 1 -7 10 -4 14 6 14 8 -2 19 -10 7 -21 11 -25 9 -5 -3 -8 0 -8 6 0 7 6 10
13 7 6 -2 18 2 26 10 12 13 11 14 -10 9 l-24 -7 24 20 c25 23 21 27 -9 11 -13
-7 -21 -7 -26 2 -4 6 -3 8 3 5 6 -4 17 0 24 9 7 8 8 14 3 13 -21 -4 -24 2 -13
23 10 18 9 20 -5 15 -11 -4 -15 -3 -11 4 4 6 12 8 19 6 6 -3 17 2 25 10 12 13
11 14 -6 9 -13 -4 -25 0 -34 11 -9 11 -10 14 -1 9 6 -4 12 -2 12 3 0 6 5 11
11 11 8 0 7 -6 -2 -17 -11 -15 -10 -14 9 1 22 19 30 32 13 21 -5 -3 -12 -1
-16 5 -4 6 -10 8 -15 5 -5 -3 -12 0 -16 6 -4 8 -3 9 4 5 7 -4 12 -2 12 3 0 6
5 11 11 11 5 0 7 -6 3 -12 -5 -9 -2 -9 9 1 20 16 22 22 5 19 -8 -2 -12 5 -10
16 2 10 -1 15 -6 12 -6 -3 -13 1 -16 10 -4 10 -2 13 6 8 8 -5 9 -2 5 9 -3 9
-2 19 3 22 6 4 10 11 10 18 0 8 -3 8 -12 -1 -7 -7 -16 -12 -20 -12 -5 0 6 13
24 30 18 16 27 30 21 30 -7 0 -13 -4 -13 -9 0 -5 -7 -12 -16 -15 -14 -5 -15
-4 -4 9 12 14 7 20 -14 16 -5 -1 -4 4 2 12 7 8 9 17 5 20 -3 4 0 7 7 7 7 0 10
3 7 7 -4 3 -1 13 6 21 6 9 7 13 2 10 -6 -4 -17 -2 -25 4 -12 8 -12 9 3 4 9 -3
17 -1 17 5 0 6 6 7 13 3 7 -4 9 -3 4 2 -5 5 -13 9 -18 9 -5 0 -9 5 -9 10 1 6
11 9 23 8 l22 -3 -21 9 c-24 11 -41 31 -25 31 5 0 12 -6 14 -12 4 -8 6 -7 6 4
1 9 7 19 13 22 7 3 4 4 -7 1 -15 -4 -21 0 -22 15 -1 11 3 20 8 20 6 0 7 -4 4
-10 -3 -6 1 -7 10 -4 14 6 14 8 -2 19 -10 7 -21 11 -25 9 -4 -2 -10 1 -14 7
-4 8 -3 9 4 5 7 -4 12 -2 12 3 0 6 5 11 11 11 5 0 7 -4 4 -10 -3 -6 1 -7 10
-4 14 6 14 8 -2 19 -10 7 -21 11 -25 9 -5 -3 -8 0 -8 6 0 7 6 10 13 7 6 -2 18
2 26 10 12 13 11 14 -10 9 l-24 -7 24 20 c25 23 21 27 -9 11 -13 -7 -21 -7
-26 2 -4 6 -3 8 3 5 6 -4 17 0 24 9 7 8 8 14 3 13 -21 -4 -24 2 -13 23 10 18
9 20 -5 15 -11 -4 -15 -3 -11 4 4 6 12 8 19 6 6 -3 17 2 25 10 12 13 11 14 -6
9 -13 -4 -25 0 -34 11 -9 11 -10 14 -1 9 6 -4 12 -2 12 3 0 6 5 11 11 11 8 0
7 -6 -2 -17 -11 -15 -10 -14 9 1 22 19 30 32 13 21 -5 -3 -12 -1 -16 5 -4 6
-10 8 -15 5 -5 -3 -12 0 -16 6 -4 8 -3 9 4 5 7 -4 12 -2 12 3 0 6 5 11 11 11
5 0 7 -5 4 -10 -10 -16 1 -12 15 6 11 12 11 15 -1 12 -9 -2 -13 4 -11 16 2 10
-1 15 -6 12 -6 -3 -13 1 -16 10 -4 10 -2 13 6 8 8 -5 9 -2 5 9 -3 9 -2 19 3
22 6 4 10 11 10 18 0 8 -3 8 -12 -1 -7 -7 -16 -12 -20 -12 -5 0 6 13 24 30 18
16 27 30 21 30 -7 0 -13 -4 -13 -9 0 -5 -7 -12 -16 -15 -14 -5 -15 -4 -4 9 12
14 7 20 -14 16 -5 -1 -4 5 4 13 14 18 25 22 15 6 -3 -5 -2 -10 3 -10 5 0 12 9
15 19 4 15 1 18 -12 13 -13 -5 -14 -3 -4 10 7 8 10 18 6 21 -3 4 -1 7 6 7 7 0
9 5 5 11 -4 8 -11 4 -19 -11 -10 -19 -13 -20 -18 -6 -4 10 -3 15 1 13 4 -2 17
7 29 20 25 26 22 29 -10 12 -22 -12 -22 -12 -3 10 11 11 15 21 10 21 -5 0 -2
5 6 11 13 9 13 10 0 6 -8 -2 -14 -9 -13 -14 1 -5 -5 -10 -12 -10 -11 0 -12 4
-4 14 9 10 8 18 -2 31 -11 14 -11 15 1 4 18 -16 27 -15 33 2 4 11 1 13 -11 9
-14 -6 -15 -4 -5 9 7 8 10 18 6 21 -3 4 -1 7 6 7 7 0 9 5 5 11 -4 8 -11 4 -19
-11 -10 -19 -13 -20 -18 -6 -4 10 -3 15 1 13 4 -2 17 7 29 20 25 26 22 29 -10
12 -22 -12 -22 -12 -3 10 11 11 15 21 10 21 -5 0 -2 5 6 11 13 9 13 10 0 6 -8
-2 -14 -9 -13 -14 1 -5 -5 -10 -12 -10 -10 0 -12 4 -5 12 6 7 8 20 4 29 -4 10
-1 16 7 16 7 0 9 3 6 7 -4 3 -1 13 6 21 6 9 7 13 2 10 -6 -4 -17 -2 -25 4 -12
8 -12 9 3 4 9 -3 17 -1 17 5 0 6 6 7 13 3 7 -4 9 -3 4 2 -5 5 -13 9 -18 9 -5
0 -9 5 -9 10 1 6 11 9 23 8 l22 -3 -21 9 c-24 11 -41 31 -25 31 5 0 12 -6 14
-12 4 -8 6 -7 6 4 1 9 7 19 14 22 6 3 3 4 -8 1 -15 -4 -21 0 -22 15 -1 11 3
20 8 20 6 0 7 -4 4 -10 -3 -6 1 -7 10 -4 14 6 14 8 -2 19 -10 7 -21 11 -25 9
-4 -2 -10 1 -14 7 -4 8 -3 9 4 5 7 -4 12 -2 12 3 0 6 5 11 11 11 5 0 7 -4 4
-10 -3 -6 1 -7 10 -4 14 6 14 8 -2 19 -10 7 -21 11 -25 9 -5 -3 -8 0 -8 6 0 7
6 10 13 7 6 -2 18 2 26 10 12 13 11 14 -10 9 l-24 -7 24 20 c25 23 21 27 -9
11 -13 -7 -21 -7 -26 2 -4 6 -3 8 3 5 6 -4 17 0 24 9 7 8 8 14 3 13 -21 -4
-24 2 -13 23 10 18 9 20 -5 15 -11 -4 -15 -3 -11 4 4 6 12 8 19 6 6 -3 17 2
25 10 12 13 11 14 -6 9 -13 -4 -25 0 -34 11 -9 11 -10 14 -1 9 6 -4 12 -2 12
3 0 6 5 11 11 11 8 0 7 -6 -2 -17 -11 -15 -10 -14 9 1 22 19 30 32 13 21 -5
-3 -12 -1 -16 5 -4 6 -10 8 -15 5 -5 -3 -12 0 -16 6 -4 8 -3 9 4 5 7 -4 12 -2
12 3 0 6 5 11 11 11 5 0 7 -4 4 -10 -10 -16 1 -12 15 6 11 12 11 15 -1 12 -9
-2 -13 4 -11 16 2 10 -1 15 -6 12 -6 -3 -13 1 -16 10 -4 10 -2 13 6 8 8 -5 9
-2 5 9 -3 9 -2 19 3 22 6 4 10 11 10 18 0 8 -3 8 -12 -1 -7 -7 -16 -12 -20
-12 -5 0 6 13 24 30 18 16 27 30 21 30 -7 0 -13 -4 -13 -9 0 -5 -7 -12 -16
-15 -14 -5 -15 -4 -4 9 12 14 7 20 -14 16 -5 -1 -4 5 4 13 14 18 25 22 15 6
-3 -5 -2 -10 3 -10 5 0 12 9 15 19 4 15 1 18 -12 13 -13 -5 -14 -3 -4 10 7 8
10 18 6 21 -3 4 -1 7 6 7 7 0 9 5 5 11 -4 8 -11 4 -19 -11 -10 -19 -13 -20
-18 -6 -4 10 -3 15 1 13 4 -2 17 7 29 20 25 26 22 29 -10 12 -22 -12 -22 -12
-3 10 11 11 15 21 10 21 -5 0 -2 5 6 11 13 9 13 10 0 6 -8 -2 -14 -9 -13 -14
1 -5 -5 -10 -12 -10 -11 0 -12 4 -4 14 9 10 8 18 -2 30 -11 15 -11 16 1 6 18
-17 27 -16 33 1 4 11 1 13 -11 9 -14 -6 -15 -4 -5 9 7 8 10 18 6 21 -3 4 -1 7
6 7 7 0 9 5 5 11 -4 8 -11 4 -19 -11 -10 -19 -13 -20 -18 -6 -4 10 -3 15 1 13
4 -2 17 7 29 20 25 26 22 29 -10 12 -22 -12 -22 -12 -3 10 11 11 15 21 10 21
-5 0 -2 5 6 11 13 9 13 10 0 6 -8 -2 -14 -9 -13 -14 1 -5 -5 -10 -12 -10 -11
0 -12 4 -4 14 9 10 8 18 -2 31 -11 14 -11 15 1 5 14 -13 39 -19 27 -6 -4 3 -1
13 6 21 10 13 9 14 -2 8 -9 -6 -12 -5 -9 5 3 8 10 13 16 12 6 -2 9 4 5 12 -5
14 -7 13 -18 -1 -11 -16 -12 -16 -18 0 -4 10 -3 15 3 11 6 -3 10 -1 10 4 0 6
-6 11 -12 11 -9 0 -8 4 2 10 8 5 11 10 6 10 -5 0 -3 7 4 15 10 12 8 14 -9 10
-12 -2 -19 0 -16 6 4 5 11 7 16 4 5 -4 9 -1 9 5 0 6 4 8 10 5 6 -3 7 1 3 10
-4 12 -8 13 -13 5 -5 -8 -9 -7 -13 5 -4 9 -3 14 2 11 5 -3 9 5 9 19 0 14 -4
23 -8 20 -3 -2 -7 2 -7 10 0 11 4 12 14 4 16 -14 18 2 2 18 -8 8 -7 13 2 18 7
5 10 4 5 -3 -3 -6 -2 -13 4 -17 5 -3 10 -2 10 4 0 6 8 8 18 4 15 -6 15 -3 -3
18 l-20 24 21 -18 c11 -9 24 -14 29 -10 4 5 5 3 2 -3 -4 -7 1 -18 10 -25 14
-12 16 -12 8 1 -9 15 -15 50 -8 50 2 0 8 -12 13 -26 6 -15 15 -22 21 -18 6 3
16 0 21 -7 8 -11 9 -10 4 4 -3 9 -1 17 5 17 6 0 7 5 3 12 -4 7 -3 8 5 4 6 -4
8 -13 4 -19 -5 -9 -3 -9 8 -1 8 6 22 11 32 11 13 0 16 -6 11 -21 -6 -21 -6
-21 9 -1 12 15 13 23 4 35 -10 13 -10 13 5 1 10 -7 15 -18 11 -25 -3 -6 4 -2
17 9 l23 20 -12 -22 c-8 -17 -8 -23 1 -29 7 -4 10 -4 6 1 -12 13 12 35 29 28
12 -5 14 -3 8 7 -5 9 -4 11 4 6 6 -4 18 -2 26 4 12 10 13 8 10 -8 -2 -12 4
-27 13 -34 15 -12 16 -11 3 5 -17 22 -3 22 28 0 17 -12 22 -12 16 -2 -9 14
-15 49 -8 49 2 0 8 -12 13 -26 6 -15 15 -22 21 -18 6 3 16 0 21 -7 8 -11 9
-10 4 4 -3 9 -1 17 5 17 6 0 7 5 3 12 -4 7 -3 8 5 4 6 -4 8 -13 4 -19 -5 -9
-3 -9 8 -1 8 6 22 11 32 11 13 0 16 -6 11 -21 -6 -21 -6 -21 9 -1 12 15 13 23
4 35 -10 13 -10 13 5 1 10 -7 15 -18 11 -25 -3 -6 4 -2 17 9 l23 20 -12 -22
c-8 -17 -8 -23 1 -29 7 -4 10 -4 6 1 -12 13 12 35 29 28 12 -5 14 -3 8 7 -5 9
-4 11 4 6 6 -4 18 -2 26 4 12 10 13 8 10 -8 -2 -12 4 -27 13 -34 15 -12 16
-11 3 5 -12 15 -11 17 8 14 13 -2 27 -10 32 -18 6 -10 9 -11 9 -1 0 7 8 12 18
10 12 -2 16 3 14 17 -2 11 1 16 5 10 9 -12 35 -19 61 -16 7 0 11 5 7 11 -3 5
-13 7 -23 4 -14 -5 -14 -4 -2 4 22 16 44 -5 28 -27 -10 -13 -10 -14 1 -4 7 6
20 9 27 6 8 -3 14 0 14 7 0 6 5 8 10 5 6 -4 8 -10 5 -15 -3 -5 0 -12 6 -16 8
-4 9 -3 5 4 -4 7 -2 12 3 12 6 0 11 5 11 11 0 5 -4 7 -10 4 -5 -3 -7 0 -4 9 5
12 12 9 34 -14 18 -18 30 -25 33 -17 3 9 8 9 20 -1 14 -12 15 -10 11 15 -2 15
-1 24 3 18 12 -15 47 -19 37 -4 -4 8 -3 10 5 5 6 -4 9 -12 6 -17 -3 -5 1 -6
10 -3 13 5 13 9 3 23 -12 14 -11 15 5 2 13 -10 14 -17 7 -26 -8 -10 -8 -15 1
-21 7 -4 10 -3 6 2 -3 5 2 18 10 29 15 19 15 19 9 -10 l-6 -30 15 25 c13 24
16 24 19 1 0 -5 5 -13 10 -18 5 -5 6 -3 2 5 -4 6 -2 12 3 12 6 0 11 5 11 11 0
5 -4 7 -10 4 -5 -3 -7 0 -4 9 5 12 12 9 35 -15 16 -16 29 -25 29 -19 0 6 8 10
18 8 12 -2 16 3 14 17 -2 11 1 16 5 10 9 -12 35 -19 61 -16 7 0 11 5 7 11 -3
5 -13 7 -23 4 -14 -5 -14 -4 -2 4 22 16 44 -5 28 -27 -8 -10 -3 -8 11 4 14 11
21 15 18 9 -4 -7 1 -18 10 -25 14 -12 16 -12 8 1 -9 15 -15 50 -8 50 2 0 8
-12 13 -26 6 -15 15 -22 21 -18 6 3 16 0 21 -7 8 -11 9 -10 4 3 -3 10 -1 18 5
18 6 0 7 5 3 12 -4 7 -3 8 5 4 6 -4 8 -13 4 -19 -5 -9 -3 -9 8 -1 8 6 22 11
32 11 13 0 16 -6 11 -21 -6 -21 -6 -21 9 -1 12 15 13 23 4 35 -10 13 -10 13 5
1 10 -7 15 -18 11 -25 -3 -6 4 -2 17 9 l23 20 -12 -22 c-8 -17 -8 -23 1 -29 7
-4 10 -4 6 1 -12 13 12 35 29 28 12 -5 14 -3 8 7 -5 9 -4 11 4 6 6 -4 18 -2
26 4 12 10 13 8 10 -8 -2 -12 4 -27 13 -34 15 -12 16 -11 3 5 -17 22 -3 22 28
0 17 -12 22 -12 16 -2 -9 14 -15 49 -8 49 2 0 8 -12 13 -26 6 -15 15 -22 21
-18 6 3 16 0 21 -7 8 -11 9 -10 4 4 -3 9 -1 17 5 17 6 0 7 5 3 12 -4 7 -3 8 5
4 6 -4 8 -13 4 -19 -5 -9 -3 -9 8 -1 8 6 22 11 32 11 13 0 16 -6 11 -21 -6
-21 -6 -21 9 -1 12 15 13 23 4 35 -10 13 -10 13 5 1 10 -7 15 -18 11 -25 -3
-6 4 -2 17 9 l23 20 -12 -22 c-8 -17 -8 -23 1 -29 7 -4 10 -4 6 1 -12 13 12
35 29 28 12 -5 14 -3 8 7 -5 9 -4 11 4 6 6 -4 18 -2 26 4 12 10 13 8 10 -8 -2
-12 4 -27 13 -34 15 -12 16 -11 3 5 -12 15 -11 17 8 14 13 -2 27 -10 32 -18 6
-10 9 -11 9 -1 0 7 8 12 18 10 12 -2 16 3 14 17 -2 11 1 16 5 10 15 -19 80
-24 68 -5 -3 5 -13 7 -23 4 -14 -5 -14 -4 -2 4 22 16 44 -5 28 -27 -10 -13
-10 -14 1 -4 7 6 20 9 27 6 8 -3 14 0 14 7 0 6 5 8 10 5 6 -4 8 -10 5 -15 -3
-5 0 -12 6 -16 8 -4 9 -3 5 4 -4 7 -2 12 3 12 6 0 11 5 11 11 0 5 -4 7 -10 4
-5 -3 -7 0 -4 9 5 12 12 9 34 -14 18 -18 30 -25 33 -17 3 9 8 9 20 -1 14 -12
15 -10 11 15 -2 15 -1 24 3 18 12 -15 47 -19 37 -4 -4 8 -3 10 5 5 6 -4 9 -12
6 -17 -3 -5 1 -6 10 -3 13 5 13 9 3 23 -12 14 -11 15 5 2 13 -10 14 -17 7 -26
-8 -10 -8 -15 1 -21 7 -4 10 -3 6 2 -3 5 2 18 10 29 15 19 15 19 9 -10 l-6
-30 15 25 c13 24 16 24 19 1 0 -5 5 -13 10 -18 5 -5 6 -3 2 5 -4 6 -2 12 3 12
6 0 11 5 11 11 0 5 -4 7 -10 4 -5 -3 -7 0 -4 9 5 12 12 9 35 -15 16 -16 29
-25 29 -19 0 6 8 10 18 8 12 -2 16 3 14 17 -2 11 1 16 5 10 9 -12 35 -19 61
-16 7 0 11 5 7 11 -3 5 -13 7 -23 4 -14 -5 -14 -4 -2 4 22 16 44 -5 28 -27 -8
-10 -3 -8 11 4 14 11 21 15 18 9 -4 -7 1 -18 10 -25 14 -12 16 -12 8 1 -9 15
-15 50 -8 50 2 0 8 -12 13 -26 6 -15 15 -22 21 -18 6 3 16 0 21 -7 8 -11 9
-10 4 4 -3 9 -1 17 5 17 6 0 7 5 3 12 -4 7 -3 8 5 4 6 -4 8 -13 4 -19 -5 -9
-3 -9 8 -1 8 6 22 11 32 11 13 0 16 -6 11 -21 -6 -21 -6 -21 9 -1 12 15 13 23
4 35 -10 13 -10 13 5 1 10 -7 15 -18 11 -25 -3 -6 4 -2 17 9 l23 20 -12 -22
c-8 -17 -8 -23 1 -29 7 -4 10 -4 6 1 -12 13 12 35 29 28 12 -5 14 -3 8 7 -5 9
-4 11 4 6 6 -4 18 -2 26 4 12 10 13 8 10 -8 -2 -12 4 -27 13 -34 15 -12 16
-11 3 5 -12 15 -11 17 8 14 13 -2 27 -10 32 -18 6 -10 9 -11 9 -1 0 7 8 12 18
10 12 -2 16 3 14 17 -2 11 1 16 5 10 9 -12 35 -19 61 -16 7 0 11 5 7 11 -3 5
-13 7 -23 4 -14 -5 -14 -4 -2 4 22 16 44 -5 28 -27 -10 -13 -10 -14 1 -4 7 6
20 9 27 6 8 -3 14 0 14 7 0 6 5 8 10 5 6 -4 8 -10 5 -15 -3 -5 0 -12 6 -16 8
-4 9 -3 5 4 -4 7 -2 12 3 12 6 0 11 5 11 11 0 5 -4 7 -10 4 -5 -3 -7 0 -4 9 5
12 12 9 34 -14 18 -18 30 -25 33 -17 3 9 8 9 20 -1 14 -12 15 -10 11 15 -2 15
-1 24 3 18 12 -15 47 -19 37 -4 -4 8 -3 10 5 5 6 -4 9 -12 6 -17 -3 -5 1 -6
10 -3 13 5 13 9 3 23 -12 14 -11 15 5 2 13 -10 14 -17 7 -26 -8 -10 -8 -15 1
-21 7 -4 10 -3 6 2 -3 5 2 18 10 29 15 19 15 19 9 -10 l-6 -30 15 25 c13 24
16 24 19 1 0 -5 5 -13 10 -18 5 -5 6 -3 2 5 -4 6 -2 12 3 12 6 0 11 5 11 11 0
5 -4 7 -10 4 -5 -3 -7 0 -4 9 5 12 12 9 35 -15 16 -16 29 -25 29 -19 0 6 8 10
18 8 12 -2 16 3 14 17 -2 11 1 16 5 10 9 -12 35 -19 61 -16 7 0 11 5 7 11 -3
5 -13 7 -23 4 -14 -5 -14 -4 -2 4 22 16 44 -5 28 -27 -8 -10 -3 -8 11 4 14 11
21 15 18 9 -4 -7 1 -18 10 -25 14 -12 16 -12 8 1 -9 15 -15 50 -8 50 2 0 8
-12 13 -26 6 -15 15 -22 21 -18 6 3 16 0 21 -7 8 -11 9 -10 4 4 -3 9 -1 17 5
17 6 0 7 5 3 12 -4 7 -3 8 5 4 6 -4 8 -13 4 -19 -5 -9 -3 -9 8 -1 8 6 22 11
32 11 13 0 16 -6 11 -21 -6 -21 -6 -21 9 -1 12 15 13 23 4 35 -10 13 -10 13 5
1 10 -7 15 -18 11 -25 -3 -6 4 -2 17 9 l23 20 -12 -22 c-8 -17 -8 -23 1 -29 7
-4 10 -4 6 1 -12 13 12 35 29 28 12 -5 14 -3 8 7 -5 9 -4 11 4 6 6 -4 18 -2
26 4 12 10 13 8 10 -8 -2 -12 4 -27 13 -34 15 -12 16 -11 3 5 -12 15 -11 17 8
14 13 -2 27 -10 32 -18 6 -10 9 -11 9 -1 0 7 8 12 18 10 12 -2 16 3 14 17 -2
11 1 16 5 10 9 -12 35 -19 61 -16 7 0 11 5 7 11 -3 5 -13 7 -23 4 -14 -5 -14
-4 -2 4 22 16 44 -5 28 -27 -10 -13 -10 -14 1 -4 7 6 20 9 27 6 8 -3 14 0 14
7 0 6 5 8 10 5 6 -4 8 -10 5 -15 -3 -5 0 -12 6 -16 8 -4 9 -3 5 4 -4 7 -2 12
3 12 6 0 11 5 11 11 0 5 -4 7 -10 4 -5 -3 -7 0 -4 9 5 12 12 9 34 -14 18 -18
30 -25 33 -17 3 9 8 9 20 -1 14 -12 15 -10 11 15 -2 15 -1 24 3 18 12 -15 47
-19 37 -4 -4 8 -3 10 5 5 6 -4 9 -12 6 -17 -3 -5 1 -6 10 -3 13 5 13 9 3 23
-12 14 -11 15 5 2 13 -10 14 -17 7 -26 -8 -10 -8 -15 1 -21 7 -4 10 -3 6 2 -3
5 2 18 10 29 15 19 15 19 9 -10 l-6 -30 15 25 c13 24 16 24 19 1 0 -5 5 -13
10 -18 5 -5 6 -3 2 5 -4 6 -2 12 3 12 6 0 11 5 11 11 0 5 -4 7 -10 4 -5 -3 -7
0 -4 9 5 12 12 9 35 -15 16 -16 29 -25 29 -19 0 6 8 10 18 8 12 -2 16 3 14 17
-2 11 1 16 5 10 9 -12 35 -19 61 -16 7 0 11 5 7 11 -3 5 -13 7 -23 4 -14 -5
-14 -4 -2 4 22 16 44 -5 28 -27 -8 -10 -3 -8 11 4 14 11 21 15 18 9 -4 -7 1
-18 10 -25 14 -12 16 -12 8 1 -9 15 -15 50 -8 50 2 0 8 -12 13 -26 6 -15 15
-22 21 -18 6 3 16 0 21 -7 8 -11 9 -10 4 4 -3 9 -1 17 5 17 6 0 7 5 3 12 -4 7
-3 8 5 4 6 -4 8 -13 4 -19 -5 -9 -3 -9 8 -1 8 6 22 11 32 11 13 0 16 -6 11
-21 -6 -21 -6 -21 9 -1 12 15 13 23 4 35 -10 13 -10 13 5 1 10 -7 15 -18 11
-25 -3 -6 4 -2 17 9 l23 20 -12 -22 c-8 -17 -8 -23 1 -29 7 -4 10 -4 6 1 -12
13 12 35 29 28 12 -5 14 -3 8 7 -5 9 -4 11 4 6 6 -4 18 -2 26 4 12 10 13 8 10
-8 -2 -12 4 -27 13 -34 15 -12 16 -11 3 5 -12 15 -11 17 8 14 13 -2 27 -10 32
-18 6 -10 9 -11 9 -1 0 7 8 12 18 10 12 -2 16 3 14 17 -2 11 1 16 5 10 9 -12
35 -19 61 -16 7 0 11 5 7 11 -3 5 -13 7 -23 4 -14 -5 -14 -4 -2 4 22 16 44 -5
28 -27 -10 -13 -10 -14 1 -4 7 6 20 9 27 6 8 -3 14 0 14 7 0 6 5 8 10 5 6 -4
8 -10 5 -15 -3 -5 0 -12 6 -16 8 -4 9 -3 5 4 -4 7 -2 12 3 12 6 0 11 5 11 11
0 5 -4 7 -10 4 -5 -3 -7 0 -4 9 5 12 12 9 34 -14 18 -18 30 -25 33 -17 3 9 8
9 20 -1 14 -12 15 -10 11 15 -2 15 -1 24 3 18 12 -15 47 -19 37 -4 -4 8 -3 10
5 5 6 -4 9 -12 6 -17 -3 -5 1 -6 10 -3 13 5 13 9 3 23 -12 14 -11 15 5 2 13
-10 14 -17 7 -26 -8 -10 -8 -15 1 -21 7 -4 10 -3 6 2 -3 5 2 18 10 29 15 19
15 19 9 -10 l-6 -30 15 25 c13 24 16 24 19 1 0 -5 5 -13 10 -18 5 -5 6 -3 2 5
-4 6 -2 12 3 12 6 0 11 5 11 11 0 5 -4 7 -10 4 -5 -3 -7 0 -4 9 5 12 12 9 35
-15 16 -16 29 -25 29 -19 0 6 8 10 18 8 12 -2 16 3 14 17 -2 11 1 16 5 10 9
-12 31 -18 56 -17 10 0 15 -4 11 -10 -4 -5 6 -2 22 8 25 17 27 17 21 2 -3 -10
-1 -20 5 -24 7 -4 8 -3 4 4 -4 7 -3 12 3 12 6 0 9 6 7 12 -1 7 -1 10 1 5 3 -4
10 -4 16 0 6 4 8 0 4 -10 -4 -12 -2 -14 10 -10 12 5 14 3 8 -8 -7 -12 -5 -12
6 -1 12 11 12 14 -1 22 -13 8 -13 11 -1 22 11 11 13 11 6 -1 -6 -11 -4 -13 8
-8 12 4 14 2 10 -11 -5 -12 2 -10 22 8 l29 25 -24 -35 c-19 -28 -20 -32 -4
-18 14 13 23 14 38 6 14 -8 17 -7 12 1 -4 6 -2 11 4 11 6 0 8 5 4 12 -4 7 -3
8 5 4 6 -4 9 -12 6 -17 -3 -5 1 -6 10 -3 13 5 13 9 3 23 -12 14 -11 15 5 2 13
-10 14 -17 7 -26 -8 -10 -8 -15 1 -21 7 -4 10 -3 6 2 -3 5 2 18 10 29 15 19
15 19 9 -10 l-6 -30 15 25 c13 24 16 24 19 1 0 -5 5 -13 10 -18 5 -5 6 -3 2 5
-4 6 -2 12 3 12 6 0 11 5 11 11 0 5 -4 7 -10 4 -6 -3 -7 1 -3 10 5 13 7 14 14
3 10 -16 41 -18 51 -3 5 6 8 5 8 -3 0 -8 5 -10 12 -6 8 5 9 2 5 -9 -3 -9 -1
-19 5 -23 7 -5 8 -2 3 6 -6 10 -4 12 8 7 10 -3 17 -2 17 2 0 5 -6 11 -12 14
-10 3 -10 8 1 18 12 12 13 12 6 0 -6 -11 -4 -13 8 -8 11 4 14 2 10 -9 -4 -10
0 -12 11 -8 12 5 15 2 10 -12 -5 -15 -3 -14 10 4 10 12 22 22 28 22 7 0 7 -4
-1 -13 -8 -10 -7 -14 4 -14 8 0 12 4 9 9 -3 4 0 8 6 8 6 0 8 5 4 12 -4 7 -3 8
5 4 6 -4 9 -12 6 -17 -3 -5 1 -6 10 -3 13 5 13 9 3 23 -12 14 -11 15 5 2 13
-10 14 -17 7 -26 -8 -10 -8 -15 1 -21 7 -4 10 -3 6 2 -3 5 2 18 10 29 15 19
15 19 9 -10 l-6 -30 15 25 c13 24 16 24 19 1 0 -5 5 -13 10 -18 5 -5 6 -3 2 5
-4 6 -2 12 3 12 6 0 11 5 11 11 0 5 -4 7 -10 4 -6 -3 -7 1 -4 10 6 14 8 14 19
-1 7 -11 17 -14 25 -9 10 6 12 4 7 -8 -3 -9 -1 -19 5 -23 7 -4 8 -3 4 4 -4 7
-3 12 3 12 6 0 9 6 7 13 -1 6 -1 9 1 4 3 -4 10 -4 16 0 6 4 8 0 4 -10 -4 -12
-2 -14 10 -10 12 5 14 3 8 -8 -7 -12 -5 -12 6 -1 12 11 12 14 -1 22 -13 8 -13
11 -1 22 11 11 13 11 6 -1 -6 -11 -4 -13 8 -8 12 4 14 2 10 -11 -5 -12 2 -10
22 8 l29 25 -24 -35 c-19 -28 -20 -32 -4 -18 14 13 23 14 38 6 14 -8 17 -7 12
1 -4 6 -2 11 4 11 6 0 8 5 4 12 -4 7 -3 8 5 4 6 -4 9 -12 6 -17 -3 -5 1 -6 10
-3 13 5 13 9 3 23 -12 14 -11 15 5 2 13 -10 14 -17 7 -26 -8 -10 -8 -15 1 -21
7 -4 10 -3 6 2 -3 5 2 18 10 29 15 19 15 19 9 -10 l-6 -30 15 25 c13 24 16 24
19 1 0 -5 5 -13 10 -18 5 -5 6 -3 2 5 -4 6 -2 12 3 12 6 0 11 5 11 11 0 5 -4
7 -10 4 -6 -3 -7 1 -3 10 5 13 7 14 14 3 10 -16 41 -18 51 -3 5 6 8 5 8 -3 0
-8 5 -10 12 -6 8 5 9 2 5 -9 -3 -9 -1 -19 5 -23 7 -5 8 -2 3 6 -6 10 -4 12 8
7 10 -3 17 -2 17 2 0 5 -6 11 -12 14 -10 3 -10 8 1 18 12 12 13 12 6 0 -6 -11
-4 -13 8 -8 11 4 14 2 10 -9 -4 -10 0 -12 11 -8 12 5 15 2 10 -12 -5 -15 -3
-14 10 4 10 12 22 22 28 22 7 0 7 -4 -1 -13 -8 -10 -7 -14 4 -14 8 0 12 4 9 9
-3 4 0 8 6 8 6 0 8 5 4 12 -4 7 -3 8 5 4 6 -4 9 -12 6 -17 -3 -5 1 -6 10 -3
13 5 13 9 3 23 -12 14 -11 15 5 2 13 -10 14 -17 7 -26 -8 -10 -8 -15 1 -21 7
-4 10 -3 6 2 -3 5 2 18 10 29 15 19 15 19 9 -10 l-6 -30 15 25 c13 24 16 24
19 1 0 -5 5 -13 10 -18 5 -5 6 -3 2 5 -4 6 -2 12 3 12 6 0 11 5 11 11 0 5 -4
7 -10 4 -5 -3 -7 0 -4 9 5 12 12 9 35 -15 16 -16 29 -25 29 -19 0 6 8 10 18 8
12 -2 16 3 14 17 -2 11 1 16 5 10 9 -12 35 -19 61 -16 7 0 11 5 7 11 -3 5 -13
7 -23 4 -14 -5 -14 -4 -2 4 22 16 44 -5 28 -27 -10 -13 -10 -14 1 -4 7 6 20 9
27 6 8 -3 14 0 14 7 0 6 5 8 10 5 6 -4 8 -10 5 -15 -3 -5 0 -12 6 -16 8 -4 9
-3 5 4 -4 7 -2 12 3 12 6 0 11 5 11 11 0 5 -4 7 -10 4 -5 -3 -7 0 -4 9 5 12
12 9 34 -14 18 -18 30 -25 33 -17 3 9 8 9 20 -1 14 -12 15 -10 11 15 -2 15 -1
24 3 18 12 -15 47 -19 37 -4 -4 8 -3 10 5 5 6 -4 9 -12 6 -17 -3 -5 1 -6 10
-3 13 5 13 9 3 23 -12 14 -11 15 5 2 13 -10 14 -17 7 -26 -8 -10 -8 -15 1 -21
7 -4 10 -3 6 2 -3 5 2 18 10 29 15 19 15 19 9 -10 l-6 -30 15 25 c13 24 16 24
19 1 0 -5 5 -13 10 -18 5 -5 6 -3 2 5 -4 6 -2 12 3 12 6 0 11 5 11 11 0 5 -4
7 -10 4 -5 -3 -7 0 -4 9 5 12 12 9 35 -15 16 -16 29 -25 29 -19 0 6 8 10 18 8
12 -2 16 3 14 17 -2 11 1 16 5 10 9 -12 35 -19 61 -16 7 0 11 5 7 11 -3 5 -13
7 -23 4 -14 -5 -14 -4 -2 4 22 16 44 -5 28 -27 -8 -10 -3 -8 11 4 14 11 21 15
18 9 -4 -7 1 -18 10 -25 14 -12 16 -12 8 1 -9 15 -15 50 -8 50 2 0 8 -12 13
-26 6 -15 15 -22 21 -18 6 3 16 0 21 -7 8 -11 9 -10 4 4 -3 9 -1 17 5 17 6 0
7 5 3 12 -4 7 -3 8 5 4 6 -4 8 -13 4 -19 -5 -9 -3 -9 8 -1 8 6 22 11 32 11 13
0 16 -6 11 -21 -6 -21 -6 -21 9 -1 12 15 13 23 4 35 -10 13 -10 13 5 1 10 -7
15 -18 11 -25 -3 -6 4 -2 17 9 l23 20 -12 -22 c-8 -17 -8 -23 1 -29 7 -4 10
-4 6 1 -12 13 12 35 29 28 12 -5 14 -3 8 7 -5 9 -4 11 4 6 6 -4 18 -2 26 4 12
10 13 8 10 -8 -2 -12 4 -27 13 -34 15 -12 16 -11 3 5 -12 15 -11 17 8 14 13
-2 27 -10 32 -18 6 -10 9 -11 9 -1 0 7 8 12 18 10 12 -2 16 3 14 17 -2 11 1
16 5 10 9 -12 35 -19 61 -16 7 0 11 5 7 11 -3 5 -13 7 -23 4 -14 -5 -14 -4 -2
4 22 16 44 -5 28 -27 -10 -13 -10 -14 1 -4 7 6 20 9 27 6 8 -3 14 0 14 7 0 6
5 8 10 5 6 -4 8 -10 5 -15 -3 -5 0 -12 6 -16 8 -4 9 -3 5 4 -4 7 -2 12 3 12 6
0 11 5 11 11 0 5 -4 7 -10 4 -5 -3 -7 0 -4 9 5 12 12 9 34 -14 18 -18 30 -25
33 -17 3 9 8 9 20 -1 14 -12 15 -10 11 15 -2 15 -1 24 3 18 12 -15 47 -19 37
-4 -4 8 -3 10 5 5 6 -4 9 -12 6 -17 -3 -5 1 -6 10 -3 13 5 13 9 3 23 -12 14
-11 15 5 2 13 -10 14 -17 7 -26 -8 -10 -8 -15 1 -21 7 -4 10 -3 6 2 -3 5 2 18
10 29 15 19 15 19 9 -10 l-6 -30 15 25 c13 24 16 24 19 1 0 -5 5 -13 10 -18 5
-5 6 -3 2 5 -4 6 -2 12 3 12 6 0 11 5 11 11 0 5 -4 7 -10 4 -5 -3 -7 0 -4 9 5
12 12 9 35 -15 16 -16 29 -25 29 -19 0 6 8 10 18 8 12 -2 16 3 14 17 -2 11 1
16 5 10 9 -12 35 -19 61 -16 7 0 11 5 7 11 -3 5 -13 7 -23 4 -14 -5 -14 -4 -2
4 22 16 44 -5 28 -27 -12 -15 -11 -15 7 0 11 9 27 14 35 11 13 -5 13 -3 0 14
-14 18 -14 18 2 5 10 -7 15 -18 11 -23 -3 -6 0 -8 8 -6 8 3 12 14 11 24 -2 10
-1 16 2 13 4 -4 9 -17 11 -29 2 -12 7 -25 11 -29 4 -3 4 2 1 12 -4 9 -2 17 4
17 6 0 7 5 3 12 -4 7 -3 8 5 4 6 -4 8 -13 4 -19 -4 -7 0 -7 10 1 9 8 21 11 27
7 18 -11 49 -14 55 -4 4 5 11 6 17 3 7 -4 6 -9 -2 -14 -8 -5 -7 -9 5 -13 9 -4
13 -3 10 3 -3 6 0 10 7 10 9 0 9 3 -2 10 -13 8 -13 11 -1 22 10 10 12 10 7 1
-4 -7 -3 -13 2 -13 5 0 9 27 9 60 0 33 -5 60 -9 60 -5 0 -6 6 -1 13 12 19 11
507 -2 507 -7 0 -7 3 0 8 13 9 16 112 3 112 -5 0 -6 6 -1 13 12 19 11 507 -2
507 -7 0 -7 3 0 8 15 10 15 105 1 114 -7 5 -7 8 -1 8 6 0 10 22 9 53 -2 66 -1
64 -21 71 -15 6 -15 5 1 -13 11 -13 14 -21 6 -26 -6 -4 -9 -1 -8 7 2 7 -6 14
-17 14 -11 1 -26 2 -33 3 -7 1 -10 6 -6 13 4 7 3 8 -5 4 -6 -4 -9 -11 -6 -16
3 -5 0 -12 -6 -16 -8 -4 -9 -3 -5 4 4 7 1 12 -8 12 -9 0 -16 6 -17 13 -1 6 -5
1 -9 -13 -6 -18 -8 -20 -9 -7 -1 14 -5 16 -18 8 -13 -7 -23 -5 -36 7 -16 14
-17 14 -12 0 4 -9 1 -19 -6 -24 -8 -4 -10 -3 -5 4 5 8 -2 12 -18 12 -14 0 -26
6 -26 13 0 8 -4 7 -10 -3 -8 -13 -13 -13 -31 -2 -11 8 -18 9 -14 3 3 -6 -1
-11 -9 -11 -9 0 -16 6 -16 13 0 9 -3 8 -9 -2 -7 -11 -15 -11 -40 -3 -18 7 -29
7 -26 2 4 -6 3 -10 -2 -11 -4 0 -16 -2 -26 -4 -9 -2 -14 1 -11 6 3 6 -4 7 -19
4 -14 -4 -28 -2 -32 5 -5 8 -10 8 -21 -1 -7 -6 -11 -16 -7 -23 4 -7 1 -7 -8 1
-12 10 -18 10 -29 0 -10 -9 -11 -9 -6 1 4 7 1 12 -8 12 -9 0 -16 6 -17 13 -1
6 -5 1 -9 -13 -6 -18 -8 -20 -9 -7 -1 14 -5 16 -18 8 -13 -7 -23 -5 -36 7 -16
14 -17 14 -12 0 4 -9 1 -19 -6 -24 -8 -4 -10 -3 -5 4 5 8 -2 12 -18 12 -14 0
-26 6 -26 13 0 8 -4 7 -10 -3 -8 -13 -13 -13 -31 -2 -11 8 -18 9 -14 3 3 -6
-1 -11 -9 -11 -9 0 -16 6 -16 13 0 8 -2 9 -8 1 -7 -12 -65 -16 -57 -4 2 3 -2
7 -9 7 -8 0 -12 -10 -10 -24 1 -13 -2 -21 -7 -17 -5 3 -7 9 -4 14 3 5 0 12 -7
16 -16 10 -68 13 -62 3 2 -4 15 -6 29 -5 13 2 22 -1 19 -5 -3 -5 -15 -7 -27
-5 -12 3 -28 5 -35 5 -7 1 -10 7 -7 14 4 6 -1 3 -9 -7 -14 -18 -21 -15 -17 7
1 5 -3 6 -9 2 -6 -3 -8 -10 -5 -15 3 -5 0 -12 -6 -16 -8 -4 -9 -3 -5 4 4 7 1
12 -8 12 -9 0 -16 6 -17 13 -1 6 -5 1 -9 -13 -6 -18 -8 -20 -9 -7 -1 14 -5 16
-18 8 -13 -7 -23 -5 -36 7 -16 14 -17 14 -12 0 4 -9 1 -19 -6 -24 -7 -4 -10
-3 -6 3 11 18 -64 24 -95 8 -16 -7 -26 -9 -23 -4 4 5 0 9 -9 9 -8 0 -17 6 -19
13 -3 6 -6 1 -7 -13 -1 -22 -2 -23 -9 -6 -4 11 -17 20 -29 21 -17 1 -19 -1
-10 -12 6 -7 8 -16 4 -20 -3 -3 -6 -1 -6 5 0 14 -49 12 -69 -2 -11 -8 -13 -8
-7 2 4 7 1 12 -8 12 -9 0 -16 6 -17 13 -1 6 -5 1 -9 -13 -4 -14 -8 -18 -9 -9
-1 20 -82 19 -108 -2 -11 -9 -14 -10 -9 -1 4 7 2 12 -8 12 -8 0 -17 6 -19 13
-3 6 -6 1 -7 -13 -1 -22 -2 -23 -9 -6 -4 11 -17 20 -29 21 -17 1 -19 -1 -10
-12 6 -7 8 -16 4 -20 -3 -3 -6 -1 -6 5 0 14 -49 12 -69 -2 -11 -8 -13 -8 -7 2
4 7 1 12 -8 12 -9 0 -16 6 -17 13 -1 6 -5 1 -9 -13 -5 -16 -8 -19 -9 -8 -1 12
-6 15 -18 11 -10 -4 -14 -2 -10 4 3 5 0 10 -7 10 -8 0 -12 -10 -10 -24 1 -13
-2 -21 -7 -17 -5 3 -7 9 -4 14 3 5 0 12 -7 16 -16 10 -68 13 -62 3 2 -4 15 -6
29 -5 13 2 22 -1 19 -5 -3 -5 -15 -7 -27 -5 -12 3 -28 5 -35 5 -7 1 -10 7 -7
14 4 6 -1 3 -9 -7 -14 -18 -21 -15 -17 7 1 5 -3 6 -9 2 -6 -3 -8 -10 -5 -15 3
-5 0 -12 -6 -16 -8 -4 -9 -3 -5 4 4 7 1 12 -8 12 -9 0 -16 6 -17 13 -1 6 -5 1
-9 -13 -6 -18 -8 -20 -9 -7 -1 14 -5 16 -18 8 -13 -7 -23 -5 -36 7 -16 14 -17
14 -12 0 4 -9 1 -19 -6 -24 -8 -4 -10 -3 -5 4 5 8 -2 12 -18 12 -14 0 -26 6
-26 13 0 8 -4 7 -10 -3 -8 -13 -13 -13 -31 -2 -11 8 -18 9 -14 3 3 -6 -1 -11
-9 -11 -9 0 -16 6 -16 13 0 9 -3 8 -9 -2 -7 -11 -15 -11 -40 -3 -18 7 -29 7
-26 2 4 -6 3 -10 -2 -11 -4 0 -16 -2 -26 -4 -9 -2 -14 1 -11 6 3 6 -4 7 -19 4
-14 -4 -28 -2 -32 5 -5 8 -10 8 -21 -1 -7 -6 -11 -16 -7 -23 4 -7 1 -7 -8 1
-12 10 -18 10 -29 0 -10 -9 -11 -9 -6 1 4 7 1 12 -8 12 -9 0 -16 6 -17 13 -1
6 -5 1 -9 -13 -6 -18 -8 -20 -9 -7 -1 14 -5 16 -18 8 -13 -7 -23 -5 -36 7 -16
14 -17 14 -12 0 4 -9 1 -19 -6 -24 -8 -4 -10 -3 -5 4 5 8 -2 12 -18 12 -14 0
-26 6 -26 13 0 8 -4 7 -10 -3 -8 -13 -13 -13 -31 -2 -11 8 -18 9 -14 3 3 -6
-1 -11 -9 -11 -9 0 -16 6 -16 13 0 8 -2 9 -8 1 -7 -12 -65 -16 -57 -4 2 3 -2
7 -9 7 -8 0 -12 -10 -10 -24 1 -13 -2 -21 -7 -17 -5 3 -7 9 -4 14 3 5 0 12 -7
16 -16 10 -68 13 -62 3 2 -4 15 -6 29 -5 13 2 22 -1 19 -5 -3 -5 -15 -7 -27
-5 -12 3 -28 5 -35 5 -7 1 -10 7 -7 14 4 6 -1 3 -9 -7 -14 -18 -21 -15 -17 7
1 5 -3 6 -9 2 -6 -3 -8 -10 -5 -15 3 -5 0 -12 -6 -16 -8 -4 -9 -3 -5 4 4 7 1
12 -8 12 -9 0 -16 6 -17 13 -1 6 -5 1 -9 -13 -6 -18 -8 -20 -9 -7 -1 14 -5 16
-18 8 -13 -7 -23 -5 -36 7 -16 14 -17 14 -12 0 4 -9 1 -19 -6 -24 -7 -4 -10
-3 -6 3 11 18 -64 24 -95 8 -16 -7 -26 -9 -23 -4 4 5 0 9 -9 9 -8 0 -17 6 -19
13 -3 6 -6 1 -7 -13 -1 -22 -2 -23 -9 -6 -4 11 -17 20 -29 21 -17 1 -19 -1
-10 -12 6 -7 8 -16 4 -20 -3 -3 -6 -1 -6 5 0 14 -49 12 -69 -2 -11 -8 -13 -8
-7 2 4 7 1 12 -8 12 -9 0 -16 6 -17 13 -1 6 -5 1 -9 -13 -4 -14 -8 -18 -9 -9
-1 20 -82 19 -108 -2 -11 -9 -14 -10 -9 -1 4 7 2 12 -8 12 -8 0 -17 6 -19 13
-3 6 -6 1 -7 -13 -1 -22 -2 -23 -9 -6 -4 11 -17 20 -29 21 -17 1 -19 -1 -10
-12 6 -7 8 -16 4 -20 -3 -3 -6 -1 -6 5 0 14 -49 12 -69 -2 -11 -8 -13 -8 -7 2
4 7 1 12 -8 12 -9 0 -16 6 -17 13 -1 6 -5 1 -9 -13 -5 -16 -8 -19 -9 -8 -1 12
-6 15 -18 11 -10 -4 -14 -2 -10 4 3 5 0 10 -7 10 -8 0 -12 -10 -10 -24 1 -13
-2 -21 -7 -17 -5 3 -7 9 -4 14 3 5 0 12 -7 16 -16 10 -68 13 -62 3 2 -4 15 -6
29 -5 13 2 22 -1 19 -5 -3 -5 -15 -7 -27 -5 -12 3 -28 5 -35 5 -7 1 -10 7 -7
14 4 6 -1 3 -9 -7 -14 -18 -21 -15 -17 7 1 5 -3 6 -9 2 -6 -3 -8 -10 -5 -15 3
-5 0 -12 -6 -16 -8 -4 -9 -3 -5 4 4 7 1 12 -8 12 -9 0 -16 6 -17 13 -1 6 -5 1
-9 -13 -6 -18 -8 -20 -9 -7 -1 14 -5 16 -18 8 -13 -7 -23 -5 -36 7 -16 14 -17
14 -12 0 4 -9 1 -19 -6 -24 -8 -4 -10 -3 -5 4 5 8 -2 12 -18 12 -14 0 -26 6
-26 13 0 8 -4 7 -10 -3 -8 -13 -13 -13 -31 -2 -11 8 -18 9 -14 3 3 -6 -1 -11
-9 -11 -9 0 -16 6 -16 13 0 9 -3 8 -9 -2 -7 -11 -15 -11 -40 -3 -18 7 -29 7
-26 2 4 -6 3 -10 -2 -11 -4 0 -16 -2 -26 -4 -9 -2 -14 1 -11 6 3 6 -4 7 -19 4
-14 -4 -28 -2 -32 5 -5 8 -10 8 -21 -1 -7 -6 -11 -16 -7 -23 4 -7 1 -7 -8 1
-12 10 -18 10 -29 0 -10 -9 -11 -9 -6 1 4 7 1 12 -8 12 -9 0 -16 6 -17 13 -1
6 -5 1 -9 -13 -6 -18 -8 -20 -9 -7 -1 14 -5 16 -18 8 -13 -7 -23 -5 -36 7 -16
14 -17 14 -12 0 4 -9 1 -19 -6 -24 -8 -4 -10 -3 -5 4 5 8 -2 12 -18 12 -14 0
-26 6 -26 13 0 8 -4 7 -10 -3 -8 -13 -13 -13 -31 -2 -11 8 -18 9 -14 3 3 -6
-1 -11 -9 -11 -9 0 -16 6 -16 13 0 8 -2 9 -8 1 -7 -12 -65 -16 -57 -4 2 3 -2
7 -9 7 -8 0 -12 -10 -10 -24 1 -13 -2 -21 -7 -17 -5 3 -7 9 -4 14 3 5 0 12 -7
16 -16 10 -68 13 -62 3 2 -4 15 -6 29 -5 13 2 22 -1 19 -5 -3 -5 -15 -7 -27
-5 -12 3 -28 5 -35 5 -7 1 -10 7 -7 14 4 6 -1 3 -9 -7 -14 -18 -21 -15 -17 7
1 5 -3 6 -9 2 -6 -3 -8 -10 -5 -15 3 -5 0 -12 -6 -16 -8 -4 -9 -3 -5 4 4 7 1
12 -8 12 -9 0 -16 6 -17 13 -1 6 -5 1 -9 -13 -6 -18 -8 -20 -9 -7 -1 14 -5 16
-18 8 -13 -7 -23 -5 -36 7 -16 14 -17 14 -12 0 4 -9 1 -19 -6 -24 -7 -4 -10
-3 -6 3 11 18 -64 24 -95 8 -16 -7 -26 -9 -23 -4 4 5 0 9 -9 9 -8 0 -17 6 -19
13 -3 6 -6 1 -7 -13 -1 -22 -2 -23 -9 -6 -4 11 -17 20 -29 21 -17 1 -19 -1
-10 -12 6 -7 8 -16 4 -20 -3 -3 -6 -1 -6 5 0 14 -49 12 -69 -2 -11 -8 -13 -8
-7 2 4 7 1 12 -8 12 -9 0 -16 6 -17 13 -1 6 -5 1 -9 -13 -4 -14 -8 -18 -9 -9
-1 20 -82 19 -108 -2 -11 -9 -14 -10 -9 -1 4 7 2 12 -8 12 -8 0 -17 6 -19 13
-3 6 -6 1 -7 -13 -1 -22 -2 -23 -9 -6 -4 11 -17 20 -29 21 -17 1 -19 -1 -10
-12 6 -7 8 -16 4 -20 -3 -3 -6 -1 -6 5 0 14 -49 12 -69 -2 -11 -8 -13 -8 -7 2
4 7 1 12 -8 12 -9 0 -16 6 -17 13 -1 6 -5 1 -9 -13 -5 -16 -8 -19 -9 -8 -1 9
-6 20 -13 24 -7 4 -8 3 -4 -4 4 -7 1 -12 -8 -12 -9 0 -16 6 -16 13 0 8 -4 7
-10 -3 -8 -13 -13 -13 -31 -2 -11 8 -18 9 -14 3 3 -6 -1 -11 -9 -11 -9 0 -16
6 -16 13 0 9 -3 8 -9 -2 -7 -11 -15 -11 -40 -3 -18 7 -29 7 -26 2 4 -6 3 -10
-2 -11 -4 0 -16 -2 -26 -4 -9 -2 -14 1 -11 6 3 6 -4 7 -19 4 -14 -4 -28 -2
-32 5 -5 8 -10 8 -21 -1 -7 -6 -11 -16 -7 -23 4 -7 1 -7 -8 1 -12 10 -18 10
-29 0 -10 -9 -11 -9 -6 1 4 7 1 12 -8 12 -9 0 -16 6 -17 13 -1 6 -5 1 -9 -13
-6 -18 -8 -20 -9 -7 -1 14 -5 16 -18 8 -13 -7 -23 -5 -36 7 -16 14 -17 14 -12
0 4 -9 1 -19 -6 -24 -8 -4 -10 -3 -5 4 5 8 -2 12 -18 12 -14 0 -26 6 -26 13 0
8 -4 7 -10 -3 -8 -13 -13 -13 -31 -2 -11 8 -18 9 -14 3 3 -6 -1 -11 -9 -11 -9
0 -16 6 -16 13 0 8 -4 7 -10 -3 -8 -13 -13 -13 -31 -2 -11 8 -18 9 -14 3 3 -6
-1 -11 -9 -11 -9 0 -16 6 -16 13 0 8 -4 7 -10 -3 -8 -13 -13 -13 -31 -2 -11 8
-18 9 -14 3 3 -6 -1 -11 -9 -11 -9 0 -16 6 -16 13 0 9 -3 8 -9 -2 -7 -11 -15
-11 -40 -3 -18 7 -29 7 -26 2 4 -6 3 -10 -2 -11 -4 0 -16 -2 -26 -4 -9 -2 -14
1 -11 6 3 6 -4 7 -19 4 -14 -4 -28 -2 -32 5 -5 8 -10 8 -21 -1 -7 -6 -11 -16
-7 -23 4 -7 1 -7 -8 1 -12 10 -18 10 -29 0 -10 -9 -11 -9 -6 1 4 7 1 12 -8 12
-9 0 -16 6 -17 13 -1 6 -5 1 -9 -13 -6 -18 -8 -20 -9 -7 -1 14 -5 16 -18 8
-13 -7 -23 -5 -36 7 -16 14 -17 14 -12 0 4 -9 1 -19 -6 -24 -8 -4 -10 -3 -5 4
5 8 -2 12 -18 12 -14 0 -26 6 -26 13 0 8 -4 7 -10 -3 -8 -13 -13 -13 -31 -2
-11 8 -18 9 -14 3 3 -6 -1 -11 -9 -11 -9 0 -16 6 -16 13 0 8 -4 7 -10 -3 -8
-13 -13 -13 -31 -2 -11 8 -18 9 -14 3 3 -6 -1 -11 -9 -11 -9 0 -16 6 -16 13 0
8 -4 7 -10 -3 -8 -13 -13 -13 -31 -2 -11 8 -18 9 -14 3 3 -6 -1 -11 -9 -11 -9
0 -16 6 -16 13 0 9 -3 8 -9 -2 -7 -11 -15 -11 -40 -3 -18 7 -29 7 -26 2 4 -6
3 -10 -2 -11 -4 0 -16 -2 -26 -4 -9 -2 -14 1 -11 6 3 6 -4 7 -19 4 -14 -4 -28
-2 -32 5 -5 8 -10 8 -21 -1 -7 -6 -11 -16 -7 -23 4 -7 1 -7 -8 1 -12 10 -18
10 -29 0 -10 -9 -11 -9 -6 1 4 7 1 12 -8 12 -9 0 -16 6 -17 13 -1 6 -5 1 -9
-13 -6 -18 -8 -20 -9 -7 -1 14 -5 16 -18 8 -13 -7 -23 -5 -36 7 -16 14 -17 14
-12 0 4 -9 1 -19 -6 -24 -8 -4 -10 -3 -5 4 5 8 -2 12 -18 12 -14 0 -26 6 -26
13 0 8 -4 7 -10 -3 -8 -13 -13 -13 -31 -2 -11 8 -18 9 -14 3 3 -6 -1 -11 -9
-11 -9 0 -16 6 -16 13 0 8 -4 7 -10 -3 -8 -13 -13 -13 -31 -2 -11 8 -18 9 -14
3 3 -6 -1 -11 -9 -11 -9 0 -16 6 -16 13 0 8 -4 7 -10 -3 -8 -13 -13 -13 -31
-2 -11 8 -18 9 -14 3 3 -6 -1 -11 -9 -11 -9 0 -16 6 -16 13 0 9 -3 8 -9 -2 -7
-11 -15 -11 -40 -3 -18 7 -29 7 -26 2 4 -6 3 -10 -2 -11 -4 0 -16 -2 -26 -4
-9 -2 -14 1 -11 6 3 6 -4 7 -19 4 -14 -4 -28 -2 -32 5 -5 8 -10 8 -21 -1 -7
-6 -11 -16 -7 -23 4 -7 1 -7 -8 1 -12 10 -18 10 -29 0 -10 -9 -11 -9 -6 1 4 7
1 12 -8 12 -9 0 -16 6 -17 13 -1 6 -5 1 -9 -13 -6 -18 -8 -20 -9 -7 -1 14 -5
16 -18 8 -13 -7 -23 -5 -36 7 -16 14 -17 14 -12 0 4 -9 1 -19 -6 -24 -8 -4
-10 -3 -5 4 5 8 -2 12 -18 12 -14 0 -26 6 -26 13 0 8 -4 7 -10 -3 -8 -13 -13
-13 -31 -2 -11 8 -18 9 -14 3 3 -6 -1 -11 -9 -11 -9 0 -16 6 -16 13 0 8 -4 7
-10 -3 -8 -13 -13 -13 -31 -2 -11 8 -18 9 -14 3 3 -6 -1 -11 -9 -11 -9 0 -16
6 -16 13 0 8 -4 7 -10 -3 -8 -13 -13 -13 -31 -2 -11 8 -18 9 -14 3 3 -6 -1
-11 -9 -11 -9 0 -16 6 -16 13 0 9 -3 8 -9 -2 -7 -11 -15 -11 -40 -3 -18 7 -29
7 -26 2 4 -6 3 -10 -2 -11 -4 0 -16 -2 -26 -4 -9 -2 -14 1 -11 6 3 6 -4 7 -19
4 -14 -4 -28 -2 -32 5 -5 8 -10 8 -21 -1 -7 -6 -11 -16 -7 -22 3 -6 1 -7 -5
-3 -6 4 -9 13 -5 21 3 8 0 15 -6 15 -6 0 -11 -6 -11 -14 0 -8 -4 -17 -9 -21
-6 -3 -8 3 -6 13 4 21 -24 26 -37 7 -4 -5 -6 0 -5 13 1 13 6 21 14 18 7 -3 10
1 6 10 -3 7 1 14 8 14 7 0 10 3 7 6 -4 3 -17 0 -30 -7 -23 -12 -23 -12 -4 10
11 11 15 21 10 21 -5 0 -2 5 6 11 13 9 13 10 0 6 -8 -2 -14 -9 -13 -14 1 -5
-5 -10 -12 -10 -11 0 -12 4 -4 14 9 10 8 18 -2 31 -11 14 -11 15 1 5 14 -13
39 -19 27 -6 -4 3 -1 13 6 21 10 13 9 14 -2 8 -9 -6 -12 -5 -9 5 3 8 10 13 16
12 6 -2 9 4 5 12 -5 14 -7 13 -18 -1 -11 -16 -12 -16 -18 0 -4 10 -3 15 3 11
6 -3 10 -1 10 4 0 6 -6 11 -12 11 -9 0 -8 4 2 10 8 5 11 10 6 10 -5 0 -3 7 4
15 10 12 8 14 -9 10 -12 -2 -19 0 -16 6 4 5 11 7 16 4 5 -4 9 -1 9 5 0 6 6 8
13 4 7 -4 9 -3 4 2 -5 5 -13 10 -18 10 -5 1 -11 2 -14 3 -3 0 -1 11 6 23 10
18 9 20 -5 15 -11 -4 -15 -3 -11 4 4 6 12 8 19 6 6 -3 17 2 25 10 12 13 11 14
-6 9 -13 -4 -25 0 -34 11 -9 11 -10 14 -1 9 6 -4 12 -2 12 3 0 6 5 11 11 11 8
0 7 -6 -2 -17 -11 -15 -10 -14 9 1 22 19 30 32 13 21 -5 -3 -12 -1 -16 5 -4 6
-10 8 -15 5 -5 -3 -12 0 -16 6 -4 8 -3 9 4 5 7 -4 12 -2 12 3 0 6 5 11 11 11
5 0 7 -4 4 -10 -10 -16 1 -11 16 7 8 10 9 14 2 10 -6 -4 -14 -3 -18 3 -4 6
-10 8 -15 5 -5 -3 -12 0 -16 6 -4 7 -3 10 2 7 5 -3 15 0 21 7 10 11 8 15 -9
21 l-21 6 23 13 c17 9 19 14 9 18 -10 4 -10 6 -1 6 6 1 12 6 12 12 0 5 -4 8
-9 5 -5 -3 -12 1 -15 10 -4 10 -2 13 6 8 7 -5 9 -2 5 8 -3 9 -1 20 5 26 6 6 6
12 -1 16 -6 4 -11 2 -11 -5 0 -7 -3 -10 -6 -7 -3 4 0 16 6 29 11 19 10 21 -4
16 -11 -4 -15 -3 -11 4 4 6 12 8 19 6 6 -3 17 2 25 10 12 13 11 14 -6 9 -13
-4 -25 0 -34 11 -9 11 -10 14 -1 9 6 -4 12 -2 12 3 0 6 5 11 11 11 8 0 7 -6
-2 -17 -11 -15 -10 -14 9 1 22 19 30 32 13 21 -5 -3 -12 -1 -16 5 -4 6 -10 8
-15 5 -5 -3 -12 0 -16 6 -4 8 -3 9 4 5 7 -4 12 -2 12 3 0 6 5 11 11 11 5 0 7
-4 4 -10 -10 -16 1 -12 15 6 8 8 9 14 4 13 -21 -4 -26 2 -14 16 11 13 10 14
-6 8 -16 -6 -17 -4 -7 9 7 8 10 18 6 21 -3 4 -1 7 6 7 7 0 9 5 5 11 -4 8 -11
4 -19 -11 -10 -19 -13 -20 -18 -6 -4 10 -3 15 1 13 4 -2 17 7 29 20 25 26 22
29 -10 12 -22 -12 -22 -12 -3 10 11 11 15 21 10 21 -5 0 -2 5 6 11 13 9 13 10
0 6 -8 -2 -14 -9 -13 -14 1 -5 -5 -10 -12 -10 -11 0 -12 4 -4 14 9 10 8 18 -2
31 -11 14 -11 15 1 5 18 -17 27 -16 33 1 4 11 1 13 -11 9 -14 -6 -15 -4 -5 9
7 8 10 18 6 21 -3 4 -1 7 6 7 7 0 9 5 5 11 -4 8 -11 4 -19 -11 -10 -19 -13
-20 -18 -6 -4 10 -3 15 1 13 4 -2 17 7 29 20 25 26 22 29 -10 12 -22 -12 -22
-12 -3 10 11 11 15 21 10 21 -5 0 -2 5 6 11 13 9 13 10 0 6 -8 -2 -14 -9 -13
-14 1 -5 -5 -10 -12 -10 -10 0 -12 4 -5 12 6 7 8 20 4 29 -4 10 -1 16 7 16 7
0 9 3 6 7 -4 3 -1 13 6 21 6 9 7 13 2 10 -6 -4 -17 -2 -25 4 -12 8 -12 9 3 4
9 -3 17 -1 17 5 0 6 6 7 13 3 7 -4 9 -3 4 2 -5 5 -13 9 -18 9 -5 0 -8 5 -7 10
0 6 11 9 22 8 21 -3 21 -3 0 6 -24 11 -41 31 -25 31 5 0 12 -6 14 -12 4 -8 6
-7 6 4 1 9 7 19 14 22 6 3 3 4 -8 1 -15 -4 -21 0 -22 15 -1 11 3 20 8 20 6 0
7 -4 4 -10 -3 -6 1 -7 10 -4 14 6 14 8 -2 19 -10 7 -21 11 -25 9 -4 -2 -10 1
-14 7 -4 8 -3 9 4 5 7 -4 12 -2 12 3 0 6 5 11 11 11 5 0 7 -4 4 -10 -3 -6 1
-7 10 -4 14 6 14 8 -2 19 -10 7 -21 11 -25 9 -5 -3 -8 0 -8 6 0 7 6 10 13 7 6
-2 18 2 26 10 12 13 11 14 -10 9 l-24 -7 24 20 c25 23 21 27 -9 11 -13 -7 -21
-7 -26 2 -4 6 -3 8 3 5 6 -4 17 0 24 9 7 8 8 14 3 13 -21 -4 -24 2 -13 23 10
18 9 20 -5 15 -11 -4 -15 -3 -11 4 4 6 12 8 19 6 6 -3 17 2 25 10 12 13 11 14
-6 9 -13 -4 -25 0 -34 11 -9 11 -10 14 -1 9 6 -4 12 -2 12 3 0 6 5 11 11 11 8
0 7 -6 -2 -17 -11 -15 -10 -14 9 1 22 19 30 32 13 21 -5 -3 -12 -1 -16 5 -4 6
-10 8 -15 5 -5 -3 -12 0 -16 6 -4 8 -3 9 4 5 7 -4 12 -2 12 3 0 6 5 11 11 11
5 0 7 -6 3 -12 -5 -9 -2 -9 9 1 20 16 22 22 5 19 -8 -2 -12 5 -10 16 2 10 -1
15 -6 12 -6 -3 -13 1 -16 10 -4 10 -2 13 6 8 8 -5 9 -2 5 9 -3 9 -2 19 3 22 6
4 10 11 10 18 0 8 -3 8 -12 -1 -7 -7 -16 -12 -20 -12 -5 0 6 13 24 30 18 16
27 30 21 30 -7 0 -13 -4 -13 -9 0 -5 -7 -12 -16 -15 -14 -5 -15 -4 -4 9 11 14
7 19 -12 16 -13 -2 -9 6 9 20 11 10 14 10 9 2 -4 -7 -3 -13 2 -13 5 0 12 9 15
19 4 15 1 18 -12 13 -13 -5 -14 -3 -4 10 7 8 10 18 6 21 -3 4 -1 7 6 7 7 0 9
5 5 11 -4 8 -11 4 -19 -11 -10 -19 -13 -20 -18 -6 -4 10 -3 15 1 13 4 -2 17 7
29 20 25 26 22 29 -10 12 -22 -12 -22 -12 -3 10 11 11 15 21 10 21 -5 0 -2 5
6 11 13 9 13 10 0 6 -8 -2 -14 -9 -13 -14 1 -5 -5 -10 -12 -10 -11 0 -12 4 -4
14 9 10 8 18 -2 31 -11 14 -11 15 1 5 18 -17 27 -16 33 1 4 11 1 13 -11 9 -14
-6 -15 -4 -5 9 7 8 10 18 6 21 -3 4 -1 7 6 7 7 0 9 5 5 11 -4 8 -11 4 -19 -11
-10 -19 -13 -20 -18 -6 -4 10 -3 15 1 13 4 -2 17 7 29 20 25 26 22 29 -10 12
-22 -12 -22 -12 -3 10 11 11 15 21 10 21 -5 0 -2 5 6 11 13 9 13 10 0 6 -8 -2
-14 -9 -13 -14 1 -5 -5 -10 -12 -10 -10 0 -12 4 -5 12 6 7 8 20 4 29 -4 10 -1
16 7 16 7 0 9 3 6 7 -4 3 -1 13 6 21 6 9 7 13 2 10 -6 -4 -17 -2 -25 4 -12 8
-12 9 3 4 9 -3 17 -1 17 5 0 6 6 7 13 3 7 -4 9 -3 4 2 -5 5 -13 9 -18 9 -5 0
-8 5 -7 10 0 6 11 9 22 8 21 -3 21 -3 0 6 -24 11 -41 31 -25 31 5 0 12 -6 14
-12 4 -8 6 -7 6 4 1 9 7 19 14 22 6 3 3 4 -8 1 -15 -4 -21 0 -22 15 -1 11 3
20 8 20 6 0 7 -4 4 -10 -3 -6 1 -7 10 -4 14 6 14 8 -2 19 -10 7 -21 11 -25 9
-4 -2 -10 1 -14 7 -4 8 -3 9 4 5 7 -4 12 -2 12 3 0 6 5 11 11 11 5 0 7 -5 3
-12 -4 -7 -3 -8 5 -4 9 6 9 11 0 22 -6 7 -15 12 -19 9 -5 -3 -12 -1 -15 5 -4
6 -1 9 7 8 7 -2 12 2 11 8 -1 6 4 11 12 11 8 0 12 -4 9 -9 -3 -4 0 -8 6 -8 6
0 9 -4 6 -8 -3 -5 1 -9 8 -9 11 0 12 4 3 18 -9 14 -8 21 2 31 11 11 13 11 6 0
-4 -8 -2 -13 6 -11 37 5 70 -2 63 -13 -4 -7 -3 -8 4 -4 7 4 12 15 12 24 0 14
2 14 9 3 5 -8 21 -15 35 -16 16 0 22 3 16 10 -5 6 2 10 20 10 16 1 27 -2 24
-6 -2 -3 17 -7 42 -7 24 -1 50 -5 57 -9 9 -5 9 -4 0 8 -10 12 -8 15 8 15 11 0
18 -5 15 -11 -2 -7 13 -11 39 -10 33 0 41 3 38 15 -3 11 -1 10 10 -2 17 -21
31 -24 24 -5 -3 7 3 13 14 13 12 0 15 -4 9 -11 -7 -8 -5 -12 5 -12 8 0 15 7
16 16 0 12 3 11 9 -4 6 -14 9 -15 10 -5 0 12 4 10 16 -5 16 -20 16 -20 9 3 -6
21 -5 22 13 11 16 -10 23 -10 35 0 12 9 17 9 23 0 4 -7 3 -9 -3 -6 -5 3 -10 0
-10 -8 0 -22 12 -18 26 8 6 12 9 14 7 5 -3 -10 0 -20 6 -24 7 -4 8 -3 4 4 -10
16 26 15 43 0 11 -10 13 -10 7 0 -4 6 -2 12 4 12 6 0 9 4 6 9 -7 11 21 8 31
-4 4 -4 3 -5 -3 -2 -6 3 -11 0 -11 -8 0 -8 4 -15 9 -15 4 0 8 3 8 8 0 4 12 12
26 19 21 10 25 9 21 -2 -4 -8 0 -12 11 -10 9 2 21 4 25 4 5 1 6 4 4 9 -3 4 6
7 19 7 13 0 22 -5 20 -11 -3 -7 5 -9 20 -6 13 2 22 7 20 11 -3 4 5 7 16 7 19
0 19 -1 -2 -18 -12 -10 -17 -18 -12 -18 6 0 14 5 17 10 3 6 11 10 16 10 6 0 7
-5 3 -12 -5 -7 -3 -8 5 -4 7 5 10 15 6 24 -5 14 -4 14 12 -1 11 -9 24 -13 31
-8 18 11 73 1 65 -12 -3 -6 -1 -7 5 -3 7 4 12 15 12 24 0 14 2 14 9 3 5 -8 21
-15 35 -16 16 0 22 3 16 10 -5 6 2 10 20 10 16 1 27 -2 24 -6 -2 -3 17 -7 42
-7 24 -1 50 -5 57 -9 9 -5 9 -4 0 8 -10 12 -8 15 8 15 11 0 18 -5 15 -11 -2
-7 13 -11 39 -10 33 0 41 3 38 15 -3 11 -1 10 10 -2 17 -21 31 -24 24 -5 -3 7
3 13 14 13 12 0 15 -4 9 -11 -7 -8 -5 -12 5 -12 8 0 15 7 16 16 0 12 3 11 9
-4 6 -14 9 -15 10 -5 0 12 4 10 16 -5 16 -20 16 -20 9 3 -6 21 -5 22 13 11 16
-10 23 -10 35 0 12 9 17 9 23 0 4 -7 3 -9 -3 -6 -5 3 -10 0 -10 -8 0 -22 12
-18 26 8 6 12 9 14 7 5 -3 -10 0 -20 6 -24 7 -4 8 -3 4 4 -10 16 26 15 43 0
11 -10 13 -10 7 0 -4 6 -2 12 4 12 6 0 9 4 6 9 -7 11 21 8 31 -4 4 -4 3 -5 -3
-2 -6 3 -11 0 -11 -8 0 -8 4 -15 9 -15 4 0 8 3 8 8 0 4 12 12 26 19 21 10 25
9 21 -2 -4 -8 0 -12 11 -10 9 2 21 4 25 4 5 1 6 4 4 9 -3 4 6 7 19 7 13 0 22
-5 20 -11 -3 -7 5 -9 20 -6 13 2 22 7 20 11 -3 4 5 7 16 7 19 0 19 -1 -2 -18
-12 -10 -17 -18 -12 -18 6 0 14 5 17 10 3 6 11 10 16 10 6 0 7 -5 3 -12 -5 -7
-3 -8 5 -4 7 5 10 15 6 24 -5 14 -4 14 12 -1 11 -9 24 -13 31 -8 18 11 73 1
65 -12 -3 -6 -1 -7 5 -3 7 4 12 15 12 24 0 14 2 14 9 3 5 -8 21 -15 35 -16 16
0 22 3 16 10 -5 6 2 10 20 10 16 1 27 -2 24 -6 -2 -3 17 -7 42 -7 24 -1 50 -5
57 -9 9 -5 9 -4 0 8 -10 12 -8 15 8 15 11 0 18 -5 15 -11 -2 -7 13 -11 39 -10
33 0 41 3 38 15 -3 11 -1 10 10 -2 17 -21 31 -24 24 -5 -3 7 3 13 14 13 12 0
15 -4 9 -11 -7 -8 -5 -12 5 -12 8 0 15 7 16 16 0 12 3 11 9 -4 6 -14 9 -15 10
-5 0 12 4 10 16 -5 16 -20 16 -20 9 3 -6 21 -5 22 13 11 16 -10 23 -10 35 0
12 9 17 9 23 0 4 -7 3 -9 -3 -6 -5 3 -10 0 -10 -8 0 -22 12 -18 26 8 6 12 9
14 7 5 -3 -10 0 -20 6 -24 7 -4 8 -3 4 4 -10 16 26 15 43 0 11 -10 13 -10 7 0
-4 6 -2 12 4 12 6 0 9 4 6 9 -7 11 21 8 31 -4 4 -4 3 -5 -3 -2 -6 3 -11 0 -11
-8 0 -8 4 -15 9 -15 4 0 8 3 8 8 0 4 12 12 26 19 21 10 25 9 21 -2 -4 -8 0
-12 11 -10 9 2 21 4 25 4 5 1 6 4 4 9 -3 4 6 7 19 7 13 0 22 -5 20 -11 -3 -7
5 -9 20 -6 13 2 22 7 20 11 -3 4 5 7 16 7 19 0 19 -1 -2 -18 -12 -10 -17 -18
-12 -18 6 0 14 5 17 10 3 6 11 10 16 10 6 0 7 -5 3 -12 -5 -7 -3 -8 5 -4 7 5
10 15 6 24 -5 14 -4 14 13 -1 17 -15 20 -15 42 0 13 9 20 12 17 6 -4 -7 10
-11 39 -11 24 -1 50 -5 57 -9 9 -5 9 -4 0 8 -10 12 -8 15 8 15 11 0 18 -5 15
-11 -2 -7 13 -11 39 -10 33 0 41 3 38 15 -3 11 -1 10 10 -2 17 -21 31 -24 24
-5 -3 7 3 13 14 13 14 0 15 -3 7 -14 -9 -10 -8 -12 3 -10 8 2 17 10 21 18 5
11 7 10 7 -5 1 -13 4 -16 9 -8 9 14 60 25 67 14 2 -5 -5 -8 -17 -7 -12 0 -23
-6 -25 -14 -3 -9 -1 -11 4 -5 12 15 33 17 33 3 0 -7 5 -5 13 4 14 18 82 14 70
-5 -3 -6 -1 -7 5 -3 7 4 12 15 12 24 0 14 2 14 9 3 13 -20 60 -21 54 -1 -4 11
-1 11 10 -2 17 -21 31 -24 24 -5 -3 7 3 13 14 13 12 0 15 -4 9 -11 -7 -8 -5
-12 5 -12 8 0 15 7 16 16 0 12 3 11 9 -4 5 -11 9 -15 9 -9 1 7 8 15 17 18 8 3
13 2 10 -3 -3 -5 15 -9 40 -9 24 -1 50 -5 57 -9 9 -5 9 -4 0 8 -10 12 -8 15 8
15 11 0 18 -5 15 -11 -2 -7 13 -11 39 -10 33 0 41 3 38 15 -3 11 -1 10 10 -2
17 -21 31 -24 24 -5 -3 7 3 13 14 13 14 0 15 -3 7 -14 -9 -10 -8 -12 3 -10 8
2 17 10 21 18 5 11 7 10 7 -5 1 -13 4 -16 9 -8 9 14 60 25 67 14 2 -5 -5 -8
-17 -7 -12 0 -23 -6 -25 -14 -3 -9 -1 -11 4 -5 12 15 33 17 33 3 0 -7 5 -5 13
4 14 18 82 14 70 -5 -3 -6 -1 -7 5 -3 7 4 12 15 12 24 0 14 2 14 9 3 13 -20
60 -21 54 -1 -4 11 -1 11 10 -2 17 -21 31 -24 24 -5 -3 7 3 13 14 13 12 0 15
-4 9 -11 -7 -8 -5 -12 5 -12 8 0 15 7 16 16 0 12 3 11 9 -4 5 -11 9 -15 9 -9
1 7 8 15 17 18 8 3 13 2 10 -3 -3 -5 15 -9 40 -9 24 -1 50 -5 57 -9 9 -5 9 -4
0 8 -10 12 -8 15 8 15 11 0 18 -5 15 -11 -2 -7 13 -11 39 -10 33 0 41 3 38 15
-3 11 -1 10 10 -2 17 -21 31 -24 24 -5 -3 7 3 13 14 13 14 0 15 -3 7 -14 -9
-10 -8 -12 3 -10 8 2 17 10 21 18 5 11 7 10 7 -5 1 -13 4 -16 9 -8 9 14 60 25
67 14 2 -5 -5 -8 -17 -7 -12 0 -23 -6 -25 -14 -3 -9 -1 -11 4 -5 12 15 33 17
33 3 0 -7 5 -5 13 4 14 18 82 14 70 -5 -3 -6 -1 -7 5 -3 7 4 12 15 12 24 0 14
2 14 9 3 13 -20 60 -21 54 -1 -4 11 -1 11 10 -2 17 -21 31 -24 24 -5 -3 7 3
13 14 13 12 0 15 -4 9 -11 -7 -8 -5 -12 5 -12 8 0 15 7 16 16 0 12 3 11 9 -4
5 -11 9 -15 9 -9 1 7 8 15 17 18 8 3 13 2 10 -3 -3 -5 15 -9 40 -9 24 -1 50
-5 57 -9 9 -5 9 -4 0 8 -10 12 -8 15 8 15 11 0 18 -5 15 -11 -2 -7 13 -11 39
-10 33 0 41 3 38 15 -3 11 -1 10 10 -2 17 -21 31 -24 24 -5 -3 7 3 13 14 13
14 0 15 -3 7 -14 -9 -10 -8 -12 3 -10 8 2 17 10 21 18 5 11 7 10 7 -5 1 -13 4
-16 9 -8 9 14 60 25 67 14 2 -5 -5 -8 -17 -7 -12 0 -23 -6 -25 -14 -3 -9 -1
-11 4 -5 12 15 33 17 33 3 0 -7 5 -5 13 4 14 18 82 14 70 -5 -3 -6 -1 -7 5 -3
7 4 12 15 12 24 0 14 2 14 9 3 13 -20 60 -21 54 -1 -4 11 -1 11 10 -2 17 -21
31 -24 24 -5 -3 7 3 13 14 13 12 0 15 -4 9 -11 -7 -8 -5 -12 5 -12 8 0 15 7
16 16 0 12 3 11 9 -4 5 -11 9 -15 9 -8 1 7 8 10 18 6 10 -4 14 -2 10 4 -8 13
19 11 30 -2 4 -4 3 -5 -3 -2 -6 3 -11 0 -11 -8 0 -8 4 -15 9 -15 4 0 8 3 8 8
0 4 12 12 26 19 21 10 25 9 21 -2 -4 -8 0 -12 11 -10 9 2 21 4 25 4 5 1 6 4 4
9 -3 4 6 7 19 7 13 0 22 -5 20 -11 -3 -7 5 -9 20 -6 13 2 22 7 20 11 -3 4 5 7
16 7 19 0 19 -1 -2 -18 -12 -10 -17 -18 -12 -18 6 0 14 5 17 10 3 6 11 10 16
10 6 0 7 -5 3 -12 -5 -7 -3 -8 5 -4 7 5 10 15 6 24 -5 14 -4 14 12 -1 11 -9
24 -13 31 -8 18 11 73 1 65 -12 -3 -6 -1 -7 5 -3 7 4 12 15 12 24 0 14 2 14 9
3 5 -8 21 -15 35 -16 16 0 22 3 16 10 -5 6 2 10 20 10 16 1 27 -2 24 -6 -2 -3
17 -7 42 -7 24 -1 50 -5 57 -9 9 -5 9 -4 0 8 -10 12 -8 15 8 15 11 0 18 -5 15
-11 -2 -7 13 -11 39 -10 33 0 41 3 38 15 -3 11 -1 10 10 -2 17 -21 31 -24 24
-5 -3 7 3 13 14 13 12 0 15 -4 9 -11 -7 -8 -5 -12 5 -12 8 0 15 7 16 16 0 12
3 11 9 -4 6 -14 9 -15 10 -5 0 12 4 10 16 -5 16 -20 16 -20 9 3 -6 21 -5 22
13 11 16 -10 23 -10 35 0 12 9 17 9 23 0 4 -7 3 -9 -3 -6 -5 3 -10 0 -10 -8 0
-22 12 -18 26 8 6 12 9 14 7 5 -3 -10 0 -20 6 -24 7 -4 8 -3 4 4 -10 16 26 15
43 0 11 -10 13 -10 7 0 -4 6 -2 12 4 12 6 0 9 4 6 9 -7 11 21 8 31 -4 4 -4 3
-5 -3 -2 -6 3 -11 0 -11 -8 0 -8 4 -15 9 -15 4 0 8 3 8 8 0 4 12 12 26 19 21
10 25 9 21 -2 -4 -8 0 -12 11 -10 9 2 21 4 25 4 5 1 6 4 4 9 -3 4 6 7 19 7 13
0 22 -5 20 -11 -3 -7 5 -9 20 -6 13 2 22 7 20 11 -3 4 5 7 16 7 19 0 19 -1 -2
-18 -12 -10 -17 -18 -12 -18 6 0 14 5 17 10 3 6 11 10 16 10 6 0 7 -5 3 -12
-5 -7 -3 -8 5 -4 7 5 10 15 6 24 -5 14 -4 14 12 -1 11 -9 24 -13 31 -8 18 11
73 1 65 -12 -3 -6 -1 -7 5 -3 7 4 12 15 12 24 0 14 2 14 9 3 5 -8 21 -15 35
-16 16 0 22 3 16 10 -5 6 2 10 20 10 16 1 27 -2 24 -6 -2 -3 17 -7 42 -7 24
-1 50 -5 57 -9 9 -5 9 -4 0 8 -10 12 -8 15 8 15 11 0 18 -5 15 -11 -2 -7 13
-11 39 -10 33 0 41 3 38 15 -3 11 -1 10 10 -2 17 -21 31 -24 24 -5 -3 7 3 13
14 13 12 0 15 -4 9 -11 -7 -8 -5 -12 5 -12 8 0 15 7 16 16 0 12 3 11 9 -4 6
-14 9 -15 10 -5 0 12 4 10 16 -5 16 -20 16 -20 9 3 -6 21 -5 22 13 11 16 -10
23 -10 35 0 12 9 17 9 23 0 4 -7 3 -9 -3 -6 -5 3 -10 0 -10 -8 0 -22 12 -18
26 8 6 12 9 14 7 5 -3 -10 0 -20 6 -24 7 -4 8 -3 4 4 -10 16 26 15 43 0 11
-10 13 -10 7 0 -4 6 -2 12 4 12 6 0 9 4 6 9 -7 11 21 8 31 -4 4 -4 3 -5 -3 -2
-6 3 -11 0 -11 -8 0 -8 4 -15 9 -15 4 0 8 3 8 8 0 4 12 12 26 19 21 10 25 9
21 -2 -4 -8 0 -12 11 -10 9 2 21 4 25 4 5 1 6 4 4 9 -3 4 6 7 19 7 13 0 22 -5
20 -11 -3 -7 5 -9 20 -6 13 2 22 7 20 11 -3 4 5 7 16 7 19 0 19 -1 -2 -18 -12
-10 -17 -18 -12 -18 6 0 14 5 17 10 3 6 11 10 16 10 6 0 7 -5 3 -12 -5 -7 -3
-8 5 -4 7 5 10 15 6 24 -5 14 -4 14 12 -1 11 -9 24 -13 31 -8 18 11 73 1 65
-12 -3 -6 -1 -7 5 -3 7 4 12 15 12 24 0 14 2 14 9 3 5 -8 21 -15 35 -16 16 0
22 3 16 10 -5 6 2 10 20 10 16 1 27 -2 24 -6 -2 -3 17 -7 42 -7 24 -1 50 -5
57 -9 9 -5 9 -4 0 8 -10 12 -8 15 8 15 11 0 18 -5 15 -11 -2 -7 13 -11 39 -10
33 0 41 3 38 15 -3 11 -1 10 10 -2 17 -21 31 -24 24 -5 -3 7 3 13 14 13 12 0
15 -4 9 -11 -7 -8 -5 -12 5 -12 8 0 15 7 16 16 0 12 3 11 9 -4 6 -14 9 -15 10
-5 0 12 4 10 16 -5 16 -20 16 -20 9 3 -6 21 -5 22 13 11 16 -10 23 -10 35 0
12 9 17 9 23 0 4 -7 3 -9 -3 -6 -5 3 -10 0 -10 -8 0 -22 12 -18 26 8 6 12 9
14 7 5 -3 -10 0 -20 6 -24 7 -4 8 -3 4 4 -10 16 26 15 43 0 11 -10 13 -10 7 0
-4 6 -2 12 4 12 6 0 9 4 6 8 -3 5 1 9 9 9 7 0 12 -8 10 -18 -2 -10 1 -22 7
-25 6 -4 8 -3 5 3 -4 6 1 19 9 29 9 10 13 13 9 7 -7 -16 11 -17 20 -3 5 8 11
7 21 -1 9 -8 22 -8 42 -1 21 7 33 6 47 -4 10 -8 23 -14 29 -14 5 0 1 7 -10 15
-19 14 -19 14 1 9 18 -5 20 0 21 50 1 31 -3 56 -8 56 -5 0 -6 6 -1 13 12 19
11 507 -2 507 -7 0 -7 3 0 8 13 9 16 112 3 112 -5 0 -6 6 -1 13 12 19 11 507
-2 507 -7 0 -7 3 0 8 14 9 16 112 3 112 -7 0 -7 5 -1 13 5 6 9 34 9 62 l-1 49
-105 1 c-58 0 -111 4 -119 9 -10 6 -12 6 -7 -3 9 -14 -30 -11 -53 3 -9 6 -12
5 -8 -1 8 -13 -186 -12 -195 2 -5 7 -8 6 -8 -1 0 -13 -188 -13 -209 0 -10 6
-12 5 -7 -3 9 -14 -30 -11 -53 3 -9 6 -12 5 -8 -1 8 -13 -186 -12 -195 2 -5 7
-8 6 -8 -1 0 -13 -188 -13 -209 0 -10 6 -12 5 -7 -2 4 -7 2 -12 -3 -12 -6 0
-11 6 -11 13 0 8 -3 8 -8 1 -10 -14 -304 -14 -314 1 -5 7 -8 7 -8 0 0 -13
-329 -14 -349 -1 -9 6 -12 5 -8 -1 8 -13 -186 -12 -195 2 -5 7 -8 6 -8 -1 0
-12 -188 -13 -207 -1 -6 4 -14 4 -17 -1 -7 -11 -187 -9 -205 2 -9 6 -12 5 -8
-1 8 -13 -186 -12 -195 2 -5 7 -8 6 -8 -1 0 -13 -188 -13 -209 0 -10 6 -12 5
-7 -3 9 -14 -30 -11 -53 3 -9 6 -12 5 -8 -1 4 -6 -16 -10 -53 -9 -34 0 -60 5
-60 11 0 7 -3 7 -8 -1 -10 -14 -312 -13 -312 1 0 6 -3 6 -8 -1 -10 -14 -384
-14 -394 1 -5 7 -8 7 -8 -1 0 -13 -188 -13 -209 0 -10 6 -12 5 -7 -3 9 -14
-30 -11 -53 3 -9 6 -12 5 -8 -1 8 -13 -186 -12 -195 2 -5 7 -8 6 -8 -1 0 -13
-188 -13 -209 0 -10 6 -12 5 -7 -3 9 -14 -30 -11 -53 3 -9 6 -12 5 -8 -1 8
-13 -186 -12 -195 2 -5 7 -8 6 -8 -1 0 -13 -188 -13 -209 0 -10 6 -12 5 -7 -2
4 -7 2 -12 -3 -12 -6 0 -11 6 -11 13 0 8 -3 8 -8 1 -10 -14 -304 -14 -314 1
-5 7 -8 7 -8 0 0 -13 -329 -14 -349 -1 -9 6 -12 5 -8 -1 8 -13 -186 -12 -195
2 -5 7 -8 6 -8 -1 0 -12 -188 -13 -207 -1 -6 4 -14 4 -17 -1 -7 -11 -187 -9
-205 2 -9 6 -12 5 -8 -1 8 -13 -186 -12 -195 2 -5 7 -8 6 -8 -1 0 -13 -188
-13 -209 0 -10 6 -12 5 -7 -3 9 -14 -30 -11 -53 3 -9 6 -12 5 -8 -1 4 -6 -16
-10 -53 -9 -34 0 -60 5 -60 11 0 7 -3 7 -8 -1 -10 -14 -312 -13 -312 1 0 6 -3
6 -8 -1 -10 -14 -384 -14 -394 1 -5 7 -8 7 -8 -1 0 -13 -188 -13 -209 0 -10 6
-12 5 -7 -3 9 -14 -30 -11 -53 3 -9 6 -12 5 -8 -1 8 -13 -186 -12 -195 2 -5 7
-8 6 -8 -1 0 -13 -188 -13 -209 0 -10 6 -12 5 -7 -3 9 -14 -30 -11 -53 3 -9 6
-12 5 -8 -1 8 -13 -186 -12 -195 2 -5 7 -8 6 -8 -1 0 -13 -188 -13 -209 0 -10
6 -12 5 -7 -2 4 -7 2 -12 -3 -12 -6 0 -11 6 -11 13 0 8 -3 8 -8 1 -10 -14
-304 -14 -314 1 -5 7 -8 7 -8 0 0 -13 -329 -14 -349 -1 -9 6 -12 5 -8 -1 8
-13 -186 -12 -195 2 -5 7 -8 6 -8 -1z m-690 -284 c0 -5 -5 -10 -11 -10 -5 0
-7 -5 -3 -12 4 -7 3 -8 -4 -4 -6 4 -9 13 -5 21 6 17 23 20 23 5z m-45 -59 c3
-5 2 -12 -3 -15 -5 -3 -9 1 -9 9 0 17 3 19 12 6z m-155 -235 c0 -3 -4 -8 -10
-11 -5 -3 -10 -1 -10 4 0 6 5 11 10 11 6 0 10 -2 10 -4z m-99 -258 c11 -21 11
-22 -4 -9 -10 7 -17 17 -17 22 0 15 9 10 21 -13z m2254 -3017 c3 -5 1 -12 -5
-16 -5 -3 -10 1 -10 9 0 18 6 21 15 7z m640 0 c3 -5 1 -12 -5 -16 -5 -3 -10 1
-10 9 0 18 6 21 15 7z m640 0 c3 -5 1 -12 -5 -16 -5 -3 -10 1 -10 9 0 18 6 21
15 7z m640 0 c3 -5 1 -12 -5 -16 -5 -3 -10 1 -10 9 0 18 6 21 15 7z m640 0 c3
-5 1 -12 -5 -16 -5 -3 -10 1 -10 9 0 18 6 21 15 7z m1600 0 c3 -5 1 -12 -5
-16 -5 -3 -10 1 -10 9 0 18 6 21 15 7z m1920 0 c3 -5 1 -12 -5 -16 -5 -3 -10
1 -10 9 0 18 6 21 15 7z m1920 0 c3 -5 1 -12 -5 -16 -5 -3 -10 1 -10 9 0 18 6
21 15 7z m-4875 -5 c0 -3 -4 -8 -10 -11 -5 -3 -10 -1 -10 4 0 6 5 11 10 11 6
0 10 -2 10 -4z m320 0 c0 -3 -4 -8 -10 -11 -5 -3 -10 -1 -10 4 0 6 5 11 10 11
6 0 10 -2 10 -4z m1600 0 c0 -3 -4 -8 -10 -11 -5 -3 -10 -1 -10 4 0 6 5 11 10
11 6 0 10 -2 10 -4z m320 0 c0 -3 -4 -8 -10 -11 -5 -3 -10 -1 -10 4 0 6 5 11
10 11 6 0 10 -2 10 -4z m1600 0 c0 -3 -4 -8 -10 -11 -5 -3 -10 -1 -10 4 0 6 5
11 10 11 6 0 10 -2 10 -4z m320 0 c0 -3 -4 -8 -10 -11 -5 -3 -10 -1 -10 4 0 6
5 11 10 11 6 0 10 -2 10 -4z m-7267 -1510 c3 -8 0 -17 -7 -19 -10 -4 -12 1 -9
14 6 23 9 24 16 5z m320 0 c3 -8 0 -17 -7 -19 -10 -4 -12 1 -9 14 6 23 9 24
16 5z m960 0 c3 -8 0 -17 -7 -19 -10 -4 -12 1 -9 14 6 23 9 24 16 5z m320 0
c3 -8 0 -17 -7 -19 -10 -4 -12 1 -9 14 6 23 9 24 16 5z m960 0 c3 -8 0 -17 -7
-19 -10 -4 -12 1 -9 14 6 23 9 24 16 5z m960 0 c3 -8 0 -17 -7 -19 -10 -4 -12
1 -9 14 6 23 9 24 16 5z m960 0 c3 -8 0 -17 -7 -19 -10 -4 -12 1 -9 14 6 23 9
24 16 5z m878 -3 c11 -15 11 -16 0 -6 -7 6 -21 9 -30 6 -14 -4 -14 -3 -1 6 8
6 16 11 16 11 1 0 8 -8 15 -17z m484 7 c-3 -5 -12 -10 -18 -10 -7 0 -6 4 3 10
19 12 23 12 15 0z m640 0 c-3 -5 -12 -10 -18 -10 -7 0 -6 4 3 10 19 12 23 12
15 0z m878 -4 c3 -8 0 -17 -7 -19 -10 -4 -12 1 -9 14 6 23 9 24 16 5z m-7098
-14 c-3 -3 -11 0 -18 7 -9 10 -8 11 6 5 10 -3 15 -9 12 -12z m325 12 c0 -8
-19 -13 -24 -6 -3 5 1 9 9 9 8 0 15 -2 15 -3z m955 -12 c-3 -3 -11 0 -18 7 -9
10 -8 11 6 5 10 -3 15 -9 12 -12z m325 12 c0 -8 -19 -13 -24 -6 -3 5 1 9 9 9
8 0 15 -2 15 -3z m960 0 c0 -8 -19 -13 -24 -6 -3 5 1 9 9 9 8 0 15 -2 15 -3z
m960 0 c0 -8 -19 -13 -24 -6 -3 5 1 9 9 9 8 0 15 -2 15 -3z m960 0 c0 -8 -19
-13 -24 -6 -3 5 1 9 9 9 8 0 15 -2 15 -3z m2880 0 c0 -8 -19 -13 -24 -6 -3 5
1 9 9 9 8 0 15 -2 15 -3z m804 -3 c4 -5 -3 -7 -14 -4 -23 6 -26 13 -6 13 8 0
17 -4 20 -9z m-7800 -9 c2 -4 -4 -8 -15 -8 -10 0 -19 4 -19 8 0 4 6 8 14 8 8
0 17 -4 20 -8z m240 0 c2 -4 -4 -8 -15 -8 -10 0 -19 4 -19 8 0 4 6 8 14 8 8 0
17 -4 20 -8z m240 0 c2 -4 -4 -8 -15 -8 -10 0 -19 4 -19 8 0 4 6 8 14 8 8 0
17 -4 20 -8z m800 0 c2 -4 -4 -8 -15 -8 -10 0 -19 4 -19 8 0 4 6 8 14 8 8 0
17 -4 20 -8z m240 0 c2 -4 -4 -8 -15 -8 -10 0 -19 4 -19 8 0 4 6 8 14 8 8 0
17 -4 20 -8z m240 0 c2 -4 -4 -8 -15 -8 -10 0 -19 4 -19 8 0 4 6 8 14 8 8 0
17 -4 20 -8z m480 0 c2 -4 -4 -8 -15 -8 -10 0 -19 4 -19 8 0 4 6 8 14 8 8 0
17 -4 20 -8z m240 0 c2 -4 -4 -8 -15 -8 -10 0 -19 4 -19 8 0 4 6 8 14 8 8 0
17 -4 20 -8z m240 0 c2 -4 -4 -8 -15 -8 -10 0 -19 4 -19 8 0 4 6 8 14 8 8 0
17 -4 20 -8z m480 0 c2 -4 -4 -8 -15 -8 -10 0 -19 4 -19 8 0 4 6 8 14 8 8 0
17 -4 20 -8z m240 0 c2 -4 -4 -8 -15 -8 -10 0 -19 4 -19 8 0 4 6 8 14 8 8 0
17 -4 20 -8z m240 0 c2 -4 -4 -8 -15 -8 -10 0 -19 4 -19 8 0 4 6 8 14 8 8 0
17 -4 20 -8z m480 0 c2 -4 -4 -8 -15 -8 -10 0 -19 4 -19 8 0 4 6 8 14 8 8 0
17 -4 20 -8z m240 0 c2 -4 -4 -8 -15 -8 -10 0 -19 4 -19 8 0 4 6 8 14 8 8 0
17 -4 20 -8z m240 0 c2 -4 -4 -8 -15 -8 -10 0 -19 4 -19 8 0 4 6 8 14 8 8 0
17 -4 20 -8z m1440 0 c2 -4 -4 -8 -15 -8 -10 0 -19 4 -19 8 0 4 6 8 14 8 8 0
17 -4 20 -8z m240 0 c2 -4 -4 -8 -15 -8 -10 0 -19 4 -19 8 0 4 6 8 14 8 8 0
17 -4 20 -8z m240 0 c2 -4 -4 -8 -15 -8 -10 0 -19 4 -19 8 0 4 6 8 14 8 8 0
17 -4 20 -8z m480 0 c2 -4 -4 -8 -15 -8 -10 0 -19 4 -19 8 0 4 6 8 14 8 8 0
17 -4 20 -8z m240 0 c2 -4 -4 -8 -15 -8 -10 0 -19 4 -19 8 0 4 6 8 14 8 8 0
17 -4 20 -8z m240 0 c2 -4 -4 -8 -15 -8 -10 0 -19 4 -19 8 0 4 6 8 14 8 8 0
17 -4 20 -8z m-10209 -3831 c3 -5 2 -12 -3 -15 -5 -3 -9 1 -9 9 0 17 3 19 12
6z m380 -3 c5 4 5 1 1 -6 -6 -10 -11 -10 -22 -1 -8 6 -14 14 -14 16 0 3 6 0
13 -6 8 -6 18 -7 22 -3z m120 0 c5 4 5 1 1 -6 -6 -10 -11 -10 -22 -1 -8 6 -14
14 -14 16 0 3 6 0 13 -6 8 -6 18 -7 22 -3z m120 0 c5 4 5 1 1 -6 -6 -10 -11
-10 -22 -1 -8 6 -14 14 -14 16 0 3 6 0 13 -6 8 -6 18 -7 22 -3z m60 3 c3 -5 2
-12 -3 -15 -5 -3 -9 1 -9 9 0 17 3 19 12 6z m78 -6 c-3 -9 -8 -14 -10 -11 -3
3 -2 9 2 15 9 16 15 13 8 -4z m202 6 c3 -5 2 -12 -3 -15 -5 -3 -9 1 -9 9 0 17
3 19 12 6z m380 -3 c5 4 5 1 1 -6 -6 -10 -11 -10 -22 -1 -8 6 -14 14 -14 16 0
3 6 0 13 -6 8 -6 18 -7 22 -3z m120 0 c5 4 5 1 1 -6 -6 -10 -11 -10 -22 -1 -8
6 -14 14 -14 16 0 3 6 0 13 -6 8 -6 18 -7 22 -3z m120 0 c5 4 5 1 1 -6 -6 -10
-11 -10 -22 -1 -8 6 -14 14 -14 16 0 3 6 0 13 -6 8 -6 18 -7 22 -3z m60 3 c3
-5 2 -12 -3 -15 -5 -3 -9 1 -9 9 0 17 3 19 12 6z m120 0 c3 -5 2 -12 -3 -15
-5 -3 -9 1 -9 9 0 17 3 19 12 6z m-1795 -5 c0 -3 -4 -8 -10 -11 -5 -3 -10 -1
-10 4 0 6 5 11 10 11 6 0 10 -2 10 -4z m80 0 c0 -3 -4 -8 -10 -11 -5 -3 -10
-1 -10 4 0 6 5 11 10 11 6 0 10 -2 10 -4z m165 -6 c3 -6 -1 -7 -9 -4 -18 7
-21 14 -7 14 6 0 13 -4 16 -10z m49 -2 c-3 -4 -11 -5 -19 -1 -21 7 -19 12 4
10 11 0 18 -5 15 -9z m191 2 c3 -6 -1 -7 -9 -4 -18 7 -21 14 -7 14 6 0 13 -4
16 -10z m475 6 c0 -3 -4 -8 -10 -11 -5 -3 -10 -1 -10 4 0 6 5 11 10 11 6 0 10
-2 10 -4z m80 0 c0 -3 -4 -8 -10 -11 -5 -3 -10 -1 -10 4 0 6 5 11 10 11 6 0
10 -2 10 -4z m165 -6 c3 -6 -1 -7 -9 -4 -18 7 -21 14 -7 14 6 0 13 -4 16 -10z
m49 -2 c-3 -4 -11 -5 -19 -1 -21 7 -19 12 4 10 11 0 18 -5 15 -9z m191 2 c3
-6 -1 -7 -9 -4 -18 7 -21 14 -7 14 6 0 13 -4 16 -10z m315 6 c0 -3 -4 -8 -10
-11 -5 -3 -10 -1 -10 4 0 6 5 11 10 11 6 0 10 -2 10 -4z m80 0 c0 -3 -4 -8
-10 -11 -5 -3 -10 -1 -10 4 0 6 5 11 10 11 6 0 10 -2 10 -4z m114 -4 c3 -5 -1
-9 -9 -9 -8 0 -12 4 -9 9 3 4 7 8 9 8 2 0 6 -4 9 -8z"/>
<path d="M10723 8513 c-15 -5 -17 -23 -4 -23 5 0 11 7 15 15 3 8 4 15 3 14 -1
0 -8 -3 -14 -6z"/>
<path d="M3020 8500 c-9 -6 -10 -10 -3 -10 6 0 15 5 18 10 8 12 4 12 -15 0z"/>
<path d="M3980 8500 c-9 -6 -10 -10 -3 -10 6 0 15 5 18 10 8 12 4 12 -15 0z"/>
<path d="M4940 8500 c-9 -6 -10 -10 -3 -10 6 0 15 5 18 10 8 12 4 12 -15 0z"/>
<path d="M7820 8500 c-9 -6 -10 -10 -3 -10 6 0 15 5 18 10 8 12 4 12 -15 0z"/>
<path d="M8780 8500 c-9 -6 -10 -10 -3 -10 6 0 15 5 18 10 8 12 4 12 -15 0z"/>
<path d="M9740 8500 c-9 -6 -10 -10 -3 -10 6 0 15 5 18 10 8 12 4 12 -15 0z"/>
<path d="M2182 8265 c4 -4 3 -14 -3 -22 -7 -8 -8 -13 -1 -13 15 0 23 28 9 36
-7 4 -9 4 -5 -1z"/>
<path d="M2186 7807 c3 -10 9 -15 12 -12 3 3 0 11 -7 18 -10 9 -11 8 -5 -6z"/>
<path d="M2176 7613 c-4 -11 -1 -11 14 -3 24 13 25 17 5 17 -8 0 -16 -6 -19
-14z"/>
<path d="M2182 7305 c4 -4 3 -14 -3 -22 -7 -8 -8 -13 -1 -13 15 0 23 28 9 36
-7 4 -9 4 -5 -1z"/>
<path d="M2180 6818 c0 -4 4 -8 9 -8 6 0 12 4 15 8 3 5 -1 9 -9 9 -8 0 -15 -4
-15 -9z"/>
<path d="M2186 6767 c3 -10 9 -15 12 -12 3 3 0 11 -7 18 -10 9 -11 8 -5 -6z"/>
<path d="M2178 6683 c7 -3 16 -2 19 1 4 3 -2 6 -13 5 -11 0 -14 -3 -6 -6z"/>
<path d="M2176 6493 c-4 -11 -1 -11 14 -3 24 13 25 17 5 17 -8 0 -16 -6 -19
-14z"/>
<path d="M2183 6413 c0 -9 4 -10 14 -2 7 6 13 12 13 14 0 1 -6 2 -13 2 -8 0
-14 -6 -14 -14z"/>
<path d="M2866 6202 c-3 -5 1 -9 9 -9 8 0 15 4 15 9 0 4 -4 8 -9 8 -6 0 -12
-4 -15 -8z"/>
<path d="M3506 6202 c-3 -5 1 -9 9 -9 8 0 15 4 15 9 0 4 -4 8 -9 8 -6 0 -12
-4 -15 -8z"/>
<path d="M4146 6202 c-3 -5 1 -9 9 -9 8 0 15 4 15 9 0 4 -4 8 -9 8 -6 0 -12
-4 -15 -8z"/>
<path d="M4786 6202 c-3 -5 1 -9 9 -9 8 0 15 4 15 9 0 4 -4 8 -9 8 -6 0 -12
-4 -15 -8z"/>
<path d="M5345 6200 c-3 -6 1 -7 9 -4 18 7 21 14 7 14 -6 0 -13 -4 -16 -10z"/>
<path d="M5665 6200 c-3 -6 1 -7 9 -4 18 7 21 14 7 14 -6 0 -13 -4 -16 -10z"/>
<path d="M6386 6202 c-3 -5 1 -9 9 -9 8 0 15 4 15 9 0 4 -4 8 -9 8 -6 0 -12
-4 -15 -8z"/>
<path d="M7265 6200 c-3 -6 1 -7 9 -4 18 7 21 14 7 14 -6 0 -13 -4 -16 -10z"/>
<path d="M7585 6200 c-3 -6 1 -7 9 -4 18 7 21 14 7 14 -6 0 -13 -4 -16 -10z"/>
<path d="M8306 6202 c-3 -5 1 -9 9 -9 8 0 15 4 15 9 0 4 -4 8 -9 8 -6 0 -12
-4 -15 -8z"/>
<path d="M9185 6200 c-3 -6 1 -7 9 -4 18 7 21 14 7 14 -6 0 -13 -4 -16 -10z"/>
<path d="M9505 6200 c-3 -6 1 -7 9 -4 18 7 21 14 7 14 -6 0 -13 -4 -16 -10z"/>
<path d="M10226 6202 c-3 -5 1 -9 9 -9 8 0 15 4 15 9 0 4 -4 8 -9 8 -6 0 -12
-4 -15 -8z"/>
<path d="M2502 4661 c-11 -6 -10 -10 0 -19 11 -8 14 -7 14 9 0 10 0 19 -1 19
0 0 -6 -4 -13 -9z"/>
<path d="M2822 4661 c-11 -6 -10 -10 0 -19 11 -8 14 -7 14 9 0 10 0 19 -1 19
0 0 -6 -4 -13 -9z"/>
<path d="M3782 4661 c-11 -6 -10 -10 0 -19 11 -8 14 -7 14 9 0 10 0 19 -1 19
0 0 -6 -4 -13 -9z"/>
<path d="M4102 4661 c-11 -6 -10 -10 0 -19 11 -8 14 -7 14 9 0 10 0 19 -1 19
0 0 -6 -4 -13 -9z"/>
<path d="M5062 4661 c-11 -6 -10 -10 0 -19 11 -8 14 -7 14 9 0 10 0 19 -1 19
0 0 -6 -4 -13 -9z"/>
<path d="M6022 4661 c-11 -6 -10 -10 0 -19 11 -8 14 -7 14 9 0 10 0 19 -1 19
0 0 -6 -4 -13 -9z"/>
<path d="M6982 4661 c-11 -6 -10 -10 0 -19 11 -8 14 -7 14 9 0 10 0 19 -1 19
0 0 -6 -4 -13 -9z"/>
<path d="M9862 4661 c-11 -6 -10 -10 0 -19 11 -8 14 -7 14 9 0 10 0 19 -1 19
0 0 -6 -4 -13 -9z"/>
<path d="M2349 4643 c-13 -16 -12 -17 4 -4 9 7 17 15 17 17 0 8 -8 3 -21 -13z"/>
<path d="M2669 4643 c-13 -16 -12 -17 4 -4 9 7 17 15 17 17 0 8 -8 3 -21 -13z"/>
<path d="M3629 4643 c-13 -16 -12 -17 4 -4 9 7 17 15 17 17 0 8 -8 3 -21 -13z"/>
<path d="M3949 4643 c-13 -16 -12 -17 4 -4 9 7 17 15 17 17 0 8 -8 3 -21 -13z"/>
<path d="M4909 4643 c-13 -16 -12 -17 4 -4 9 7 17 15 17 17 0 8 -8 3 -21 -13z"/>
<path d="M5869 4643 c-13 -16 -12 -17 4 -4 9 7 17 15 17 17 0 8 -8 3 -21 -13z"/>
<path d="M6829 4643 c-13 -16 -12 -17 4 -4 9 7 17 15 17 17 0 8 -8 3 -21 -13z"/>
<path d="M8017 4643 c3 -7 6 -13 8 -13 2 0 5 6 8 13 3 8 -1 14 -8 14 -7 0 -11
-6 -8 -14z"/>
<path d="M8657 4643 c3 -7 6 -13 8 -13 2 0 5 6 8 13 3 8 -1 14 -8 14 -7 0 -11
-6 -8 -14z"/>
<path d="M9709 4643 c-13 -16 -12 -17 4 -4 9 7 17 15 17 17 0 8 -8 3 -21 -13z"/>
<path d="M10675 4649 c-4 -6 -4 -13 -1 -16 3 -4 6 -1 6 7 0 10 4 10 18 -1 15
-13 16 -12 3 4 -16 20 -18 20 -26 6z"/>
<path d="M2185 4601 c-3 -5 -2 -12 3 -15 5 -3 9 1 9 9 0 17 -3 19 -12 6z"/>
<path d="M2183 4493 c0 -9 4 -10 14 -2 7 6 13 12 13 14 0 1 -6 2 -13 2 -8 0
-14 -6 -14 -14z"/>
<path d="M2186 3967 c3 -10 9 -15 12 -12 3 3 0 11 -7 18 -10 9 -11 8 -5 -6z"/>
<path d="M2176 3773 c-4 -11 -1 -11 14 -3 24 13 25 17 5 17 -8 0 -16 -6 -19
-14z"/>
<path d="M2182 3465 c4 -4 3 -14 -3 -22 -7 -8 -8 -13 -1 -13 15 0 23 28 9 36
-7 4 -9 4 -5 -1z"/>
<path d="M2186 3007 c3 -10 9 -15 12 -12 3 3 0 11 -7 18 -10 9 -11 8 -5 -6z"/>
<path d="M2176 2813 c-4 -11 -1 -11 14 -3 24 13 25 17 5 17 -8 0 -16 -6 -19
-14z"/>
<path d="M2182 2505 c4 -4 3 -16 -3 -26 -5 -11 -6 -19 -1 -19 15 0 22 39 9 47
-7 3 -9 3 -5 -2z"/>
<path d="M2186 2367 c3 -10 9 -15 12 -12 3 3 0 11 -7 18 -10 9 -11 8 -5 -6z"/>
<path d="M2176 2173 c-4 -11 -1 -11 14 -3 24 13 25 17 5 17 -8 0 -16 -6 -19
-14z"/>
<path d="M2182 1865 c4 -4 3 -16 -3 -26 -5 -11 -6 -19 -1 -19 15 0 22 39 9 47
-7 3 -9 3 -5 -2z"/>
<path d="M2186 1727 c3 -10 9 -15 12 -12 3 3 0 11 -7 18 -10 9 -11 8 -5 -6z"/>
<path d="M2176 1533 c-4 -11 -1 -11 14 -3 24 13 25 17 5 17 -8 0 -16 -6 -19
-14z"/>
<path d="M2182 1225 c4 -4 3 -16 -3 -26 -5 -11 -6 -19 -1 -19 15 0 22 39 9 47
-7 3 -9 3 -5 -2z"/>
<path d="M2186 1087 c3 -10 9 -15 12 -12 3 3 0 11 -7 18 -10 9 -11 8 -5 -6z"/>
<path d="M2180 898 c0 -4 4 -8 9 -8 6 0 12 4 15 8 3 5 -1 9 -9 9 -8 0 -15 -4
-15 -9z"/>
</g>
</svg>
